<svg xmlns="http://www.w3.org/2000/svg" viewBox="0 0 376.21 1179.2"><defs><style>.cls-1{fill:none;}.cls-2{fill:#895432;}.cls-3{fill:#3f2c20;}.cls-4{fill:#eedec9;}</style></defs><g id="Calque_2" data-name="Calque 2"><g id="Calque_1-2" data-name="Calque 1"><path class="cls-1" d="M221.76,916.24a197.31,197.31,0,0,0,154.45,83.07v0A197.3,197.3,0,0,1,221.76,916.24Z"/><path class="cls-1" d="M221.76,916.24A196.67,196.67,0,0,1,185.33,801.9V698.8h0V801.87A196.64,196.64,0,0,0,221.76,916.24Z"/><path class="cls-2" d="M221.76,916.24A196.64,196.64,0,0,1,185.3,801.87V698.8H117.91V801.28c0,145.54,114.48,264.34,258.3,271.28V999.31A197.31,197.31,0,0,1,221.76,916.24Z"/><path class="cls-3" d="M117.7,801.28V698.8H50.31v99.1c0,184.87,144,336.12,325.9,347.75v-73.09C232.29,1065.73,117.7,946.89,117.7,801.28Z"/><path class="cls-4" d="M221.76,916.24a197.3,197.3,0,0,0,154.45,83V926A123.45,123.45,0,0,1,252.72,802.5V698.8H185.33V801.9A196.67,196.67,0,0,0,221.76,916.24Z"/><rect class="cls-1" width="376.21" height="1179.2"/></g></g></svg>