<svg xmlns="http://www.w3.org/2000/svg" viewBox="0 0 376.21 1179.2"><defs><style>.cls-1{fill:none;}.cls-2{fill:#c06955;}.cls-3{fill:#9d5746;}.cls-4{fill:#e87c66;}</style></defs><g id="Calque_2" data-name="Calque 2"><g id="Calque_1-2" data-name="Calque 1"><path class="cls-1" d="M220.55,916.24A197.31,197.31,0,0,0,375,999.31v0A197.3,197.3,0,0,1,220.55,916.24Z"/><path class="cls-1" d="M220.55,916.24A196.67,196.67,0,0,1,184.12,801.9V698.8h0V801.87A196.64,196.64,0,0,0,220.55,916.24Z"/><path class="cls-2" d="M220.55,916.24a196.64,196.64,0,0,1-36.46-114.37V698.8H116.7V801.28c0,145.54,114.48,264.34,258.3,271.28V999.31A197.31,197.31,0,0,1,220.55,916.24Z"/><path class="cls-3" d="M116.49,800.28V697.8H49.1v99.1c0,184.87,144,336.12,325.9,347.75v-73.09C231.08,1064.73,116.49,945.89,116.49,800.28Z"/><path class="cls-4" d="M220.55,916.24a197.3,197.3,0,0,0,154.45,83V926A123.45,123.45,0,0,1,251.51,802.5V698.8H184.12V801.9A196.67,196.67,0,0,0,220.55,916.24Z"/><rect class="cls-1" width="376.21" height="1179.2"/></g></g></svg>