<svg xmlns="http://www.w3.org/2000/svg" viewBox="0 0 374.9 1774.47"><defs><style>.cls-1{fill:#e6cb99;}.cls-2{opacity:0.87;}.cls-3{fill:none;}.cls-4{fill:#c06955;}.cls-5{fill:#9d5746;}.cls-6{fill:#e87c66;}</style></defs><g id="Calque_2" data-name="Calque 2"><g id="Calque_1-2" data-name="Calque 1"><rect class="cls-1" width="374.8" height="1774.47"/><g class="cls-2"><path class="cls-3" d="M184,820h0V923a196.64,196.64,0,0,0,36.43,114.4A196.57,196.57,0,0,1,184,923Z"/><path class="cls-4" d="M184,820H116.6V922.42c0,145.54,114.48,264.34,258.3,271.27v-73.24A197.53,197.53,0,0,1,184,923Z"/><path class="cls-5" d="M49,919c0,184.87,144,336.12,325.9,347.75V1193.7C231,1186.87,116.35,1068,116.35,922.42V820H49Z"/><path class="cls-6" d="M374.9,1120.41v-73.32A123.45,123.45,0,0,1,251.41,923.68V820H184V923A197.41,197.41,0,0,0,374.9,1120.41Z"/></g></g></g></svg>