<?xml version="1.0" encoding="utf-8"?>
<!-- Generator: Adobe Illustrator 25.4.1, SVG Export Plug-In . SVG Version: 6.00 Build 0)  -->
<svg version="1.1" id="Calque_1" xmlns="http://www.w3.org/2000/svg" xmlns:xlink="http://www.w3.org/1999/xlink" x="0px" y="0px"
	 viewBox="0 0 375 1774.5" style="enable-background:new 0 0 375 1774.5;" xml:space="preserve">
<style type="text/css">
	.st0{opacity:0.5;fill:#EEDEC9;enable-background:new    ;}
	.st1{fill:#CFC2B0;}
	.st2{fill:#DFD0BD;}
	.st3{fill:#B5AA9B;}
</style>
<rect y="0" class="st0" width="375" height="1774.5"/>
<g id="Calque_2_00000169540736395584012200000001265364156008837525_">
	<g id="Calque_3">
		<path class="st1" d="M375,177.5c-6.4-1.9-9.6-2.6-15.9-3.9c-115.3-21.1-228,35-343.2,11.9c-6.4-1.5-9.6-2.3-15.9-4.3v41
			c6.2,1.9,9.3,2.7,15.4,4.2c115.6,23.4,228.5-33.1,344.1-11.7c6.2,1.4,9.3,2.1,15.4,3.8L375,177.5L375,177.5z"/>
		<path class="st2" d="M375,136.4c-7.5-2.1-11.2-3-18.7-4.6C242.7,112.2,132.1,166.4,18.7,145c-7.5-1.7-11.2-2.6-18.7-4.9v41
			c6.4,2,9.6,2.8,15.9,4.3c115.3,23.1,227.9-33.1,343.2-11.9c6.4,1.4,9.6,2.2,15.9,3.9V136.4z"/>
		<path class="st3" d="M375,218.5c-6.2-1.8-9.3-2.5-15.4-3.8C243.9,193.2,131,249.8,15.4,226.4c-6.2-1.5-9.3-2.3-15.4-4.2v41
			c6,1.9,9,2.6,14.9,4.1c116,23.7,229.3-33.2,345.1-11.5c6,1.4,9,2.1,14.9,3.7L375,218.5L375,218.5z"/>
	</g>
</g>
</svg>
