<?xml version="1.0" encoding="utf-8"?>
<!-- Generator: Adobe Illustrator 25.4.1, SVG Export Plug-In . SVG Version: 6.00 Build 0)  -->
<svg version="1.1" id="Calque_1" xmlns="http://www.w3.org/2000/svg" xmlns:xlink="http://www.w3.org/1999/xlink" x="0px" y="0px"
	 viewBox="0 0 375 1774.5" style="enable-background:new 0 0 375 1774.5;" xml:space="preserve">
<style type="text/css">
	.st0{opacity:0.5;fill:#EEDEC9;enable-background:new    ;}
	.st1{fill:#CFC2B0;}
	.st2{fill:#DFD0BD;}
	.st3{fill:#B5AA9B;}
</style>
<rect x="-0.7" y="0" class="st0" width="375" height="1774.5"/>
<g id="Calque_2_00000169540736395584012200000001265364156008837525_">
	<g id="Calque_3">
		<path class="st1" d="M375.2,175.5c-6.4-1.8-9.6-2.5-15.9-3.8c-115.4-20.3-228.2,33.7-343.6,11.5c-6.4-1.4-9.6-2.2-15.9-4.1v39.5
			c6.2,1.8,9.3,2.6,15.4,4c115.7,22.5,228.7-31.9,344.5-11.3c6.2,1.3,9.3,2,15.4,3.7V175.5z"/>
		<path class="st2" d="M375.2,135.9c-7.5-2-11.2-2.9-18.7-4.4c-113.7-18.8-224.5,33.3-338,12.7c-7.5-1.6-11.2-2.5-18.7-4.7V179
			c6.4,1.9,9.6,2.7,15.9,4.1c115.4,22.2,228.1-31.9,343.6-11.5c6.4,1.3,9.6,2.1,15.9,3.8L375.2,135.9z"/>
		
			<image style="overflow:visible;opacity:0.14;enable-background:new    ;" width="1615" height="312" xlink:href="DB8C4A0D9E2400EF.png"  transform="matrix(0.2401 0 0 0.2401 -4.3369 201.5658)">
		</image>
		<path class="st3" d="M375.2,215c-6.2-1.7-9.3-2.4-15.4-3.7C244,190.6,130.9,245.1,15.2,222.6c-6.2-1.4-9.3-2.2-15.4-4v39.5
			c6,1.8,9,2.5,14.9,3.9c116.1,22.8,229.5-32,345.5-11.1c6,1.3,9,2,14.9,3.6V215z"/>
	</g>
</g>
</svg>
