<?xml version="1.0" encoding="utf-8"?>
<!-- Generator: Adobe Illustrator 25.4.1, SVG Export Plug-In . SVG Version: 6.00 Build 0)  -->
<svg version="1.1" id="Calque_1" xmlns="http://www.w3.org/2000/svg" xmlns:xlink="http://www.w3.org/1999/xlink" x="0px" y="0px"
	 viewBox="0 0 375 1774.5" style="enable-background:new 0 0 375 1774.5;" xml:space="preserve">
<style type="text/css">
	.st0{fill:#EEDEC9;}
	.st1{opacity:0.87;}
	.st2{fill:#895432;}
	.st3{fill:#3F2C20;}
</style>
<polyline class="st0" points="375.3,1774.5 -0.3,1774.5 -0.3,0 375.3,0 "/>
<g class="st1">
	
		<image style="overflow:visible;opacity:0.1;" width="357" height="478" xlink:href="FB25B0F733E740D.png"  transform="matrix(1 0 0 1 36.72 805.055)">
	</image>
	<g>
		<g>
			<path class="st2" d="M185.4,817.5H118V920c0,145.5,114.5,264.3,258.3,271.3V1118c-106.5-3.6-190.9-90.9-190.9-197.4V817.5z"/>
			<path class="st3" d="M50.4,916.6c0,184.9,144,336.1,325.9,347.7v-73.1c-143.9-6.8-258.5-125.7-258.5-271.3V817.5H50.4V916.6z"/>
			<path class="st0" d="M376.3,1118v-73.3c-68.2,0-123.5-55.2-123.5-123.4c0,0,0,0,0,0V817.5h-67.4v103.1
				C185.4,1027.1,269.8,1114.5,376.3,1118L376.3,1118z"/>
		</g>
	</g>
</g>
</svg>
