<?xml version="1.0" encoding="utf-8"?>
<!-- Generator: Adobe Illustrator 25.4.1, SVG Export Plug-In . SVG Version: 6.00 Build 0)  -->
<svg version="1.1" id="Calque_1" xmlns="http://www.w3.org/2000/svg" xmlns:xlink="http://www.w3.org/1999/xlink" x="0px" y="0px"
	 viewBox="0 0 375 1774.5" style="enable-background:new 0 0 375 1774.5;" xml:space="preserve">
<style type="text/css">
	.st0{fill:#F7C346;}
	.st1{opacity:0.87;}
	.st2{fill:none;}
	.st3{fill:#89371A;}
	.st4{fill:#60260B;}
	.st5{fill:#BA4927;}
</style>
<rect x="0.2" class="st0" width="374.7" height="1774.5"/>
<g class="st1">
	<path class="st2" d="M184.2,816.8L184.2,816.8v102.9c-0.1,41,12.6,80.9,36.4,114.3c-23.7-33.4-36.5-73.3-36.4-114.2L184.2,816.8z"
		/>
	<path class="st3" d="M184.2,816.8h-67.3v102.4c0,145.4,114.4,264.1,258.1,271v-73.2c-106.4-3.6-190.8-90.9-190.7-197.3V816.8z"/>
	<path class="st4" d="M49.3,915.8c0,184.7,143.9,335.8,325.6,347.4v-73c-143.8-6.8-258.3-125.6-258.3-271V816.8H49.3V915.8z"/>
	<path class="st5" d="M374.9,1117v-73.3c-68.1,0-123.4-55.2-123.4-123.3c0,0,0,0,0,0V816.8h-67.3v103
		C184.2,1026.2,268.6,1113.5,374.9,1117z"/>
</g>
</svg>
