<svg xmlns="http://www.w3.org/2000/svg" viewBox="0 0 195.83 159.08"><defs><style>.cls-1{fill:#6d4860;}.cls-2{fill:#fff;}.cls-3{fill:none;}.cls-4{fill:#efe4da;}</style></defs><g id="Calque_2" data-name="Calque 2"><g id="Calque_3" data-name="Calque 3"><path class="cls-1" d="M48.59,106l.06-.5c1,.11,6.26,3.08,6.57,4.83l-.49.09c-.12-.66-1.29-1.66-2.59-2.55a2.35,2.35,0,0,0-.71,1.29l-.49-.14a2.82,2.82,0,0,1,.77-1.43A12.17,12.17,0,0,0,48.59,106Z"/><path class="cls-1" d="M72.56,80.94c4.6-14.82,11-17.1,15.52-16.42,3.72.57,6.68,3.14,8.11,4.62,2.22,2.3,3.39,4.62,3.39,5.72h.5c0-2.55-5.29-9.83-11.92-10.84-4.73-.72-11.37,1.61-16.08,16.77Z"/><path class="cls-1" d="M130.46,92.21C133,81.14,124.57,75,122.1,74.38c-3.24-.85-7.3,5.24-7.9,7l.48.16c.54-1.64,4.38-7.46,7.29-6.7,2.38.62,10.41,6.51,8,17.23Z"/><path class="cls-1" d="M88.1,135.44c-2.35-1.5,0-20.31.36-22.1.06-.28.1-.49.3-.52l.19,0L89,113c4.09,7.06,15.13,8.64,17.92,8.92.21,0,.42,0,.64,0h0a.27.27,0,0,1,.28.23l0,.2-.19.07h-.17l-.14,0h-.15c-4.81-.31-8.65,4.4-11.76,8.22-2.25,2.75-4.25,5.2-6.14,5.2A2.26,2.26,0,0,1,88.1,135.44Zm.79-21.75c-.63,3.24-2.31,20.18-.52,21.32s4.12-1.54,6.72-4.72,5.88-7.21,9.83-8.19C100.64,121.41,92.56,119.36,88.89,113.69Z"/><path class="cls-1" d="M105.11,118.33a5,5,0,0,0,1.77-.33c.83-.33,3.48-1.72,2.29-5.83-.72-2.48-2.52-3.66-4.82-3.18-1.74.37-3.19,1.62-3.06,2.63l.5-.06c-.09-.67,1.12-1.75,2.66-2.08,1-.2,3.32-.33,4.23,2.83,1,3.6-1,4.85-2,5.22-1.53.6-3.37.26-3.86-.72l-.45.23A3,3,0,0,0,105.11,118.33Z"/><path class="cls-1" d="M105.29,109.38l.17-.48c-.36-.12-.77-1-.83-1.84l-.51,0C104.19,107.9,104.6,109.13,105.29,109.38Z"/><path class="cls-2" d="M80.19,85.94c2.35-3,6.2-2.85,3.07,1.92C78.69,94.84,77.59,89.29,80.19,85.94Z"/><path class="cls-2" d="M79.65,91.47a1.11,1.11,0,0,1-.9-.71c-.45-1-.11-3.23,1.24-5s3.24-2.57,4.21-1.89c.4.29,1.14,1.27-.73,4.11-1.48,2.27-2.77,3.47-3.73,3.47Zm.73-5.38h0c-1.19,1.55-1.57,3.56-1.17,4.47.12.25.27.39.49.4s1.38-.23,3.35-3.23c1.33-2,1.31-3.1.85-3.43a.91.91,0,0,0-.52-.14A4.48,4.48,0,0,0,80.38,86.09Z"/><path class="cls-2" d="M113.73,97.12c1.88-3.36,5.71-3.74,3.33,1.45C113.59,106.15,111.67,100.82,113.73,97.12Z"/><path class="cls-2" d="M113,102.11c-.61-1-.6-3.19.47-5.11h0c1-1.89,2.83-3,3.88-2.5.45.22,1.32,1.08-.1,4.17-1.17,2.55-2.29,3.93-3.26,4H114A1.09,1.09,0,0,1,113,102.11Zm.91-4.87h0c-1,1.71-1,3.76-.49,4.6a.59.59,0,0,0,.54.32c.35,0,1.33-.43,2.83-3.7,1-2.2.84-3.26.34-3.51a.86.86,0,0,0-.36-.08C116,94.87,114.79,95.75,114,97.24Z"/><circle class="cls-2" cx="69.81" cy="44.47" r="1.29"/><path class="cls-2" d="M68.27,44.47A1.54,1.54,0,1,1,69.81,46,1.54,1.54,0,0,1,68.27,44.47Zm.5,0a1,1,0,1,0,1-1A1,1,0,0,0,68.77,44.47Z"/><path class="cls-2" d="M65.12,46.5C67,44.57,49.59,59.29,49.59,65.93A121.36,121.36,0,0,1,65.12,46.5Z"/><path class="cls-2" d="M49.34,65.93c0-3.32,4.21-8.5,7.74-12.26a71.36,71.36,0,0,1,8.11-7.58l.19-.05.1.16c.11.19,0,.33-.18.48A121.4,121.4,0,0,0,49.81,66.06l-.47.77ZM50,64.85A126.11,126.11,0,0,1,61.54,49.94C57.31,54,51,60.6,50,64.85Z"/><path class="cls-1" d="M79.52,101.87c1.4,1.57,3.59,2.25,7.34,2.25h0c2.18,0,5.18-2.21,6.49-8.42.16-.79.82-8.66-.45-14a14,14,0,0,0,1.61-1.73,4,4,0,0,1-1.82.89,11.1,11.1,0,0,0-.6-1.6,14.67,14.67,0,0,0,1.81-2.55s-1.37,1.38-2.61,1.21A3.47,3.47,0,0,0,90.18,77a9.87,9.87,0,0,0-.33-3.23,3.62,3.62,0,0,1-1.92,2.68,8.09,8.09,0,0,0-.83-.09h-.32a9.84,9.84,0,0,0-1.09-2.18,3,3,0,0,1-.23,2.29,7.06,7.06,0,0,0-2.75,1.07c-3.82,2.55-4.57,8.2-4.65,8.83C77,95.19,77.45,99.54,79.52,101.87Zm-.81-16.39c.34-1.79,1.38-5.63,4.27-7.56a6.7,6.7,0,0,1,3.8-1.11,10.07,10.07,0,0,1,2.76.42c4.78,1.36,3.54,17.29,3.31,18.36-1.24,5.92-4,8-6,8h-.07a5.4,5.4,0,0,0,1.64-4V99.5l-2.58-3,3.29.64.09-.17c2.84-5.75,1.47-9.82.41-11.73-1.18-2.11-2.91-3.32-4-3.42C83.49,81.57,80.29,83.78,78.71,85.48Z"/><path class="cls-3" d="M118.51,87.27a3.85,3.85,0,0,1,1.75-.44,4.09,4.09,0,0,1,1.64.36c1.48.62,2.65,5.25,2.79,11,.22,9.12-2,13.46-4,14.41a11,11,0,0,1-3.47,1.07,5.33,5.33,0,0,0,2.1-4v-.06l-1.71-3,2.73,1.14.12-.17a15.16,15.16,0,0,0,.65-14.08c-.8-1.43-1.82-2.19-2.94-2.16-1.82,0-3.67,2.28-4.79,3.82C114.21,92.67,115.88,88.63,118.51,87.27Z"/><path class="cls-1" d="M113.64,113.24a4.73,4.73,0,0,0,3,1,10.08,10.08,0,0,0,4.31-1.15c3.36-1.62,4.39-9,4.25-14.87a38,38,0,0,0-.7-6.52,4.85,4.85,0,0,0,.92-.32,1.54,1.54,0,0,1-1-.21c0-.12-.05-.26-.08-.38a11.09,11.09,0,0,0,1.61-1.68,3.13,3.13,0,0,1-1.91.63,11.61,11.61,0,0,0-.43-1.15,10.31,10.31,0,0,0,1.75-2.78,3.48,3.48,0,0,1-3.44.86s0,0,0,0a4.3,4.3,0,0,0-3.58.17c-4.06,2.11-5.91,10.12-5.93,10.2C110.47,105.62,110.9,111.07,113.64,113.24Zm-.23-18.1c.8-2.47,2.47-6.51,5.1-7.87a3.85,3.85,0,0,1,1.75-.44,4.09,4.09,0,0,1,1.64.36c1.48.62,2.65,5.25,2.79,11,.22,9.12-2,13.46-4,14.41a11,11,0,0,1-3.47,1.07,5.33,5.33,0,0,0,2.1-4v-.06l-1.71-3,2.73,1.14.12-.17a15.16,15.16,0,0,0,.65-14.08c-.8-1.43-1.82-2.19-2.94-2.16C116.38,91.36,114.53,93.6,113.41,95.14Z"/><path class="cls-2" d="M66,46.28c1.88-1.91-15.4,12.68-15.4,19.27A120.34,120.34,0,0,1,66,46.28Z"/><path class="cls-2" d="M50.39,65.55c0-3.3,4.18-8.43,7.68-12.16a70.76,70.76,0,0,1,8-7.52l.19,0,.1.16c.11.18,0,.33-.18.48A121.52,121.52,0,0,0,50.85,65.68l-.46.76ZM51,64.48A124.79,124.79,0,0,1,62.49,49.69C58.3,53.66,52,60.26,51,64.48Z"/><path class="cls-4" d="M114.35,95.85c2.48-3.67,7-3.83,3.8,1.87C113.45,106,111.63,99.88,114.35,95.85Z"/><path class="cls-4" d="M80.68,85.93c2.36-3,6.21-2.84,3.08,1.93C79.19,94.84,78.09,89.29,80.68,85.93Z"/><path class="cls-4" d="M80.15,91.46a1.08,1.08,0,0,1-.9-.7c-.46-1-.11-3.23,1.23-5s3.25-2.57,4.21-1.89c.41.29,1.14,1.26-.72,4.11-1.49,2.27-2.77,3.47-3.73,3.47Zm.73-5.37h0c-1.19,1.55-1.57,3.56-1.17,4.47a.58.58,0,0,0,.48.4c.35,0,1.39-.23,3.36-3.23,1.33-2,1.31-3.1.85-3.43a1,1,0,0,0-.52-.14A4.48,4.48,0,0,0,80.88,86.09Z"/><path class="cls-3" d="M111.43,159.08c2.72-1.46,13.53-7.64,26.74-20.2,14-13.37,33.74-36.92,47.82-73.16a89.17,89.17,0,0,1,4.19-9,69.34,69.34,0,0,0,3.76-8.17"/><path class="cls-3" d="M99.1,138.84c.14-.35.26-.68.34-1,8.69-1.23,20.08-4.67,24.68-12.8h0c5-4.25,5.7-7.72,5.37-9.89a5.73,5.73,0,0,0-2.11-3.7,38.48,38.48,0,0,0,2.71-5.72c1.82-4.75,4-12.78,4-24.06.31-.75,5-11.81,20.76-33.39a35,35,0,0,0,1.46,6.23c1.27,3,6.93,7.75,8.42,8.82L165,63c-1.89-1.35-7.11-5.89-8.24-8.61a38.93,38.93,0,0,1-1.5-6.58h0l0,0-.22-.15c-.09-.06-8.8-6.09-10-15.92-1.34-10.65,1.53-12,3.62-13.06a7.14,7.14,0,0,0,1.07-.59c.37-.17,2.09.24,4.19,1.66a14.61,14.61,0,0,1,6.56,12.91c-.16,3.74-1.5,5.94-3.77,6.17-3,.32-6.92-3-7.87-6.66l-.49.13c1,3.78,4.74,7.06,7.95,7.06a3.71,3.71,0,0,0,.47,0c1.21-.12,3.12-.87,3.89-4.15h.89l0,0a5.58,5.58,0,0,0,.48,5.93c1.59,2.33,4.37,3.77,6.15,3.77h.21c0,.15-.08.29-.1.44A7.53,7.53,0,0,0,170,51.64a6.19,6.19,0,0,0,4.57,1.8,8.62,8.62,0,0,0,.87,0c.77.76,3,1,4.09,1a3.27,3.27,0,0,0,.52,0l-.06-.5a9.25,9.25,0,0,1-3.82-.55A13.7,13.7,0,0,0,182.05,51a6,6,0,0,1,2-1l-.1-.49a6.26,6.26,0,0,0-2.14,1.06,13,13,0,0,1-6.25,2.34,6,6,0,0,1-5.14-1.59,7.05,7.05,0,0,1-1.64-5.94c.42-3.14,3.95-5.45,6-6.55a21.4,21.4,0,0,1,8.1-2.54v-.5c-3.69.05-13,3.6-14.45,8.84l0-.25c-1.57.16-4.42-1.26-6-3.55a5.09,5.09,0,0,1-.45-5.41C166.31,27,173,22.64,182,22.56h.43v-.5H182c-8.94.09-15.71,4.32-20.16,12.56h-1.05a15.3,15.3,0,0,0,.22-2,14.65,14.65,0,0,0-2.84-9.53A26.8,26.8,0,0,1,176.2,12.4l.22,0-.08-.5-.2,0a27.31,27.31,0,0,0-18.31,10.77,16.69,16.69,0,0,0-3.64-3.4,10.45,10.45,0,0,0-4-1.76,1.64,1.64,0,0,0,.24-.41A33.63,33.63,0,0,1,157.3,6.8c5.21-5.28,11.13-7.25,17.58-5.86,8.21,1.78,16,13.27,18,20.73,5,18.94,1.43,26-3.15,34.86-1.29,2.5-2.62,5.11-3.85,8.14a3.62,3.62,0,0,1-2.14.57l-.21.46a1,1,0,0,0,.45.08,4.43,4.43,0,0,0,1.61-.4l-.07.16c-14,36.14-33.68,59.62-47.68,73-14.58,13.87-26.46,20.06-27.47,20.58H107.8C108,143.7,100.48,139.49,99.1,138.84Z"/><path class="cls-3" d="M127.13,111.93a5.26,5.26,0,0,1,1.87,3.35c.29,1.9-.26,4.89-4.27,8.6.15-.33.31-.65.44-1,1.41-3.76,1-8.67,1-9.46C126.27,113.24,126.64,112.74,127.13,111.93Z"/><path class="cls-3" d="M120,58.14c3.3.76,13.56,17.48,13.56,23.53h0a67,67,0,0,1-4,23.9,30.94,30.94,0,0,1-4,7.63l-.06.08v.1c0,.05.54,5.43-.92,9.33-5.44,14.52-31.43,15.85-35.59,15.11-4.69-.82-16.75-7.08-19.4-9.21v0l-.15-.09c-2.28-1.37-6.47-6.61-6.51-6.66L63,121.7l-.17.06-.25.09c-6.32,2.38-11.37-.14-14.49-2.68-5.3-4.3-8.12-8.62-8.38-12.83-.3-5,3-8.47,4.45-10l.31-.32c7.5-2.72,12.76,5.24,14.75,8.24.72,1.1.89,1.36,1.19,1.23s.25-.38-.08-1.77C58.67,97.15,62,88,62,87.91l.11-.31-.32,0c-.23,0-.62,0-1.1,0-1.11,0-3.17.13-3.64-.4a.33.33,0,0,1-.08-.32c2.86-16.61,11.38-25,18-29.17,9.29-5.78,19-6,23.23-4.78,5.67,1.67,13.8,11.52,13.88,11.62l.18.22.2-.21c6.06-6.32,7.48-6.41,7.55-6.41Z"/><path class="cls-3" d="M34,114.28c-.36,2.94-2.1,5.84-5.16,8.66l-.52.14c-1.77.49-4.74,1.3-7-.08a6.59,6.59,0,0,1-2.71-4.48,12.25,12.25,0,0,0,1.13-2.64c6.22-.62,7.47-3.18,7.63-5.55a1.65,1.65,0,0,0,.47.08,11.18,11.18,0,0,0,4.89-1.86A8.57,8.57,0,0,1,34,114.28Z"/><path class="cls-1" d="M71.89,133.1l-.37.34A17,17,0,0,0,69,131.26a.39.39,0,0,0,.14,0l.09-.07,0-.14,0-.15A16.87,16.87,0,0,1,71.89,133.1Z"/><path class="cls-1" d="M.36,84.37l-.19.15v-.47l.19-.15Z"/><path class="cls-1" d="M.17,84.05v.47L0,84.67v-.48Z"/><path class="cls-3" d="M120,58.14c3.3.76,13.56,17.48,13.56,23.53h0a67,67,0,0,1-4,23.9,30.94,30.94,0,0,1-4,7.63l-.06.08v.1c0,.05.54,5.43-.92,9.33-5.44,14.52-31.43,15.85-35.59,15.11-4.69-.82-16.75-7.08-19.4-9.21v0l-.15-.09c-2.28-1.37-6.47-6.61-6.51-6.66L63,121.7l-.17.06-.25.09c-6.32,2.38-11.37-.14-14.49-2.68-5.3-4.3-8.12-8.62-8.38-12.83-.3-5,3-8.47,4.45-10l.31-.32c7.5-2.72,12.76,5.24,14.75,8.24.72,1.1.89,1.36,1.19,1.23s.25-.38-.08-1.77C58.67,97.15,62,88,62,87.91l.11-.31-.32,0c-.23,0-.62,0-1.1,0-1.11,0-3.17.13-3.64-.4a.33.33,0,0,1-.08-.32c2.86-16.61,11.38-25,18-29.17,9.29-5.78,19-6,23.23-4.78,5.67,1.67,13.8,11.52,13.88,11.62l.18.22.2-.21c6.06-6.32,7.48-6.41,7.55-6.41Z"/><path class="cls-3" d="M127.13,111.93a5.26,5.26,0,0,1,1.87,3.35c.29,1.9-.26,4.89-4.27,8.6.15-.33.31-.65.44-1,1.41-3.76,1-8.67,1-9.46C126.27,113.24,126.64,112.74,127.13,111.93Z"/><path class="cls-3" d="M21.36,123a6.59,6.59,0,0,1-2.71-4.48,12.25,12.25,0,0,0,1.13-2.64c6.22-.62,7.47-3.18,7.63-5.55a1.65,1.65,0,0,0,.47.08,11.18,11.18,0,0,0,4.89-1.86A8.57,8.57,0,0,1,34,114.28c-.36,2.94-2.1,5.84-5.16,8.66l-.52.14C26.59,123.57,23.62,124.38,21.36,123Z"/><path class="cls-3" d="M111.43,159.08c2.72-1.46,13.53-7.64,26.74-20.2,14-13.37,33.74-36.92,47.82-73.16a89.17,89.17,0,0,1,4.19-9,69.34,69.34,0,0,0,3.76-8.17"/><path class="cls-3" d="M69.27,131.15l0-.14,0-.15a16.87,16.87,0,0,1,2.55,2.24l-.37.34A17,17,0,0,0,69,131.26a.39.39,0,0,0,.14,0Z"/><path class="cls-3" d="M99.1,138.84c.14-.35.26-.68.34-1,8.69-1.23,20.08-4.67,24.68-12.8h0c5-4.25,5.7-7.72,5.37-9.89a5.73,5.73,0,0,0-2.11-3.7,38.48,38.48,0,0,0,2.71-5.72c1.82-4.75,4-12.78,4-24.06.31-.75,5-11.81,20.76-33.39a35,35,0,0,0,1.46,6.23c1.27,3,6.93,7.75,8.42,8.82L165,63c-1.89-1.35-7.11-5.89-8.24-8.61a38.93,38.93,0,0,1-1.5-6.58h0l0,0-.22-.15c-.09-.06-8.8-6.09-10-15.92-1.34-10.65,1.53-12,3.62-13.06a7.14,7.14,0,0,0,1.07-.59c.37-.17,2.09.24,4.19,1.66a14.61,14.61,0,0,1,6.56,12.91c-.16,3.74-1.5,5.94-3.77,6.17-3,.32-6.92-3-7.87-6.66l-.49.13c1,3.78,4.74,7.06,7.95,7.06a3.71,3.71,0,0,0,.47,0c1.21-.12,3.12-.87,3.89-4.15h.89l0,0a5.58,5.58,0,0,0,.48,5.93c1.59,2.33,4.37,3.77,6.15,3.77h.21c0,.15-.08.29-.1.44A7.53,7.53,0,0,0,170,51.64a6.19,6.19,0,0,0,4.57,1.8,8.62,8.62,0,0,0,.87,0c.77.76,3,1,4.09,1a3.27,3.27,0,0,0,.52,0l-.06-.5a9.25,9.25,0,0,1-3.82-.55A13.7,13.7,0,0,0,182.05,51a6,6,0,0,1,2-1l-.1-.49a6.26,6.26,0,0,0-2.14,1.06,13,13,0,0,1-6.25,2.34,6,6,0,0,1-5.14-1.59,7.05,7.05,0,0,1-1.64-5.94c.42-3.14,3.95-5.45,6-6.55a21.4,21.4,0,0,1,8.1-2.54v-.5c-3.69.05-13,3.6-14.45,8.84l0-.25c-1.57.16-4.42-1.26-6-3.55a5.09,5.09,0,0,1-.45-5.41C166.31,27,173,22.64,182,22.56h.43v-.5H182c-8.94.09-15.71,4.32-20.16,12.56h-1.05a15.3,15.3,0,0,0,.22-2,14.65,14.65,0,0,0-2.84-9.53A26.8,26.8,0,0,1,176.2,12.4l.22,0-.08-.5-.2,0a27.31,27.31,0,0,0-18.31,10.77,16.69,16.69,0,0,0-3.64-3.4,10.45,10.45,0,0,0-4-1.76,1.64,1.64,0,0,0,.24-.41A33.63,33.63,0,0,1,157.3,6.8c5.21-5.28,11.13-7.25,17.58-5.86,8.21,1.78,16,13.27,18,20.73,5,18.94,1.43,26-3.15,34.86-1.29,2.5-2.62,5.11-3.85,8.14a3.62,3.62,0,0,1-2.14.57l-.21.46a1,1,0,0,0,.45.08,4.43,4.43,0,0,0,1.61-.4l-.07.16c-14,36.14-33.68,59.62-47.68,73-14.58,13.87-26.46,20.06-27.47,20.58H107.8C108,143.7,100.48,139.49,99.1,138.84Z"/><path class="cls-3" d="M53.55,48.59c-4.42,4.81-7.63,11-9.57,18.61-.65,1.15-18.79,2.93-25.52,1.65A.41.41,0,0,0,18,69c-.4.79,3.48,4.71,15.36,16.11,5,4.79,10.15,9.74,10.67,10.64l-.25.26c-1.47,1.53-4.91,5.12-4.59,10.33.27,4.36,3.15,8.8,8.57,13.2,3.22,2.61,8.43,5.21,15,2.75l.07,0c.69.86,4.2,5.14,6.39,6.55l-.33,1.94c-.23,0-.76-.13-1.26-.24-2.82-.61-9.4-2-15.27.77-4.12,1.95-9.35,2.22-14.9,2.5-4.67.24-9.51.48-14,1.76l-.92-6.49c.55-.5,3.3-2.93,4.7-4,4.46-3.44,7-7,7.39-10.73a9,9,0,0,0-1.44-6.2c.86-4,1.6-11.61-2.87-18-3.62-5.19-9.95-8.51-18.77-9.92.3,0,.59,0,.8,0l1,.61L7.89,73.24"/><path class="cls-3" d="M120,58.14c3.3.76,13.56,17.48,13.56,23.53h0a67,67,0,0,1-4,23.9,30.94,30.94,0,0,1-4,7.63l-.06.08v.1c0,.05.54,5.43-.92,9.33-5.44,14.52-31.43,15.85-35.59,15.11-4.69-.82-16.75-7.08-19.4-9.21v0l-.15-.09c-2.28-1.37-6.47-6.61-6.51-6.66L63,121.7l-.17.06-.25.09c-6.32,2.38-11.37-.14-14.49-2.68-5.3-4.3-8.12-8.62-8.38-12.83-.3-5,3-8.47,4.45-10l.31-.32c7.5-2.72,12.76,5.24,14.75,8.24.72,1.1.89,1.36,1.19,1.23s.25-.38-.08-1.77C58.67,97.15,62,88,62,87.91l.11-.31-.32,0c-.23,0-.62,0-1.1,0-1.11,0-3.17.13-3.64-.4a.33.33,0,0,1-.08-.32c2.86-16.61,11.38-25,18-29.17,9.29-5.78,19-6,23.23-4.78,5.67,1.67,13.8,11.52,13.88,11.62l.18.22.2-.21c6.06-6.32,7.48-6.41,7.55-6.41Z"/><path class="cls-3" d="M21.36,123a6.59,6.59,0,0,1-2.71-4.48,12.25,12.25,0,0,0,1.13-2.64c6.22-.62,7.47-3.18,7.63-5.55a1.65,1.65,0,0,0,.47.08,11.18,11.18,0,0,0,4.89-1.86A8.57,8.57,0,0,1,34,114.28c-.36,2.94-2.1,5.84-5.16,8.66l-.52.14C26.59,123.57,23.62,124.38,21.36,123Z"/><path class="cls-3" d="M127.13,111.93a5.26,5.26,0,0,1,1.87,3.35c.29,1.9-.26,4.89-4.27,8.6.15-.33.31-.65.44-1,1.41-3.76,1-8.67,1-9.46C126.27,113.24,126.64,112.74,127.13,111.93Z"/><path class="cls-3" d="M99.1,138.84c.14-.35.26-.68.34-1,8.69-1.23,20.08-4.67,24.68-12.8h0c5-4.25,5.7-7.72,5.37-9.89a5.73,5.73,0,0,0-2.11-3.7,38.48,38.48,0,0,0,2.71-5.72c1.82-4.75,4-12.78,4-24.06.31-.75,5-11.81,20.76-33.39a35,35,0,0,0,1.46,6.23c1.27,3,6.93,7.75,8.42,8.82L165,63c-1.89-1.35-7.11-5.89-8.24-8.61a38.93,38.93,0,0,1-1.5-6.58h0l0,0-.22-.15c-.09-.06-8.8-6.09-10-15.92-1.34-10.65,1.53-12,3.62-13.06a7.14,7.14,0,0,0,1.07-.59c.37-.17,2.09.24,4.19,1.66a14.61,14.61,0,0,1,6.56,12.91c-.16,3.74-1.5,5.94-3.77,6.17-3,.32-6.92-3-7.87-6.66l-.49.13c1,3.78,4.74,7.06,7.95,7.06a3.71,3.71,0,0,0,.47,0c1.21-.12,3.12-.87,3.89-4.15h.89l0,0a5.58,5.58,0,0,0,.48,5.93c1.59,2.33,4.37,3.77,6.15,3.77h.21c0,.15-.08.29-.1.44A7.53,7.53,0,0,0,170,51.64a6.19,6.19,0,0,0,4.57,1.8,8.62,8.62,0,0,0,.87,0c.77.76,3,1,4.09,1a3.27,3.27,0,0,0,.52,0l-.06-.5a9.25,9.25,0,0,1-3.82-.55A13.7,13.7,0,0,0,182.05,51a6,6,0,0,1,2-1l-.1-.49a6.26,6.26,0,0,0-2.14,1.06,13,13,0,0,1-6.25,2.34,6,6,0,0,1-5.14-1.59,7.05,7.05,0,0,1-1.64-5.94c.42-3.14,3.95-5.45,6-6.55a21.4,21.4,0,0,1,8.1-2.54v-.5c-3.69.05-13,3.6-14.45,8.84l0-.25c-1.57.16-4.42-1.26-6-3.55a5.09,5.09,0,0,1-.45-5.41C166.31,27,173,22.64,182,22.56h.43v-.5H182c-8.94.09-15.71,4.32-20.16,12.56h-1.05a15.3,15.3,0,0,0,.22-2,14.65,14.65,0,0,0-2.84-9.53A26.8,26.8,0,0,1,176.2,12.4l.22,0-.08-.5-.2,0a27.31,27.31,0,0,0-18.31,10.77,16.69,16.69,0,0,0-3.64-3.4,10.45,10.45,0,0,0-4-1.76,1.64,1.64,0,0,0,.24-.41A33.63,33.63,0,0,1,157.3,6.8c5.21-5.28,11.13-7.25,17.58-5.86,8.21,1.78,16,13.27,18,20.73,5,18.94,1.43,26-3.15,34.86-1.29,2.5-2.62,5.11-3.85,8.14a3.62,3.62,0,0,1-2.14.57l-.21.46a1,1,0,0,0,.45.08,4.43,4.43,0,0,0,1.61-.4l-.07.16c-14,36.14-33.68,59.62-47.68,73-14.58,13.87-26.46,20.06-27.47,20.58H107.8C108,143.7,100.48,139.49,99.1,138.84Z"/><path class="cls-3" d="M111.43,159.08c2.72-1.46,13.53-7.64,26.74-20.2,14-13.37,33.74-36.92,47.82-73.16a89.17,89.17,0,0,1,4.19-9,69.34,69.34,0,0,0,3.76-8.17"/><path class="cls-1" d="M6.69,80.83h0Z"/><path class="cls-1" d="M2.55,82.43a18.06,18.06,0,0,1,4.12-1.6h0a15.29,15.29,0,0,1,2.46-.41c.5,0,.91,0,1.14.08s.54.1.82.15l-.85.06a16.41,16.41,0,0,0-7.54,2A19.25,19.25,0,0,0,0,84.67v-.48A20.75,20.75,0,0,1,2.55,82.43Z"/><path class="cls-1" d="M10.24,80.35a6.33,6.33,0,0,0,1.21-.13l.11.35a2.79,2.79,0,0,1-.45.08c-.28-.05-.54-.11-.82-.15s-.64-.06-1.14-.08l.49,0Z"/><line class="cls-1" x1="54.41" y1="48.96" x2="54.41" y2="47.78"/><path class="cls-3" d="M126.13,113.43c.07.79.45,5.7-1,9.46-.13.34-.29.66-.44,1,4-3.71,4.56-6.7,4.27-8.6a5.26,5.26,0,0,0-1.87-3.35C126.64,112.74,126.27,113.24,126.13,113.43Z"/><path class="cls-3" d="M28.88,122.94c3.06-2.82,4.8-5.72,5.16-8.66a8.57,8.57,0,0,0-1.27-5.73,11.18,11.18,0,0,1-4.89,1.86,1.65,1.65,0,0,1-.47-.08c-.16,2.37-1.41,4.93-7.63,5.55a12.25,12.25,0,0,1-1.13,2.64A6.59,6.59,0,0,0,21.36,123c2.26,1.38,5.23.57,7,.08Z"/><path class="cls-3" d="M124.7,122.71c1.46-3.9.92-9.28.92-9.33v-.1l.06-.08a30.94,30.94,0,0,0,4-7.63,67,67,0,0,0,4-23.9h0c0-6-10.26-22.77-13.56-23.53h0c-.07,0-1.49.09-7.55,6.41l-.2.21-.18-.22c-.08-.1-8.21-10-13.88-11.62C94,51.68,84.29,51.92,75,57.7c-6.64,4.14-15.16,12.56-18,29.17a.33.33,0,0,0,.08.32c.47.53,2.53.44,3.64.4.48,0,.87,0,1.1,0l.32,0-.11.31c0,.09-3.34,9.24-1.73,15.86.33,1.39.35,1.66.08,1.77s-.47-.13-1.19-1.23c-2-3-7.25-11-14.75-8.24l-.31.32c-1.42,1.48-4.75,5-4.45,10,.26,4.21,3.08,8.53,8.38,12.83,3.12,2.54,8.17,5.06,14.49,2.68l.25-.09.17-.06.11.14s4.23,5.29,6.51,6.66l.15.09v0c2.65,2.13,14.71,8.39,19.4,9.21C93.27,138.56,119.26,137.23,124.7,122.71Z"/><path class="cls-1" d="M112.16,158.11l-.73,1,.4-.22.73-1Z"/><path class="cls-1" d="M185.88,64.67a3.62,3.62,0,0,1-2.14.57l-.21.46a1,1,0,0,0,.45.08,4.43,4.43,0,0,0,1.61-.4l-.07.16c-14,36.14-33.68,59.62-47.68,73a137.41,137.41,0,0,1-25.28,19.37l-.73,1c3.24-1.77,13.68-7.93,26.34-20,14-13.37,33.74-36.92,47.82-73.16a89.17,89.17,0,0,1,4.19-9,69.34,69.34,0,0,0,3.76-8.17l-1.12,1.51c-.9,2.17-2,4.24-3.09,6.43C188.44,59,187.11,61.64,185.88,64.67Z"/><path class="cls-1" d="M193.94,48.59l-1.12,1.51c.05-.14.11-.27.16-.41Z"/><line class="cls-1" x1="154.05" y1="48.59" x2="154.31" y2="48.23"/><path class="cls-3" d="M112.56,157.87a137.41,137.41,0,0,0,25.28-19.37c14-13.34,33.64-36.82,47.68-73l.07-.16a4.43,4.43,0,0,1-1.61.4,1,1,0,0,1-.45-.08l.21-.46a3.62,3.62,0,0,0,2.14-.57c1.23-3,2.56-5.64,3.85-8.14,1.12-2.19,2.19-4.26,3.09-6.43L184.9,60.7l.7.32-55.89,82.4"/><path class="cls-1" d="M112.16,158.11l.4-.24"/><path class="cls-3" d="M65.55,130.65l1.36.26Z"/><path class="cls-3" d="M63.93,130.39c.58.08,1.13.17,1.62.26C65.06,130.56,64.51,130.47,63.93,130.39Z"/><path class="cls-3" d="M70.3,129.65c.51.34,1.14.73,1.86,1.15C71.44,130.38,70.81,130,70.3,129.65Z"/><path class="cls-3" d="M72.16,130.8c.72.43,1.53.88,2.4,1.35C73.69,131.68,72.88,131.23,72.16,130.8Z"/><path class="cls-3" d="M60.08,130.14c.69,0,1.37,0,2,.06C61.45,130.16,60.77,130.14,60.08,130.14Z"/><path class="cls-3" d="M107.3,159.08a35.39,35.39,0,0,0-.93-8.84,35.39,35.39,0,0,1,.93,8.84Z"/><path class="cls-3" d="M21.23,83.52c.82.38,1.6.79,2.34,1.22C22.83,84.31,22.05,83.9,21.23,83.52Z"/><path class="cls-3" d="M97.93,140.17c-.25.48-.51.93-.77,1.35C97.42,141.1,97.68,140.65,97.93,140.17Z"/><path class="cls-3" d="M96.91,142.71a9.74,9.74,0,0,0,.91-1.3A9.74,9.74,0,0,1,96.91,142.71Z"/><path class="cls-3" d="M98.89,138l-2.06.24,2.06-.24Z"/><path class="cls-3" d="M83.09,136.3c.94.4,1.85.76,2.69,1.07C84.94,137.06,84,136.7,83.09,136.3Z"/><path class="cls-3" d="M74.56,132.15c.86.47,1.79,1,2.74,1.44C76.35,133.11,75.42,132.62,74.56,132.15Z"/><path class="cls-3" d="M13.94,121a3.5,3.5,0,0,0,.84.1A3.5,3.5,0,0,1,13.94,121Z"/><path class="cls-3" d="M77.3,133.59c1,.48,1.93,1,2.91,1.42C79.23,134.55,78.25,134.07,77.3,133.59Z"/><path class="cls-3" d="M24.77,102.3A15.63,15.63,0,0,1,26,104.63,15.63,15.63,0,0,0,24.77,102.3Z"/><path class="cls-3" d="M26.42,105.85a12.17,12.17,0,0,1,.49,2.53A12.17,12.17,0,0,0,26.42,105.85Z"/><path class="cls-3" d="M21.3,98.1a23.68,23.68,0,0,1,1.88,2A23.68,23.68,0,0,0,21.3,98.1Z"/><path class="cls-3" d="M33.21,103.47a27.12,27.12,0,0,1-.31,2.94A27.12,27.12,0,0,0,33.21,103.47Z"/><path class="cls-3" d="M12.31,103.91l-.71-.49Z"/><path class="cls-3" d="M23.57,84.74c.59.35,1.14.72,1.68,1.1C24.71,85.46,24.16,85.09,23.57,84.74Z"/><path class="cls-3" d="M9,101.82l-.11-.06Z"/><path class="cls-3" d="M9.69,102.2,9.31,102Z"/><path class="cls-3" d="M12,104.34c.35.24.7.5,1.06.78C12.73,104.84,12.38,104.58,12,104.34Z"/><path class="cls-3" d="M19.36,115.58a8.89,8.89,0,0,1-2.23,4.07A8.89,8.89,0,0,0,19.36,115.58Z"/><path class="cls-3" d="M17,119.73a4.7,4.7,0,0,1-.67.46A4.7,4.7,0,0,0,17,119.73Z"/><path class="cls-3" d="M8.92,102.33c.49.28,1.45.86,2.61,1.65C10.37,103.19,9.41,102.61,8.92,102.33Z"/><path class="cls-3" d="M18.29,119.08a10.74,10.74,0,0,0,.47,1.42A10.74,10.74,0,0,1,18.29,119.08Z"/><path class="cls-3" d="M13.75,129a3.2,3.2,0,0,1-1.54-.81h0A3.2,3.2,0,0,0,13.75,129Z"/><path class="cls-3" d="M21.1,123.43a6.19,6.19,0,0,0,3.28.83,12.47,12.47,0,0,0,2.86-.37,12.47,12.47,0,0,1-2.86.37,6.19,6.19,0,0,1-3.28-.83,5.57,5.57,0,0,1-.94-.74A5.57,5.57,0,0,0,21.1,123.43Z"/><path class="cls-3" d="M8.92,102.33l-.34-.2h0Z"/><path class="cls-3" d="M60.08,130.14a18.06,18.06,0,0,0-7.56,1.62c-3.15,1.5-6.91,2-11,2.32,4-.29,7.8-.82,11-2.32A18.06,18.06,0,0,1,60.08,130.14Z"/><path class="cls-3" d="M21.7,129.26l-.32,0c-.66,0-1.55.09-2.54.12,1,0,1.88-.08,2.54-.12Z"/><path class="cls-3" d="M96.91,142.71a3.13,3.13,0,0,1-.3.32l-.11-.12.11.12A3.13,3.13,0,0,0,96.91,142.71Z"/><path class="cls-3" d="M120,58.14h0c-.07,0-1.49.09-7.55,6.41l-.2.21-.18-.22c-.08-.1-8.21-10-13.88-11.62C94,51.68,84.29,51.92,75,57.7c-6.64,4.14-15.16,12.56-18,29.17a.33.33,0,0,0,.08.32c.47.53,2.53.44,3.64.4.48,0,.87,0,1.1,0l.32,0-.11.31c0,.09-3.34,9.24-1.73,15.86.33,1.39.35,1.66.08,1.77s-.47-.13-1.19-1.23c-2-3-7.25-11-14.75-8.24l-.31.32c-1.42,1.48-4.75,5-4.45,10,.26,4.21,3.08,8.53,8.38,12.83,3.12,2.54,8.17,5.06,14.49,2.68l.25-.09.17-.06.11.14s4.23,5.29,6.51,6.66l.15.09v0c2.65,2.13,14.71,8.39,19.4,9.21,4.16.74,30.15-.59,35.59-15.11,1.46-3.9.92-9.28.92-9.33v-.1l.06-.08a30.94,30.94,0,0,0,4-7.63,67,67,0,0,0,4-23.9h0C133.6,75.62,123.34,58.9,120,58.14Z"/><path class="cls-3" d="M28.88,122.94c3.06-2.82,4.8-5.72,5.16-8.66a8.57,8.57,0,0,0-1.27-5.73,11.18,11.18,0,0,1-4.89,1.86,1.65,1.65,0,0,1-.47-.08c-.16,2.37-1.41,4.93-7.63,5.55a12.25,12.25,0,0,1-1.13,2.64A6.59,6.59,0,0,0,21.36,123c2.26,1.38,5.23.57,7,.08Z"/><path class="cls-3" d="M126.13,113.43c.07.79.45,5.7-1,9.46-.13.34-.29.66-.44,1,4-3.71,4.56-6.7,4.27-8.6a5.26,5.26,0,0,0-1.87-3.35C126.64,112.74,126.27,113.24,126.13,113.43Z"/><path class="cls-3" d="M69.18,131.22l.09-.07,0-.14,0,.14-.09.07a.39.39,0,0,1-.14,0,.59.59,0,0,1-.2,0,.59.59,0,0,0,.2,0A.39.39,0,0,0,69.18,131.22Z"/><path class="cls-3" d="M69.18,131.22a.39.39,0,0,1-.14,0,15.41,15.41,0,0,1,2.48,2.18l.37-.34a16.87,16.87,0,0,0-2.55-2.24l0,.15,0,.14Z"/><path class="cls-3" d="M3.47,84.67,8.28,150.6l95.84,5,2.21,3.48h1a35.39,35.39,0,0,0-.93-8.84,22.9,22.9,0,0,0-1.24-3.67,18.38,18.38,0,0,0-1.75-3.15,14.61,14.61,0,0,0-1.42-1.77,10.91,10.91,0,0,0-1.31-1.22c-.2-.16-.39-.31-.57-.43a8.5,8.5,0,0,0-1.18-.7,19.1,19.1,0,0,1-1.08,2.11,9.74,9.74,0,0,1-.91,1.3,3.13,3.13,0,0,1-.3.32l-.11-.12-.23-.25a3.61,3.61,0,0,0,.36-.4,7.9,7.9,0,0,0,.53-.74c.26-.42.52-.87.77-1.35s.34-.68.48-1,.36-.85.48-1.2l-2.06.24c-2,.2-3.74.28-5.12.28a16.87,16.87,0,0,1-2.69-.16,20.06,20.06,0,0,1-3.24-.95c-.84-.31-1.75-.67-2.69-1.07s-1.91-.83-2.88-1.29-2-.94-2.91-1.42-1.88-1-2.74-1.44-1.68-.92-2.4-1.35-1.35-.81-1.86-1.15c-.26-.17-.49-.33-.68-.48l-.28,1.69h0a16.87,16.87,0,0,1,2.55,2.24l-.37.34A15.41,15.41,0,0,0,69,131.26a.59.59,0,0,1-.2,0,9.53,9.53,0,0,1-1.37-.25l-.56-.12-1.36-.26c-.49-.09-1-.18-1.62-.26s-1.2-.14-1.84-.19-1.32-.06-2-.06a18.06,18.06,0,0,0-7.56,1.62c-3.15,1.5-6.91,2-11,2.32-1.35.09-2.73.16-4.13.23-4.75.25-9.65.49-14.2,1.82l-.28.09-1-7-.26,0-.32,0c-.66,0-1.55.09-2.54.12h-1a17.08,17.08,0,0,1-4.08-.39,3.2,3.2,0,0,1-1.54-.81h0l.38-.33c.52.6,1.86.87,3.38,1,.44,0,.89.05,1.34.05,1.57,0,3.13-.07,4-.12l.42,0h.31l.24-.22.44-.39.59-.52,1-.91.75-.65.37-.31.71-.58c.22-.18.43-.35.62-.49.42-.33.8-.66,1.19-1l-.8.2a12.47,12.47,0,0,1-2.86.37,6.19,6.19,0,0,1-3.28-.83,5.57,5.57,0,0,1-.94-.74c-.14-.15-.28-.3-.41-.46a7.05,7.05,0,0,1-1-1.73,10.74,10.74,0,0,1-.47-1.42,6.47,6.47,0,0,1-.91,1,4.48,4.48,0,0,1-1,.68c-.15.07-.29.12-.43.17a3.46,3.46,0,0,1-.79.16,2.11,2.11,0,0,1-.35,0,3.5,3.5,0,0,1-.84-.1,2,2,0,0,1-.35-.11l.2-.46a3.39,3.39,0,0,0,.42.11,3.18,3.18,0,0,0,1.94-.25l.21-.13a4.7,4.7,0,0,0,.67-.46l.1-.08a8.89,8.89,0,0,0,2.23-4.07c1.15-3.83-2.82-7.83-6.27-10.46-.36-.28-.71-.54-1.06-.78l-.5-.36c-1.16-.79-2.12-1.37-2.61-1.65l-.34-.2h0l.24-.44.11.07.11.06.27.15.38.23c.32.19.71.43,1.16.72l.75.5.71.49,1.09.8c.55.42,1.12.88,1.67,1.36a22.66,22.66,0,0,1,2.45,2.46c1.7,2,2.55,4,2.52,5.77a5.39,5.39,0,0,1-.13,1.06c7-.77,7-4.19,7-5.67h0c0-.43,0-.87,0-1.3a12.17,12.17,0,0,0-.49-2.53c-.13-.41-.27-.81-.44-1.22a15.63,15.63,0,0,0-1.21-2.33,18.47,18.47,0,0,0-1.59-2.19,23.68,23.68,0,0,0-1.88-2,31.92,31.92,0,0,0-6.62-4.8l.24-.44a34.06,34.06,0,0,1,3.49,2.19,28.16,28.16,0,0,1,5.2,4.79,21.53,21.53,0,0,1,1.62,2.24,15.48,15.48,0,0,1,1.68,3.66,12.24,12.24,0,0,1,.53,4h0a.13.13,0,0,0,.09.15,1.4,1.4,0,0,0,.68.05,6.4,6.4,0,0,0,.65-.14c.24-.06.49-.14.75-.22l.79-.3.76-.34.36-.18.62-.35c.18-.12.34-.23.46-.33.11-.49.21-1,.3-1.63a27.12,27.12,0,0,0,.31-2.94c0-.71,0-1.45,0-2.21A21.24,21.24,0,0,0,33,98.91a19.13,19.13,0,0,0-3.22-8.51,18.28,18.28,0,0,0-2.3-2.69,19.81,19.81,0,0,0-2.27-1.87c-.54-.38-1.09-.75-1.68-1.1-.74-.43-1.52-.84-2.34-1.22a38.11,38.11,0,0,0-10.12-2.87l-.85.06a16.41,16.41,0,0,0-7.54,2A14.17,14.17,0,0,0,.36,84.37v1Z"/><path class="cls-1" d="M193.37,21.54c-2-7.58-10-19.27-18.38-21.09-16.94-3.67-24.93,16.27-25,16.47-.22.6-.81.89-1.55,1.25-2.1,1-5.28,2.56-3.9,13.57,1.16,9.19,8.68,15.12,10,16.13l-.26.36-.2.28-.06.08c-13.18,18.06-18.48,28.67-20,31.91-.48-15.14-10.78-27.13-15.57-31.91l-.36-.36c-1.12-1.09-1.87-1.74-2-1.86-1.64-2.16-4.4-6.82-7.32-11.75C103.93,26.37,98.39,17,95.87,15.48a.33.33,0,0,0-.33,0c-.57.27-1,2.76-1.91,10.59-.54,4.45-1.28,10.52-1.82,11.13l-.28,0A51.86,51.86,0,0,0,69.21,38.8,35.59,35.59,0,0,0,53.9,48.23l-.35.36c-4.42,4.81-7.63,11-9.57,18.61-.65,1.15-18.79,2.93-25.52,1.65A.41.41,0,0,0,18,69c-.4.79,3.48,4.71,15.36,16.11,5,4.79,10.15,9.74,10.67,10.64l-.25.26c-1.47,1.53-4.91,5.12-4.59,10.33.27,4.36,3.15,8.8,8.57,13.2,3.22,2.61,8.43,5.21,15,2.75l.07,0c.69.86,4.2,5.14,6.39,6.55l-.33,1.94c-.23,0-.76-.13-1.26-.24-2.82-.61-9.4-2-15.27.77-4.12,1.95-9.35,2.22-14.9,2.5-4.67.24-9.51.48-14,1.76l-.92-6.49c.55-.5,3.3-2.93,4.7-4,4.46-3.44,7-7,7.39-10.73a9,9,0,0,0-1.44-6.2c.86-4,1.6-11.61-2.87-18-3.62-5.19-9.95-8.51-18.77-9.92a18.14,18.14,0,0,0-1.82.19l.6,0a6.33,6.33,0,0,0,1.21-.13l.11.35a2.79,2.79,0,0,1-.45.08,38.11,38.11,0,0,1,10.12,2.87c.82.38,1.6.79,2.34,1.22.59.35,1.14.72,1.68,1.1a19,19,0,0,1,2.27,1.87,18.28,18.28,0,0,1,2.3,2.69A19.13,19.13,0,0,1,33,98.91a21.24,21.24,0,0,1,.19,2.35c0,.76,0,1.5,0,2.21a27.12,27.12,0,0,1-.31,2.94c-.09.59-.19,1.14-.3,1.63-.12.1-.28.21-.46.33l-.62.35-.36.18-.76.34-.79.3c-.26.08-.51.16-.75.22a6.4,6.4,0,0,1-.65.14,1.4,1.4,0,0,1-.68-.05.13.13,0,0,1-.09-.15h0a12.24,12.24,0,0,0-.53-4,15.48,15.48,0,0,0-1.68-3.66,21.53,21.53,0,0,0-1.62-2.24,28.16,28.16,0,0,0-5.2-4.79,34.06,34.06,0,0,0-3.49-2.19l-.24.44a31.92,31.92,0,0,1,6.62,4.8,23.68,23.68,0,0,1,1.88,2,18.47,18.47,0,0,1,1.59,2.19A15.63,15.63,0,0,1,26,104.63c.17.41.31.81.44,1.22a12.17,12.17,0,0,1,.49,2.53c0,.43,0,.87,0,1.3h0c0,1.48,0,4.9-7,5.67A5.39,5.39,0,0,0,20,114.3c0-1.8-.82-3.74-2.52-5.77a22.66,22.66,0,0,0-2.45-2.46c-.55-.48-1.12-.94-1.67-1.36l-1.09-.8-.71-.49-.75-.5c-.45-.29-.84-.53-1.16-.72L9.31,102,9,101.82l-.11-.06-.11-.07-.24.44.34.2c.49.28,1.45.86,2.61,1.65l.5.36c.35.24.7.5,1.06.78,3.45,2.63,7.42,6.63,6.27,10.46a8.89,8.89,0,0,1-2.23,4.07l-.1.08a4.7,4.7,0,0,1-.67.46l-.21.13a3.18,3.18,0,0,1-1.94.25,3.39,3.39,0,0,1-.42-.11l-.2.46a2,2,0,0,0,.35.11,3.5,3.5,0,0,0,.84.1,2.11,2.11,0,0,0,.35,0,3.46,3.46,0,0,0,.79-.16c.14,0,.28-.1.43-.17a4.48,4.48,0,0,0,1-.68,6.47,6.47,0,0,0,.91-1,10.74,10.74,0,0,0,.47,1.42,7.05,7.05,0,0,0,1,1.73c.13.16.27.31.41.46a5.57,5.57,0,0,0,.94.74,6.19,6.19,0,0,0,3.28.83,12.47,12.47,0,0,0,2.86-.37l.8-.2c-.39.32-.77.65-1.19,1-.19.14-.4.31-.62.49l-.71.58-.37.31-.75.65-1,.91-.59.52-.44.39-.24.22h-.31l-.42,0c-.91.05-2.47.15-4,.12-.45,0-.9,0-1.34-.05-1.52-.1-2.86-.37-3.38-1l-.38.33a3.2,3.2,0,0,0,1.54.81,17.08,17.08,0,0,0,4.08.39h1c1,0,1.88-.08,2.54-.12l.32,0,.26,0,1,7,.28-.09c4.55-1.33,9.45-1.57,14.2-1.82,1.4-.07,2.78-.14,4.13-.23,4-.29,7.8-.82,11-2.32a18.06,18.06,0,0,1,7.56-1.62c.69,0,1.37,0,2,.06s1.26.11,1.84.19,1.13.17,1.62.26l1.36.26.56.12a9.53,9.53,0,0,0,1.37.25.59.59,0,0,0,.2,0,.39.39,0,0,0,.14,0l.09-.07,0-.14,0-.15.28-1.69c.19.15.42.31.68.48.51.34,1.14.73,1.86,1.15s1.53.88,2.4,1.35,1.79,1,2.74,1.44,1.93,1,2.91,1.42,1.94.89,2.88,1.29,1.85.76,2.69,1.07a20.06,20.06,0,0,0,3.24.95,16.87,16.87,0,0,0,2.69.16c1.38,0,3.14-.08,5.12-.28l2.06-.24h0c-.12.35-.28.76-.48,1.2s-.31.67-.48,1-.51.93-.77,1.35a7.9,7.9,0,0,1-.53.74,3.61,3.61,0,0,1-.36.4l.23.25.11.12a3.13,3.13,0,0,0,.3-.32,9.74,9.74,0,0,0,.91-1.3,19.1,19.1,0,0,0,1.08-2.11,8.5,8.5,0,0,1,1.18.7c.18.12.37.27.57.43a10.91,10.91,0,0,1,1.31,1.22,14.61,14.61,0,0,1,1.42,1.77,18.38,18.38,0,0,1,1.75,3.15,22.9,22.9,0,0,1,1.24,3.67,35.39,35.39,0,0,1,.93,8.84h3.44l1-.14.06-.08-.4.22.73-1c-1,.55-1.59.87-1.79,1H107.8c.15-15.38-7.32-19.59-8.7-20.24.14-.35.26-.68.34-1,8.69-1.23,20.08-4.67,24.68-12.8h0c5-4.25,5.7-7.72,5.37-9.89a5.73,5.73,0,0,0-2.11-3.7,38.48,38.48,0,0,0,2.71-5.72c1.82-4.75,4-12.78,4-24.06.31-.75,5-11.81,20.76-33.39a35,35,0,0,0,1.46,6.23c1.27,3,6.93,7.75,8.42,8.82L165,63c-1.89-1.35-7.11-5.89-8.24-8.61a38.93,38.93,0,0,1-1.5-6.58h0l0,0-.22-.15c-.09-.06-8.8-6.09-10-15.92-1.34-10.65,1.53-12,3.62-13.06a7.14,7.14,0,0,0,1.07-.59c.37-.17,2.09.24,4.19,1.66a14.61,14.61,0,0,1,6.56,12.91c-.16,3.74-1.5,5.94-3.77,6.17-3,.32-6.92-3-7.87-6.66l-.49.13c1,3.78,4.74,7.06,7.95,7.06a3.71,3.71,0,0,0,.47,0c1.21-.12,3.12-.87,3.89-4.15h.89l0,0a5.58,5.58,0,0,0,.48,5.93c1.59,2.33,4.37,3.77,6.15,3.77h.21c0,.15-.08.29-.1.44A7.53,7.53,0,0,0,170,51.64a6.19,6.19,0,0,0,4.57,1.8,8.62,8.62,0,0,0,.87,0c.77.76,3,1,4.09,1a3.27,3.27,0,0,0,.52,0l-.06-.5a9.25,9.25,0,0,1-3.82-.55A13.7,13.7,0,0,0,182.05,51a6,6,0,0,1,2-1l-.1-.49a6.26,6.26,0,0,0-2.14,1.06,13,13,0,0,1-6.25,2.34,6,6,0,0,1-5.14-1.59,7.05,7.05,0,0,1-1.64-5.94c.42-3.14,3.95-5.45,6-6.55a21.4,21.4,0,0,1,8.1-2.54v-.5c-3.69.05-13,3.6-14.45,8.84l0-.25c-1.57.16-4.42-1.26-6-3.55a5.09,5.09,0,0,1-.45-5.41C166.31,27,173,22.64,182,22.56h.43v-.5H182c-8.94.09-15.71,4.32-20.16,12.56h-1.05a15.3,15.3,0,0,0,.22-2,14.65,14.65,0,0,0-2.84-9.53A26.8,26.8,0,0,1,176.2,12.4l.22,0-.08-.5-.2,0a27.31,27.31,0,0,0-18.31,10.77,16.69,16.69,0,0,0-3.64-3.4,10.45,10.45,0,0,0-4-1.76,1.64,1.64,0,0,0,.24-.41A33.63,33.63,0,0,1,157.3,6.8c5.21-5.28,11.13-7.25,17.58-5.86,8.21,1.78,16,13.27,18,20.73,3.73,14,2.72,21.48.1,28l1.09-1.46C196.25,42,196.83,34.53,193.37,21.54ZM21.36,123a6.59,6.59,0,0,1-2.71-4.48,12.25,12.25,0,0,0,1.13-2.64c6.22-.62,7.47-3.18,7.63-5.55a1.65,1.65,0,0,0,.47.08,11.18,11.18,0,0,0,4.89-1.86A8.57,8.57,0,0,1,34,114.28c-.36,2.94-2.1,5.84-5.16,8.66l-.52.14C26.59,123.57,23.62,124.38,21.36,123ZM129,115.28c.29,1.9-.26,4.89-4.27,8.6.15-.33.31-.65.44-1,1.41-3.76,1-8.67,1-9.46.14-.19.51-.69,1-1.5A5.26,5.26,0,0,1,129,115.28Zm4.6-33.61a67,67,0,0,1-4,23.9,30.94,30.94,0,0,1-4,7.63l-.06.08v.1c0,.05.54,5.43-.92,9.33-5.44,14.52-31.43,15.85-35.59,15.11-4.69-.82-16.75-7.08-19.4-9.21v0l-.15-.09c-2.28-1.37-6.47-6.61-6.51-6.66L63,121.7l-.17.06-.25.09c-6.32,2.38-11.37-.14-14.49-2.68-5.3-4.3-8.12-8.62-8.38-12.83-.3-5,3-8.47,4.45-10l.31-.32c7.5-2.72,12.76,5.24,14.75,8.24.72,1.1.89,1.36,1.19,1.23s.25-.38-.08-1.77C58.67,97.15,62,88,62,87.91l.11-.31-.32,0c-.23,0-.62,0-1.1,0-1.11,0-3.17.13-3.64-.4a.33.33,0,0,1-.08-.32c2.86-16.61,11.38-25,18-29.17,9.29-5.78,19-6,23.23-4.78,5.67,1.67,13.8,11.52,13.88,11.62l.18.22.2-.21c6.06-6.32,7.48-6.41,7.55-6.41h0c3.3.76,13.56,17.48,13.56,23.53Z"/><path class="cls-1" d="M.36,84.37c-.06,0-.13.09-.19.15L0,84.67v.75l.36-.08Z"/><polygon class="cls-1" points="69.34 130.86 69.31 131.01 69.34 130.86 69.34 130.86"/><path class="cls-1" d="M20,114.3c0-1.8-.82-3.74-2.52-5.77C19.22,110.56,20.07,112.5,20,114.3Z"/><path class="cls-1" d="M11.6,103.42l-.75-.5Z"/><path class="cls-1" d="M8.93,101.76l-.11-.07Z"/><path class="cls-1" d="M15.07,106.07c-.55-.48-1.12-.94-1.67-1.36.55.42,1.12.88,1.67,1.36a22.66,22.66,0,0,1,2.45,2.46A22.66,22.66,0,0,0,15.07,106.07Z"/><path class="cls-1" d="M9.31,102,9,101.82Z"/><path class="cls-1" d="M100.65,140.43a10.91,10.91,0,0,1,1.31,1.22A10.91,10.91,0,0,0,100.65,140.43Z"/><path class="cls-1" d="M14.68,93.3l.24-.44a34.06,34.06,0,0,1,3.49,2.19,34.06,34.06,0,0,0-3.49-2.19Z"/><path class="cls-1" d="M103.38,143.42a18.38,18.38,0,0,1,1.75,3.15A18.38,18.38,0,0,0,103.38,143.42Z"/><path class="cls-1" d="M33,98.91a21.24,21.24,0,0,1,.19,2.35A21.24,21.24,0,0,0,33,98.91Z"/><path class="cls-1" d="M32.14,108.37l-.62.35Z"/><path class="cls-1" d="M25.25,85.84a19.81,19.81,0,0,1,2.27,1.87A19,19,0,0,0,25.25,85.84Z"/><path class="cls-1" d="M31.16,108.9l-.76.34Z"/><path class="cls-1" d="M26.91,105.74a15.48,15.48,0,0,0-1.68-3.66A15.48,15.48,0,0,1,26.91,105.74Z"/><path class="cls-1" d="M30.4,109.24l-.79.3Z"/><path class="cls-1" d="M25.23,102.08a21.53,21.53,0,0,0-1.62-2.24A21.53,21.53,0,0,1,25.23,102.08Z"/><path class="cls-1" d="M28.86,109.76a6.4,6.4,0,0,1-.65.14A6.4,6.4,0,0,0,28.86,109.76Z"/><path class="cls-1" d="M17.13,119.65l-.1.08Z"/><path class="cls-1" d="M22.76,128.13l-.44.39Z"/><polygon class="cls-1" points="12.21 128.21 12.59 127.88 12.21 128.21 12.21 128.21"/><path class="cls-1" d="M17.31,128.9c-.45,0-.9,0-1.34-.05C16.41,128.88,16.86,128.9,17.31,128.9Z"/><path class="cls-1" d="M96.5,142.91l-.23-.25a3.61,3.61,0,0,0,.36-.4,3.61,3.61,0,0,1-.36.4Z"/><path class="cls-1" d="M97.16,141.52a7.9,7.9,0,0,1-.53.74A7.9,7.9,0,0,0,97.16,141.52Z"/><path class="cls-1" d="M21.77,128.75h.31l.24-.22-.24.22Z"/><polygon class="cls-1" points="106.33 159.08 107.3 159.08 107.3 159.08 106.33 159.08 106.33 159.08"/><path class="cls-1" d="M98.89,138h0c-.12.35-.28.76-.48,1.2C98.61,138.72,98.77,138.31,98.89,138Z"/><polygon class="cls-1" points="69.34 130.86 69.62 129.17 69.34 130.86 69.34 130.86 69.34 130.86"/><path class="cls-1" d="M98.41,139.16c-.14.33-.31.67-.48,1C98.1,139.83,98.27,139.49,98.41,139.16Z"/><path class="cls-1" d="M23.35,127.61l-.59.52Z"/><polygon class="cls-1" points="8.58 102.14 8.82 101.69 8.58 102.14 8.58 102.14"/><path class="cls-1" d="M15.13,121.11a3.46,3.46,0,0,0,.79-.16A3.46,3.46,0,0,1,15.13,121.11Z"/><path class="cls-1" d="M14.21,120.57a3.18,3.18,0,0,0,1.94-.25l.21-.13-.21.13A3.18,3.18,0,0,1,14.21,120.57Z"/><path class="cls-1" d="M98.9,139.3a8.5,8.5,0,0,1,1.18.7A8.5,8.5,0,0,0,98.9,139.3Z"/><path class="cls-1" d="M20.16,122.69c-.14-.15-.28-.3-.41-.46C19.88,122.39,20,122.54,20.16,122.69Z"/><path class="cls-1" d="M16.35,120.78a4.48,4.48,0,0,0,1-.68A4.48,4.48,0,0,1,16.35,120.78Z"/><path class="cls-1" d="M26.23,125.16l-.71.58Z"/><path class="cls-1" d="M25.15,126.05l-.75.65Z"/><line class="cls-1" x1="106.33" y1="159.08" x2="106.33" y2="159.08"/></g></g></svg>