<svg xmlns="http://www.w3.org/2000/svg" viewBox="0 0 98.18 94.31"><defs><style>.cls-1{fill:#323c40;}.cls-2{fill:#48565e;}.cls-3{fill:#f6f6f6;}</style></defs><g id="Calque_2" data-name="Calque 2"><g id="Calque_3" data-name="Calque 3"><circle class="cls-1" cx="52" cy="48.13" r="46.18"/><circle class="cls-2" cx="46.18" cy="46.18" r="46.18"/><path class="cls-3" d="M15.28,64.49,27.66,40H14V31.85H42L26.46,64.49Z"/><path class="cls-3" d="M55.45,65.3q-7.16,0-10.92-4.39T40.76,48.22q0-8.4,3.77-12.8T55.45,31q7.2,0,11,4.39t3.77,12.8c0,5.56-1.26,9.81-3.77,12.72S60.25,65.3,55.45,65.3Zm-3.91-9.91a4.14,4.14,0,0,0,3.91,2.23,4.19,4.19,0,0,0,3.94-2.25q1.24-2.26,1.25-7.15T59.39,41a4.18,4.18,0,0,0-3.94-2.28A4.13,4.13,0,0,0,51.54,41c-.82,1.5-1.22,3.92-1.22,7.25S50.72,53.9,51.54,55.39Z"/><path class="cls-3" d="M78.54,29.78a5,5,0,0,1,4,1.88,7.82,7.82,0,0,1,1.59,5.23q0,4.56-2.31,6.91a8.7,8.7,0,0,1-6.53,2.35L73.74,46V43a12.56,12.56,0,0,0,1.82.1,5,5,0,0,0,3.6-1.3,4.87,4.87,0,0,0,1.35-2.92,2.88,2.88,0,0,1-2.26.76,4.39,4.39,0,0,1-3.43-1.41,5.08,5.08,0,0,1-1.27-3.53A4.73,4.73,0,0,1,75,31.2,4.88,4.88,0,0,1,78.54,29.78Z"/></g></g></svg>