<svg xmlns="http://www.w3.org/2000/svg" viewBox="0 0 59.92 51.37"><defs><style>.cls-1{fill:#1d1d1b;}</style></defs><g id="Calque_2" data-name="Calque 2"><g id="homepage"><path class="cls-1" d="M19,51.37c-.69-.16-1.39-.3-2.08-.47-5.59-1.36-8.86-5.06-10.08-10.49-2.47-11,4.95-22.4,14.52-25,5-1.38,9.94-1.12,14.39,1.92a44.13,44.13,0,0,1,3.72,3.14l-.16.37c.2-.48.42-.95.58-1.45,2-6.05,3.92-12.09,5.82-18.15A1.4,1.4,0,0,1,47.31,0c4.15.05,8.31,0,12.61,0a10.18,10.18,0,0,1-.23,1.05q-6.6,20.4-13.2,40.78c-.78,2.43-1.4,4.92-2.09,7.38-.16.6-.29,1.09-1.13,1.09-4,0-8,0-12,0a2,2,0,0,1-.47-.16l1.39-4.36c-.64.49-1,.72-1.28,1-3,2.37-6.2,4.11-10.08,4.34a3.35,3.35,0,0,0-.84.29Zm16.81-21.1c0-.38,0-.77,0-1.15-.23-2.68-1.1-5.05-3.66-6.34s-4.88-.42-6.91,1.2a14.36,14.36,0,0,0-5.46,13.5c.45,4.15,3.14,6.46,6.72,5.93a8.64,8.64,0,0,0,3.89-1.75C34,38.79,35.63,34.84,35.81,30.27Z"/><path class="cls-1" d="M0,17V.26H16.05Z"/></g></g></svg>