<svg xmlns="http://www.w3.org/2000/svg" viewBox="0 0 69.62 71.79"><defs><style>.cls-1{fill:#fff;}</style></defs><g id="Calque_2" data-name="Calque 2"><g id="homepage"><path d="M0,61.52,6.27,21.7c.53,0,1,0,1.53,0,.06,0,.15.12.19.21a.82.82,0,0,1,0,.27C8,25.59,8,29,8,32.38v.48h3.83V21.72h6.35V32.87H22.3v-.42c0-2.27,0-4.53,0-6.79a3.6,3.6,0,0,1,2.9-3.74,6.2,6.2,0,0,1,1.66-.16A4.41,4.41,0,0,1,30.2,23.3a2.67,2.67,0,0,1,.65,1.77v7.79H35v-.4c0-2.53-.06-5.06,0-7.59a5.38,5.38,0,0,0-4.55-5.74,10.24,10.24,0,0,0-6.59.68,5.24,5.24,0,0,0-1.74,1.27V19.19H11.89a2.53,2.53,0,0,1,1.71-3,4,4,0,0,1,4.21.66,4.16,4.16,0,0,1,.68,1H22a4.34,4.34,0,0,0-1.14-3.13,5.59,5.59,0,0,0-3.13-1.58,11,11,0,0,0-6.1.3,5.22,5.22,0,0,0-3.47,3.65A7.71,7.71,0,0,0,8,18.42c0,.24,0,.48,0,.75H6.67Q8.18,9.56,9.69,0L69.62,10.27c-.66,4.17-1.31,8.31-2,12.46,0,0-.08,0-.09-.06a5.34,5.34,0,0,0-3.28-3.06,11.11,11.11,0,0,0-8.9.2,6.59,6.59,0,0,0-3.89,5.55,6.69,6.69,0,0,0,4.85,7.34,11,11,0,0,0,8-.33,13.12,13.12,0,0,0,1.77-1.16c.07,0,.12-.1.24-.19-2.15,13.63-4.29,27.19-6.42,40.77ZM51.18,33.06a1.15,1.15,0,0,0,0-.16c0-3.25,0-6.5,0-9.76a3.22,3.22,0,0,0-1-2.36A5.59,5.59,0,0,0,48,19.52a14.28,14.28,0,0,0-8.34-.19,5.14,5.14,0,0,0-3,1.93A3.87,3.87,0,0,0,36,23.38H40.6a2.26,2.26,0,0,1,2.27-2,13.26,13.26,0,0,1,2.09,0,2.91,2.91,0,0,1,1.06.33,1.47,1.47,0,0,1,.76,1.5c0,.6-.44.89-1,1.08a3.59,3.59,0,0,1-.84.22c-1.55.2-3.1.36-4.65.57a9.07,9.07,0,0,0-3.1.9,3.63,3.63,0,0,0-.47,6,5.73,5.73,0,0,0,1.91.92,10.44,10.44,0,0,0,3.61.27A9.26,9.26,0,0,0,46.52,32c.21-.12.4-.26.65-.42v1.46Z"/><path d="M63.36,24h4.09c-.19,1.23-.38,2.41-.57,3.64H63.81c-.15,0-.29,0-.33.2a3.24,3.24,0,0,1-3.37,2.58,3.63,3.63,0,0,1-4-3.43,5.45,5.45,0,0,1,.66-3.67,3.36,3.36,0,0,1,2.74-1.64,4.47,4.47,0,0,1,2.39.37A2.59,2.59,0,0,1,63.36,24Z"/><path class="cls-1" d="M47.33,26.51a3.89,3.89,0,0,1-.62.22c-1.13.16-2.26.3-3.39.48-.73.12-1.46.25-2.18.43a1.25,1.25,0,0,0-1,1,1.52,1.52,0,0,0,1,1.88,5.36,5.36,0,0,0,2.42.22A3.81,3.81,0,0,0,47.33,26.51Z"/><path d="M47.33,26.51a3.81,3.81,0,0,1-3.72,4.2,5.36,5.36,0,0,1-2.42-.22,1.52,1.52,0,0,1-1-1.88,1.25,1.25,0,0,1,1-1c.72-.18,1.45-.31,2.18-.43,1.13-.18,2.26-.32,3.39-.48A3.89,3.89,0,0,0,47.33,26.51Z"/></g></g></svg>