<svg xmlns="http://www.w3.org/2000/svg" viewBox="0 0 218.06 151.05"><defs><style>.cls-1{fill:#3f2c20;}.cls-2{fill:#3b405a;}.cls-3{fill:none;}.cls-4{fill:#323c40;stroke:#323c40;stroke-miterlimit:10;stroke-width:0.64px;}.cls-5{fill:#af6a41;}</style></defs><g id="Calque_2" data-name="Calque 2"><g id="Calque_3" data-name="Calque 3"><g id="Heidi"><path class="cls-1" d="M187.2,139.57l-.51.35Z"/><path class="cls-2" d="M29.18,37V36.9s0,0,0,0S29.19,36.93,29.18,37Z"/><path class="cls-1" d="M187.29,139.51l-.09.06Z"/><path class="cls-1" d="M186.69,139.92l0,0Z"/><path class="cls-2" d="M218.06,84.61l-.23.11V84l.22-.12Z"/><path class="cls-1" d="M124.28,98.56c.41,6.31,3.66,17,13.27,17,10.28,0,18.38-7.68,19.72-18.67a.58.58,0,0,0-.18-.46c-1.8-1.78-26.39-4.41-31.52-3.74C124.35,92.83,124.11,95.94,124.28,98.56Zm16.54-1.29a46.81,46.81,0,0,1-11.6-4.07,167.27,167.27,0,0,1,24.7,2.8C152.23,97.05,147.45,98.63,140.82,97.27Zm-15.56,3.89c3.34-3.06,9.78-2.14,14.63-.81,5.39,1.48,7.93,7.42,8.07,11.34a18.35,18.35,0,0,1-10.41,3.18C129.66,114.87,126.28,107.18,125.26,101.16Z"/><path class="cls-1" d="M152.68,86a3.41,3.41,0,0,0,1.73-3.47c-.13-.57-.93-.57-.93-.57.56,1,.27,3.36-1.19,3.82Z"/><path class="cls-1" d="M151.48,85.71l.71-.23a1.71,1.71,0,0,0,1-1,3,3,0,0,0,0-2.3l-.26-.48h.54a1.22,1.22,0,0,1,1.24.82,3.72,3.72,0,0,1-1.92,3.84l-.14,0ZM154,83.84a2.76,2.76,0,0,0,.08-1.23.31.31,0,0,0-.11-.16A4,4,0,0,1,154,83.84Z"/><path class="cls-1" d="M87.41,95.82l.2-.63a16.11,16.11,0,0,1-2.31-1.14c-1.94-1.07-3.16-1.7-3.82-1.29a.89.89,0,0,0-.36.86l.66,0a.46.46,0,0,1,0-.26c.37-.23,2.11.73,3.15,1.31A17.07,17.07,0,0,0,87.41,95.82Z"/><path class="cls-1" d="M150,73.07s1.49,5.25,2.33,6c.2.08-.24.52-.45.37C150.53,78.21,149.87,73.92,150,73.07Z"/><path class="cls-1" d="M151.62,79.64c-1.4-1.29-2.07-5.69-2-6.6l.18-1.65.45,1.6c.56,2,1.64,5.24,2.2,5.79a.37.37,0,0,1,.19.3.74.74,0,0,1-.71.67A.54.54,0,0,1,151.62,79.64Zm0-1c-.15-.29-.31-.64-.47-1A6.48,6.48,0,0,0,151.61,78.62Z"/><path class="cls-1" d="M119.15,81.07a15.9,15.9,0,0,0,5.2-.07c.22,0,.38.26.29.28a25.23,25.23,0,0,1-3.89.35,3.53,3.53,0,0,1-2.21-.45C118.4,81.06,119,80.9,119.15,81.07Z"/><path class="cls-1" d="M120.75,82a25.78,25.78,0,0,0,4-.36l.25-.07,0-.29a.68.68,0,0,0-.6-.55h-.06l0,0a16.18,16.18,0,0,1-5,.1.85.85,0,0,0-.68-.08c-.3.08-.39.23-.42.35l0,.19.17.17C118.64,81.77,119.42,82,120.75,82Z"/><path class="cls-1" d="M158.08,79.44a4,4,0,0,0,3.09.14c.11,0,.3.28.14.34a3.58,3.58,0,0,1-1.36.27,4.77,4.77,0,0,1-2.13-.56C157.67,79.55,158,79.43,158.08,79.44Z"/><path class="cls-1" d="M157.68,79.91a.37.37,0,0,1-.21-.43c.08-.28.48-.37.63-.36l.13,0a3.62,3.62,0,0,0,2.84.12.51.51,0,0,1,.59.37.43.43,0,0,1-.22.57,3.78,3.78,0,0,1-1.49.3A5,5,0,0,1,157.68,79.91Zm3.51-.29h0ZM158,79.35h0Z"/><path class="cls-1" d="M125.75,69c.09,3.32-.07,9.83-3.91,9.53-4.37-.33-4.33-5-3.92-9.72-1,.54-1.86,1-2.4,1.38-.26.17-1.21,1.09-1.23.86l-.07-.56a6.34,6.34,0,0,1,1.44-4.76c1.13-1.17,2.83-1.67,5.06-1.48,3.78.32,5.25,2,5.88,3.42h0l0,0a6.84,6.84,0,0,1,.36,1.09,2.44,2.44,0,0,1,.18,1"/><path class="cls-1" d="M121.86,78.78a4.22,4.22,0,0,1-3-1.42c-1.52-1.79-1.47-5-1.23-8.06-.66.35-1.29.72-1.87,1.09l-.35.29c-.66.56-.89.73-1.15.63l-.2-.1-.09-.75a6.7,6.7,0,0,1,1.53-5h0c1.2-1.25,3-1.78,5.31-1.58,2.66.22,4.56,1.15,5.66,2.75l0-.17.45,1v0l0,0a6.16,6.16,0,0,1,.38,1.12,2.29,2.29,0,0,1,.18,1.17l-.05.17-.15,0c-.14.06-.28.06-.9-.36l-.29-.18c.06,4.35-.59,7.2-2,8.5a2.86,2.86,0,0,1-2,.81Z"/><path class="cls-1" d="M155.86,66.8c.07-.18,1.68-4.46,4.53-4.46h0a5.59,5.59,0,0,1,5,4.82h0s0,.11,0,.27,0,.07,0,.1a3.94,3.94,0,0,1,0,1.21,7,7,0,0,1-1.27-.73,18.16,18.16,0,0,0-2-.94,11.64,11.64,0,0,1,1.06,4.3c-.09,2.66-.63,4.36-1.65,5.2a2.65,2.65,0,0,1-1.73.58,6.14,6.14,0,0,1-.95-.09l-.2,0c-1.29-.18-3-2.55-2.52-7.06a5.25,5.25,0,0,1,1.44-3.53,3.13,3.13,0,0,0-1.34.72s-.83.92-1,.89S155.86,66.8,155.86,66.8Z"/><path class="cls-1" d="M159,77.37l-.19,0c-1.46-.2-3.29-2.64-2.8-7.41a7.58,7.58,0,0,1,.67-2.57h0c-.95,1-1.14,1-1.28,1l-.17,0-.07-.14c-.07-.13-.13-.24.45-1.5.2-.53,1.83-4.66,4.82-4.66a5.84,5.84,0,0,1,5.22,4.5l0,0,.13,1c.14,1.24.09,1.44-.17,1.54s-.27.11-1.53-.75c-.39-.22-.79-.42-1.18-.6a12.28,12.28,0,0,1,.76,3.69c-.1,2.75-.67,4.53-1.77,5.43a2.93,2.93,0,0,1-1.93.66A6.34,6.34,0,0,1,159,77.37Z"/><path class="cls-1" d="M114.37,57.93c3.59-3.46,6.67-2.6,8.15-2.19.22.07.76.2.76.46a2.56,2.56,0,0,1-.93.18,6.91,6.91,0,0,0-7.7,1.71c-.09.06-.09.13-.17.08S114.25,58,114.37,57.93Z"/><path class="cls-1" d="M114.29,58.43a.55.55,0,0,1-.29-.38.43.43,0,0,1,.14-.35c3.73-3.58,6.93-2.69,8.51-2.25.33.09.95.26.95.75v.22l-.21.08a2.61,2.61,0,0,1-1.13.19l-.25-.07a6.46,6.46,0,0,0-7.14,1.7l-.06,0a.39.39,0,0,1-.28.13A.49.49,0,0,1,114.29,58.43Zm8.15-2.38c-.25-.07-.55-.15-.89-.22l.63.17.25.07h.07Z"/><path class="cls-1" d="M160.23,53c0-.21.1-.23.16-.23s4.76,0,6,2.69c.05.19,0,.24,0,.28a.41.41,0,0,1-.5-.08c-.88-1.89-4.25-2.23-5.45-2.23C160.15,53.41,160.22,53.2,160.23,53Z"/><path class="cls-1" d="M165.75,56a.46.46,0,0,1-.21-.23c-.77-1.6-3.7-2-5.16-2a.48.48,0,0,1-.37-.16.61.61,0,0,1-.1-.51V53c0-.4.27-.54.48-.54.05,0,5,0,6.31,2.93a.51.51,0,0,1-.19.63.74.74,0,0,1-.37.1A.68.68,0,0,1,165.75,56Zm-5.21-2.88a10.25,10.25,0,0,1,1.51.14,11.71,11.71,0,0,0-1.5-.17Z"/><path class="cls-2" d="M173,107.85h0Z"/><path class="cls-2" d="M173.89,107.78h0a3,3,0,0,1-.42.06A3,3,0,0,0,173.89,107.78Z"/><polygon class="cls-2" points="173.03 107.85 173.03 107.85 173.03 107.85 173.03 107.85"/><path class="cls-2" d="M173.44,107.84h0Z"/><polygon class="cls-2" points="173.03 107.85 173.03 107.85 173.03 107.85 173.03 107.85"/><polygon class="cls-2" points="171.22 106.68 171.22 106.68 171.22 106.68 171.22 106.68"/><path class="cls-3" d="M173.33,106.48a4,4,0,0,1-1.76-.42,33.86,33.86,0,0,0,4.2-13.3"/><polygon class="cls-2" points="167.33 40.22 167.32 40.22 167.62 40.09 167.33 40.22"/><path class="cls-3" d="M29.18,37V36.9s0,0,0,0S29.19,36.93,29.18,37Z"/><path class="cls-4" d="M180.09,35.56v-.38h.29c.08.13.16.25.23.38Z"/><path class="cls-2" d="M173.79,107.13h0Z"/><path class="cls-5" d="M173.87,107.12c.74-.17,6-3,14-7.4,7.51-4.08,15.27-8.3,17.13-9l.47-.18v0l-.47.17c-1.85.7-10,5.11-17.12,9-6.81,3.71-13.25,7.22-14,7.4a.1.1,0,0,0-.09,0Z"/><path class="cls-1" d="M194.64,134.75c2.64-1.7,15.81-9.41,21.76-13.1v0C210.84,125.12,197.24,133.08,194.64,134.75Z"/><path class="cls-2" d="M216.49,121.6l1.34-.84h0l-1.34.85Z"/><path class="cls-2" d="M217.83,120.76v0c-.34.22-.81.52-1.34.84v0Z"/><path class="cls-5" d="M203.71,92.05c-6.06,3.2-12.28,6.52-15.48,8.26C194.08,97.12,200.56,93.6,203.71,92.05Z"/><path class="cls-2" d="M216.5,120.85l1.33-.85v.76l-1.34.84Z"/><path class="cls-1" d="M172.87,107.78a2.2,2.2,0,0,0,.36,0l.16-.06.36,0c3.5,3.69,13.23,16.65,12.57,31.76h0c1-.72,3.23-2.14,8-5.19,2.68-1.72,16.45-9.78,22.1-13.3v.74c-5.95,3.69-19.12,11.4-21.77,13.1l-1.73,1.11-.08,0-1.42.92-.25.16-1.07.69-.13.09-1,.64-.18.11-1.5,1-.09.06-.51.35,0,0-.37.27h0a2.46,2.46,0,0,0-.36.31,16.06,16.06,0,0,0-1,3.39l-.66.07a17.06,17.06,0,0,1,1-3.73,1.11,1.11,0,0,1,.28-.32c.93-15.54-9.64-29-12.6-32Z"/><path class="cls-2" d="M216.55,84.64l1.28-.68v.76l-1.28.64Z"/><path class="cls-2" d="M216.4,121.69l.09-.06,0,0-.07,0Z"/><path class="cls-2" d="M216.34,85.47l.21-.11"/><path class="cls-2" d="M216.5,120.85l-.1.06"/><path class="cls-2" d="M216.49,121.61l-.09.06v0l.09-.05Z"/><path class="cls-2" d="M216.49,121.61v0l-.09.06v0Z"/><path class="cls-2" d="M216.49,121.6l-.09.05v-.74l.1-.06Z"/><path class="cls-2" d="M216.34,85.47v-.71l.21-.12v.72Z"/><polygon class="cls-2" points="205.51 90.57 205.04 90.74 205.51 90.57 205.51 90.57"/><path class="cls-2" d="M29.26,35.9a.91.91,0,0,1-.41,1c-.51.24-.42.36-.42.36h.75s.38-.58.39-.62l.16-.67Z"/><path class="cls-5" d="M166.73,37.16s-1.3,1.86-1.2,2.37.36,1.81.36,1.81l1.07-.41,1.9-2.51-1.67-.61Z"/><path class="cls-1" d="M216.34,84.76l-10.83,5.81h0l-.47.17c-1.85.7-10,5.11-17.12,9-6.71,3.66-13,7.1-14,7.38h-.25l-.38,0H173c-.61-.09-1-.93-1.42-1.12a33.86,33.86,0,0,0,4.2-13.3v-.07l-.06-.71v0h0V91.8l.18.06c1.38-1.08,3.9-4.17,1.79-11.6l.59-2c1.11-3.44,4.63-16.46,1.17-35.13a6.21,6.21,0,0,1,1.25.37c1,.39,2.73,1.41,2.73,1.41l.07-.54a25,25,0,0,0-2.86-8.83h-.52v-.38h.29a11.71,11.71,0,0,0-5.51-5.24c.29-3.19,1.39-22.42-12.68-29.72-1.76-.91-3,1.17-4.53,3.8-2.32,3.94-5.82,9.87-13,10a80.74,80.74,0,0,1-9.45-.68C118.41,11.55,93,8.83,76,42.17c-1.13,2.23-4.71,11.42-3.45,37l.65,1.69v0l0,0,0,.31-.63-.81C70,77.14,57,60.3,51.64,55.1l-.1-.09v-.14c0-1.42.12-14,.62-18.87.07-.68.28-1.74.51-3,.9-4.63,1.58-8.81.1-9.17C49,23,47.68,27.07,46.5,30.71c-.73,2.23-1.41,4.34-2.57,5.43a1.52,1.52,0,0,1-1.29.39C38.16,36,28.78,21.83,28.69,21.69c-.8-1.22-1.88-1.53-3-.87a4,4,0,0,0-1.45,5l.81,1.37c2.45,4.08,4.65,8.08,4.13,9.66l0,0s0,0,0,0,0,.06-.05.09V36.9a.38.38,0,0,1-.22.24c-.8.3-3.11-1.07-5.8-2.64-3.78-2.23-8.07-4.75-9.92-3.82a1,1,0,0,0-.58.73c-.25,1.43,2.24,4.13,5.28,7.26,2,2.09,3.77,3.89,3.47,4.48-.75,1.48-3.87.25-7.18-1-3.83-1.5-8.17-3.21-9.59-1a2,2,0,0,0-.29,1.63C5,45,9.17,47.26,12.26,48.9c1.83,1,3.27,1.76,3.34,2.2a3.54,3.54,0,0,1-.69,2.84c-1.78,2.22-6.51,2.56-10,2.8a14.15,14.15,0,0,0-3.89.55C.31,57.66,0,58,0,58.41c.19,1.34,4.81,2.46,14.46,4.31,5.17,1,10,1.92,12.15,2.9,2.75,1.28,5.86,7.54,10.15,16.2,4.84,9.77,11.47,23.12,20.76,35.27l0,0,.09.12a73.47,73.47,0,0,0,1.21,11.24v.07l0,.06a32.62,32.62,0,0,0,1.77,6.12l.14.47.08,0c2.29,4.53,12,8.46,18.5,11.08,2.91,1.17,5.42,2.18,6.21,2.85a10.68,10.68,0,0,1,1.35,2H184.2c.13-1.78.41-5.25.76-7.14l-.66.07c-.32,1.77-.37,4.88-.51,6.56l-23.29-.08c2.36-5.22-1.46-22.54-2.91-29-.12-.54-.21-1-.29-1.32a34.19,34.19,0,0,0,13.93-13.5c.18.15.4.36.63.55a1.37,1.37,0,0,0,.18.16h0a1.45,1.45,0,0,0,.38.24,1.39,1.39,0,0,0,.6.23h.44a3,3,0,0,0,.42-.06l.13,0c.79-.18,5.15-2.52,14.21-7.45,5.85-3.19,12.33-6.71,15.48-8.26,4.88-2.57,9.63-5.06,12.63-6.58Zm-43-8.28A6.21,6.21,0,0,1,176.6,79h0l.08.22c2.62,7.87.21,11-1.11,12.08l-.11.09v0a40.4,40.4,0,0,0-1.41-6.89,29.31,29.31,0,0,1-.92-4.15c-.1-1.4-.15-2.69-.17-3.91ZM58.22,117h0l-.13-.17C48.8,104.67,42.17,91.31,37.34,81.55,33,72.76,29.84,66.42,26.88,65c-2.18-1-7.09-2-12.27-3-4.5-.86-13.82-2.64-14-3.77a2.45,2.45,0,0,1,.71-.46A15,15,0,0,1,5,57.38c3.57-.25,8.45-.6,10.41-3A4.12,4.12,0,0,0,16.23,51c-.11-.73-1-1.26-3.67-2.67C9.75,46.84,5.5,44.57,5,42.57a1.35,1.35,0,0,1,.2-1.13c1.15-1.77,5.41-.09,8.83,1.26,3.74,1.47,7,2.74,8,.74.48-.95-.68-2.21-3.59-5.21-2-2.06-5.31-5.49-5.1-6.72,0-.07,0-.16.23-.26,1.54-.77,6,1.87,9.32,3.8,3.46,2,5.31,3.07,6.35,2.69a1.09,1.09,0,0,0,.64-.67c.64-1.92-1.72-6.1-4.19-10.21l-.06-.1c-.31-.51-.56-.94-.74-1.26a3.37,3.37,0,0,1,1.21-4.11c.78-.48,1.48-.25,2.08.66.39.6,9.62,14.58,14.42,15.14a2.22,2.22,0,0,0,1.83-.57c1.28-1.2,2-3.39,2.74-5.71,1.24-3.85,2.31-7.16,5.48-6.41.66.16.46,3-.59,8.41-.24,1.24-.44,2.31-.52,3-.48,4.67-.6,16.65-.62,19v.36l.2.19c5.78,5.58,21,25.39,21.62,26.23L74,83.4,74,83l0,.06,0,0h0c.82,1.22,1.76,2.61,2.69,4,1.84,2.69,3.73,5.47,4.46,6.68s4.56,12.41.34,23.34a26.62,26.62,0,0,1-12,13.61C67.91,129.65,60.45,120,58.22,117Zm27.71,31.62c-.87-.72-3.3-1.7-6.38-3-6.36-2.56-15.87-6.41-18.12-10.68a45.59,45.59,0,0,0,5.5-2.13l.11,0,0,0c7.38-3.5,12.44-8.66,15-15.41,4.31-11.16.3-22.75-.39-23.91l-.17-.27.58-.18,3.6,1.62,1.53.58a10.68,10.68,0,0,0,2.23,7.5,18.8,18.8,0,0,0,7.26,5.41l0,0c3.66,4.49,5.19,11,4.21,17.94-1.28,9-6.54,17.13-14.82,22.91A2,2,0,0,1,85.93,148.59Zm6.81,1.63c-3.79.31-5.44-.22-6.17-.75,8.38-5.88,13.72-14.15,15-23.3a28.6,28.6,0,0,0,.06-7.67c5.55,11,16.9,21.51,23.1,24.42.78.37,1.28,4.44,1.47,6,.07.6.11,1.15.16,1.45Zm34.36.12c-.06-.34-.17-1.06-.23-1.53-.46-3.78-.91-6.05-1.83-6.49-6.46-3-18.58-14.36-23.66-25.93l-.1,0a21.22,21.22,0,0,0-3.41-7.88,17.69,17.69,0,0,0,5.58,1.43c.19.08.85.49,1.61,1,.57.36,1.14.7,1.7,1-.15,2.19,2.74,9.42,3.64,11a19.41,19.41,0,0,0,16.86,10.16H128c9.13,0,18.15-5.11,21.44-10l.39-.11q-.1.41-.24,1c-.93,4.19-3.4,15.34-11.79,16.83l-.21,0-.05.2c0,.07-2.15,7.46-3.13,9.23Zm-19.68-37.93c12.89,7.73,24.33,11.63,34.16,11.63a33.51,33.51,0,0,0,6.88-.7c-3.59,4.71-12.38,9.41-21.19,9.14A18.76,18.76,0,0,1,111,122.65C110.07,121.09,107.58,114.7,107.42,112.41Zm52.45,38.05h0l-24.65-.09c.94-1.78,2.55-7.7,2.89-8.86,8.66-1.7,11.17-13,12.12-17.3a13.26,13.26,0,0,1,.34-1.39,34.41,34.41,0,0,0,6.12-2.35c.07.32.16.69.26,1.16C158.27,127.47,162.33,145.73,159.87,150.46Zm11-44.43-.16.27h0a33.56,33.56,0,0,1-21.56,16.23c-11.75,2.81-26.46-1.27-43.74-12.12-1.62-1-1.77-1.1-2-1.07-1.21.15-9.46-1.86-13.41-7-2.48-3.27-2.81-7.12-1-11.47.21-.5.48-.6.67-.62a1.75,1.75,0,0,1,1,.23l1.69,1.21a31.8,31.8,0,0,1,2.55,2.6l1.61,1.87c1.1,1.32,2.18,2.67,3.11,3.84,3.25,4.1,4.14,5.11,4.75,4.91l.34-.11-.15-.32c0-.12-5.34-11.77-5.59-22.69s5.5-26.24,7.94-29.23c3.88-.09,21.32-.6,22.44-2.48a.59.59,0,0,0,0-.6C126.48,43.73,126,39.12,128,36.12c1.81-2.73,5.58-4,10.61-3.67,9.18.65,21.71,7.16,26.84,17.95.17.34.4.36.51.34.53-.09.71-1,1.23-6.14.13-1.37.3-3,.45-3.85,5.93,13.23,5.57,18.22,5,25.71a90.56,90.56,0,0,0-.18,13.89,30.59,30.59,0,0,0,.94,4.27,55.32,55.32,0,0,1,1.28,5.7h0a.22.22,0,0,1,0,.08l.14,1.36.27.82,0,0C174.8,98.94,171.52,104.89,170.86,106Z"/></g></g></g></svg>