<svg xmlns="http://www.w3.org/2000/svg" viewBox="0 0 202.45 156"><defs><style>.cls-1{fill:#32354b;}.cls-2{fill:none;}</style></defs><g id="Calque_2" data-name="Calque 2"><g id="Calque_3" data-name="Calque 3"><path class="cls-1" d="M148.75,119.92a32,32,0,0,0,10.16,2.21,8.94,8.94,0,0,0,4.29-.91c2.31-1.26,3.57-3.53,4.59-5.36.72-1.31,1.35-2.43,2.13-2.82l.84-.4-.92-.15a77.06,77.06,0,0,1-12.33-3.15,10.6,10.6,0,0,0-3.53-.53c-2.89-.12-7.26-.3-17.72-4.08a.67.67,0,0,0-.77.11c-.66.67.09,3.07,1.7,7.26.14.38.27.7.36,1C138.18,114.76,143.2,117.84,148.75,119.92Zm-3.95-8.06c-.59-.15-.79-1.63-1.3-4.16,6.41,1.91,8.24,1.83,10.55,1.92a18.16,18.16,0,0,1,4.45.94,40.07,40.07,0,0,0,7.4,2.09,17.94,17.94,0,0,1-3.74,3C158.79,117.06,154.37,114.25,144.8,111.86Z"/><path class="cls-1" d="M151.35,91c-.14,3.53-2.62,1-3.52.63-3-1.16-10-2.19-11.81-2.8-1.57-.52-1.54-3.07-1.51-3.21a15.64,15.64,0,0,0,3.42,1c3.58.45,7.06-1.39,11.71,3.47,0,0-1-7.5-8-9.54-1.43-.41.16-.61.16-.61C143.74,79.74,151.67,82.93,151.35,91Z"/><path class="cls-1" d="M151.62,74.16c-1.21-.25-6.1-2.31-7.39-2.61s-1.07-.73-1.07-1.42,2.37-1.53,3.73-1.67,6.66,4.71,6.91,5.36C154.71,76.14,152.82,74.42,151.62,74.16Z"/><path class="cls-1" d="M107.76,106.57,96,94.15C103.8,93.38,107.84,105.48,107.76,106.57Z"/><path class="cls-1" d="M164.64,103.07a4,4,0,0,0-1.41.23.89.89,0,0,1-.06-.31c0-.37,1.21-.84,1.72-.84s.58,1.12.64,1.55a1.82,1.82,0,0,1-.59.27C164.94,103.59,164.92,103.13,164.64,103.07Z"/><path class="cls-2" d="M138.64,150.3c.18-.93-.45-1.85-1.69-2.47-1.94-1-10.13,1.27-14.35,2.54a76.68,76.68,0,0,1,9.76-2.73c4.14-1,5.12-1.24,5.27-1.66.22-.63-.48-2-1.26-2.94a6.83,6.83,0,0,0-1.18-1.15c7.47,4.8,13.52,10.13,15.88,12.88H139.9a.84.84,0,0,0-.33-.69,19.72,19.72,0,0,0-3.82-1.86C137.35,152,138.45,151.3,138.64,150.3Z"/><path class="cls-2" d="M163.26,137.28a26.36,26.36,0,0,0,9.15-5.12c-.24,1.79-.38,5.45,1.31,8.32a8.11,8.11,0,0,0,6.68,3.93c-.08.1-.16.22-.25.35-1,1.32-2.69,3.75-7.58,4.32A124.29,124.29,0,0,0,163.26,137.28Z"/><path class="cls-2" d="M112.12,132.4c7.49.89,15.6,4.77,22.55,9.17a2.62,2.62,0,0,0-1.56-.33c-7.05.92-12.76,3-16.51,5.89-2.12-3.91-10.21-10-11.47-10.91a35.26,35.26,0,0,1,2.72-6.35l.27.26a2.84,2.84,0,0,0,.14.32C108.83,131.51,110.12,132.16,112.12,132.4Z"/><path class="cls-2" d="M112.19,131.81l-.16,0c-.77-1.91-4.92-12-8.11-16.15,0,0,2.82-1,3.48-3.45.24-.87-4,2.74-7.41,1.61-7.12-2.36-17.82-16.23-10.68-26.21a37.17,37.17,0,0,0,7.61,1c2.69-.16-3.19,3.86-2.62,4,5.3.89,11.4-2.49,11.41-2.22.16,4.38,6.58,16.33,8.09,16.49s-7.53-14,.3-26C115,79.34,136.45,79,143,55.48c0,0,19.75.83,18.52,24-.09,1.83,4.32-5.2,3.48-13.68-.22-2.31,4.27,9.52,2.18,12.65,0,0,5.39,0,7.57.61a1.39,1.39,0,0,1,.9.85,43.8,43.8,0,0,0-.35,4.67l0,.08h0c0,.61,0,1.25,0,1.9h0v0l0,0c-1.74.8-5.89,3-7,5.58l.54.24c1.05-2.38,5-4.46,6.52-5.18,0,2.21.17,4.6.38,7.05-3.78-.24-7.07-.65-9.29,3.21-.82-.34-1.63-1.61-.22-8.28a2.25,2.25,0,0,0-.16-1.1,67.55,67.55,0,0,0-1.13,7.2,3.88,3.88,0,0,0,1.24,2.76c.84.73,2.64.87,4.09,3,.59.84-1.58,3.18-1.58,3.44s-.74,2.84,1.05.43l0,0h0l.58-1h.24s.42.88.7,1.53c.25,0,.44-.22.58-.75s-.63-1.25-1-1.55c.72-1.57.49-3.13-2.38-4.79a16.5,16.5,0,0,1,6.41.2,10.2,10.2,0,0,0,1.35.22,90.27,90.27,0,0,0,2.15,11.15c1.84,6.87.65,13.52-3.35,18.72a21.44,21.44,0,0,1-2.27,2.5l0,0a.32.32,0,0,0,0,.11c-5.06,4.76-12.54,7.35-21.48,7.35h-.39l.11.37c0,.12,3.09,10.45,3.13,15.85h-2.17C147.42,149.5,128.35,133.73,112.19,131.81Z"/><path class="cls-2" d="M162.64,137.49c1.21,1.11,10.78,12.7,12.64,17.28h-9.62c-1.18-4.54-8.26-13.6-10.07-15.87A35.93,35.93,0,0,0,162.64,137.49Z"/><path class="cls-2" d="M161.91,37.72c-.85-1.89-2.4-4.56-4.54-5.18-2.3-.68-8.51-5.34-18-13.5a17.61,17.61,0,0,1-2.64-5.15c-.08-.37-.4-1.38-.84-2.78-.9-2.82-2.76-8.71-2.54-9.48s1.25-.57,2.51-.38c.26,0,.5.08.71.09.68.26,3.13,5.82,4.3,8.49.64,1.43,1.1,2.48,1.32,2.87.17,1.72,6.48,10.59,6.55,10.65l.4-.43c-.64-.6-6.38-9.36-6.37-10.25.37-1.22-.71-4.74-3.33-10.73l-.24-.55a.65.65,0,0,1,.09-.37.45.45,0,0,1,.26-.22c3.07-.8,3.92.82,4.6,2.12a3.6,3.6,0,0,0,.68,1c.55.46,1.18,2.43,1.86,4.51,1.2,3.69,2.69,8.29,5.07,9.82a37.8,37.8,0,0,0,5.53,2.51c4.22,1.69,9,3.6,9.93,6.1l.55-.21c-1-2.74-5.93-4.7-10.26-6.44a37.11,37.11,0,0,1-5.43-2.46c-2.21-1.41-3.66-5.9-4.83-9.5-.11-.35-.22-.68-.33-1h0c0-.09,0-.3.08-.72a15.83,15.83,0,0,1,.3-2.14c.12-.12.76-.19,3.11.2,0,0,.17,0,.36.33,1.46,2.14,2.5,11.35,2.37,11.94l.56.19c.22-.59-.58-7.37-1.73-10.86a3.42,3.42,0,0,1,2.55,1.7c2.24,3.3,2.53,10.13,2.23,10.76l.45.38a2.66,2.66,0,0,0,.22-1.29c8.91,3.44,18.58,9.09,23.47,24.52C175,38.16,168.1,37.28,161.91,37.72Z"/><path class="cls-2" d="M174.47,140.58c-2.19-3.27-1.6-8-1.37-9.06a21.44,21.44,0,0,0,2.31-2.55c4.11-5.35,5.33-12.18,3.45-19.23a99,99,0,0,1-3-24.85,31.42,31.42,0,0,0,9.35,1.73c1.7,10.1,6.54,50.12-4.28,57.24C178,143.7,175.83,142.6,174.47,140.58Z"/><path class="cls-2" d="M154.89,139c1.24,1.55,8.91,11.24,10.18,15.8H154.54c0-5-2.48-13.68-3-15.64C152.65,139.12,153.78,139.06,154.89,139Z"/><path class="cls-2" d="M45.62,44.89c-8.75,3.57-16.48,6.58-21.9,2.14-.59-.49,2.68,5,2.93,5.06s-.92,1.12-4.34,1.57"/><path class="cls-2" d="M22.31,72.4a27.52,27.52,0,0,0,12.14,2.4s1,3.24-9.76,5.51c-2.48.52,7.78,4.89,7.78,4.89a5.13,5.13,0,0,1-3.55,1.34c2.43,7.31,39.84,15.95,49.57-7.31l3.49,1a30.76,30.76,0,0,0-3.18,2.56c-.11,2.66,2.82,2.12,2.77,2.46-1.37,8.65,2.05,21.72,25.83,44.22a35.38,35.38,0,0,0-2.86,6.74c-5.72-4.7-17.08-3.86-20.44-3.58-5.71-3.24-12.25-4.36-21.27-2.38l-.34.07.13.33c0,.09,3.64,9.22.72,14.5l.13.07A52.6,52.6,0,0,0,45,154.77"/><path class="cls-2" d="M135.48,152.26l2.42,2.51h-15c2.61-1.64,9.4-2.24,12.23-2.48Z"/><path class="cls-2" d="M83.25,143.69c.63,0,1.09.06,1.37.05,1,1.34,1.9,2.57,2.59,3.55,1.37,2,1.69,2.41,2.1,2.17s3.71-.15,6.84,0a49,49,0,0,1-4,5.28H45.9A53.92,53.92,0,0,1,83.25,143.69Z"/><path class="cls-2" d="M101.23,149.89c.06.81.23,3.48.31,4.88h-8.6a44.67,44.67,0,0,0,3.88-5.25C98.6,149.63,100.27,149.77,101.23,149.89Z"/><path class="cls-2" d="M116.4,148.12v0s.5-.34.47-.41c3.69-2.88,9.37-5,16.31-5.92,1.18-.15,2.3,1.06,2.72,1.59a4.59,4.59,0,0,1,1.17,2.33,32.18,32.18,0,0,1-4.85,1.33c-4.77,1.12-10.7,2.51-12.28,4.16l-.82.84,1.12-.36c3.91-1.27,14.47-4.33,16.44-3.35,1,.49,1.5,1.18,1.37,1.83s-.86,1.32-2.62,1.48l-.38,0c-5.19.45-11.15,1.21-13.12,3.07h-9.65A10.78,10.78,0,0,1,116.4,148.12Z"/><path class="cls-2" d="M84.6,132.88l19.9,3.47,0,.13.15.1c.09.08,9.43,6.92,11.5,10.92a11.35,11.35,0,0,0-4.45,7.27h-5.37c-1.5-1.73-3-3.41-4.33-5l-.18-.2v-.17l-.15,0C95.59,142.26,90.53,136.41,84.6,132.88Z"/><path class="cls-2" d="M89.15,148.9a21.34,21.34,0,0,1-1.46-2c-3.41-4.84-11-15.63-21.79-16.69,16.15-2.45,23.9,6.14,34.88,19C97.94,149,90.51,148.48,89.15,148.9Z"/><path class="cls-2" d="M161.91,37.72c-.85-1.89-2.4-4.56-4.54-5.18-2.3-.68-8.51-5.34-18-13.5a17.61,17.61,0,0,1-2.64-5.15c-.08-.37-.4-1.38-.84-2.78-.9-2.82-2.76-8.71-2.54-9.48s1.25-.57,2.51-.38c.26,0,.5.08.71.09.68.26,3.13,5.82,4.3,8.49.64,1.43,1.1,2.48,1.32,2.87.17,1.72,6.48,10.59,6.55,10.65l.4-.43c-.64-.6-6.38-9.36-6.37-10.25.37-1.22-.71-4.74-3.33-10.73l-.24-.55a.65.65,0,0,1,.09-.37.45.45,0,0,1,.26-.22c3.07-.8,3.92.82,4.6,2.12a3.6,3.6,0,0,0,.68,1c.55.46,1.18,2.43,1.86,4.51,1.2,3.69,2.69,8.29,5.07,9.82a37.8,37.8,0,0,0,5.53,2.51c4.22,1.69,9,3.6,9.93,6.1l.55-.21c-1-2.74-5.93-4.7-10.26-6.44a37.11,37.11,0,0,1-5.43-2.46c-2.21-1.41-3.66-5.9-4.83-9.5-.11-.35-.22-.68-.33-1h0c0-.09,0-.3.08-.72a15.83,15.83,0,0,1,.3-2.14c.12-.12.76-.19,3.11.2,0,0,.17,0,.36.33,1.46,2.14,2.5,11.35,2.37,11.94l.56.19c.22-.59-.58-7.37-1.73-10.86a3.42,3.42,0,0,1,2.55,1.7c2.24,3.3,2.53,10.13,2.23,10.76l.45.38a2.66,2.66,0,0,0,.22-1.29c8.91,3.44,18.58,9.09,23.47,24.52C175,38.16,168.1,37.28,161.91,37.72Z"/><path class="cls-2" d="M174.47,140.58c-2.19-3.27-1.6-8-1.37-9.06a21.44,21.44,0,0,0,2.31-2.55c4.11-5.35,5.33-12.18,3.45-19.23a99,99,0,0,1-3-24.85,31.42,31.42,0,0,0,9.35,1.73c1.7,10.1,6.54,50.12-4.28,57.24C178,143.7,175.83,142.6,174.47,140.58Z"/><path class="cls-2" d="M154.89,139c1.24,1.55,8.91,11.24,10.18,15.8H154.54c0-5-2.48-13.68-3-15.64C152.65,139.12,153.78,139.06,154.89,139Z"/><path class="cls-2" d="M162.64,137.49c1.21,1.11,10.78,12.7,12.64,17.28h-9.62c-1.18-4.54-8.26-13.6-10.07-15.87A35.93,35.93,0,0,0,162.64,137.49Z"/><path class="cls-2" d="M45.62,44.89c-8.75,3.57-16.48,6.58-21.9,2.14-.59-.49,2.68,5,2.93,5.06s-.74.91-3.42,1.41"/><path class="cls-2" d="M23.13,72.76a28.08,28.08,0,0,0,11.32,2s1,3.24-9.76,5.51c-2.48.52,7.78,4.89,7.78,4.89a5.13,5.13,0,0,1-3.55,1.34c2.43,7.31,39.84,15.95,49.57-7.31l3.49,1a30.76,30.76,0,0,0-3.18,2.56c-.11,2.66,2.82,2.12,2.77,2.46-1.37,8.65,2.05,21.72,25.83,44.22a35.38,35.38,0,0,0-2.86,6.74c-5.72-4.7-17.08-3.86-20.44-3.58-5.71-3.24-12.25-4.36-21.27-2.38l-.34.07.13.33c0,.09,3.64,9.22.72,14.5l.13.07A52.6,52.6,0,0,0,45,154.77"/><path class="cls-2" d="M108.12,130.13a2.84,2.84,0,0,0,.14.32c.57,1.06,1.86,1.71,3.86,2,7.49.89,15.6,4.77,22.55,9.17a2.62,2.62,0,0,0-1.56-.33c-7.05.92-12.76,3-16.51,5.89-2.12-3.91-10.21-10-11.47-10.91a35.26,35.26,0,0,1,2.72-6.35Z"/><path class="cls-2" d="M100.78,149.24c-2.84-.28-10.27-.76-11.63-.34a21.34,21.34,0,0,1-1.46-2c-3.41-4.84-11-15.63-21.79-16.69C82.05,127.81,89.8,136.4,100.78,149.24Z"/><path class="cls-2" d="M163.26,137.28a26.36,26.36,0,0,0,9.15-5.12c-.24,1.79-.38,5.45,1.31,8.32a8.11,8.11,0,0,0,6.68,3.93c-.08.1-.16.22-.25.35-1,1.32-2.69,3.75-7.58,4.32A124.29,124.29,0,0,0,163.26,137.28Z"/><path class="cls-2" d="M83.25,143.69c.63,0,1.09.06,1.37.05,1,1.34,1.9,2.57,2.59,3.55,1.37,2,1.69,2.41,2.1,2.17s3.71-.15,6.84,0a49,49,0,0,1-4,5.28H45.9A53.92,53.92,0,0,1,83.25,143.69Z"/><path class="cls-2" d="M101.23,149.89c.06.81.23,3.48.31,4.88h-8.6a44.67,44.67,0,0,0,3.88-5.25C98.6,149.63,100.27,149.77,101.23,149.89Z"/><path class="cls-2" d="M84.6,132.88l19.9,3.47,0,.13.15.1c.09.08,9.43,6.92,11.5,10.92a11.35,11.35,0,0,0-4.45,7.27h-5.37c-1.5-1.73-3-3.41-4.33-5l-.18-.2v-.17l-.15,0C95.59,142.26,90.53,136.41,84.6,132.88Z"/><path class="cls-2" d="M112.19,131.81l-.16,0c-.77-1.91-4.92-12-8.11-16.15,0,0,2.82-1,3.48-3.45.24-.87-4,2.74-7.41,1.61-7.12-2.36-17.82-16.23-10.68-26.21a37.17,37.17,0,0,0,7.61,1c2.69-.16-3.19,3.86-2.62,4,5.3.89,11.4-2.49,11.41-2.22.16,4.38,6.58,16.33,8.09,16.49s-7.53-14,.3-26C115,79.34,136.45,79,143,55.48c0,0,19.75.83,18.52,24-.09,1.83,4.32-5.2,3.48-13.68-.22-2.31,4.27,9.52,2.18,12.65,0,0,5.39,0,7.57.61a1.39,1.39,0,0,1,.9.85,43.8,43.8,0,0,0-.35,4.67l0,.08h0c0,.61,0,1.25,0,1.9h0v0l0,0c-1.74.8-5.89,3-7,5.58l.54.24c1.05-2.38,5-4.46,6.52-5.18,0,2.21.17,4.6.38,7.05-3.78-.24-7.07-.65-9.29,3.21-.82-.34-1.63-1.61-.22-8.28a2.25,2.25,0,0,0-.16-1.1,67.55,67.55,0,0,0-1.13,7.2,3.88,3.88,0,0,0,1.24,2.76c.84.73,2.64.87,4.09,3,.59.84-1.58,3.18-1.58,3.44s-.74,2.84,1.05.43l0,0h0l.58-1h.24s.42.88.7,1.53c.25,0,.44-.22.58-.75s-.63-1.25-1-1.55c.72-1.57.49-3.13-2.38-4.79a16.5,16.5,0,0,1,6.41.2,10.2,10.2,0,0,0,1.35.22,90.27,90.27,0,0,0,2.15,11.15c1.84,6.87.65,13.52-3.35,18.72a21.44,21.44,0,0,1-2.27,2.5l0,0a.32.32,0,0,0,0,.11c-5.06,4.76-12.54,7.35-21.48,7.35h-.39l.11.37c0,.12,3.09,10.45,3.13,15.85h-2.17C147.42,149.5,128.35,133.73,112.19,131.81Z"/><path class="cls-2" d="M138.64,150.3c.18-.93-.45-1.85-1.69-2.47-1.94-1-10.13,1.27-14.35,2.54a76.68,76.68,0,0,1,9.76-2.73c4.14-1,5.12-1.24,5.27-1.66.22-.63-.48-2-1.26-2.94a6.83,6.83,0,0,0-1.18-1.15c7.47,4.8,13.52,10.13,15.88,12.88H139.9a.84.84,0,0,0-.33-.69,19.72,19.72,0,0,0-3.82-1.86C137.35,152,138.45,151.3,138.64,150.3Z"/><path class="cls-2" d="M135.48,152.26l2.42,2.51h-15c2.61-1.64,9.4-2.24,12.23-2.48Z"/><path class="cls-2" d="M116.4,148.12v0s.5-.34.47-.41c3.69-2.88,9.37-5,16.31-5.92,1.18-.15,2.3,1.06,2.72,1.59a4.59,4.59,0,0,1,1.17,2.33,32.18,32.18,0,0,1-4.85,1.33c-4.77,1.12-10.7,2.51-12.28,4.16l-.82.84,1.12-.36c3.91-1.27,14.47-4.33,16.44-3.35,1,.49,1.5,1.18,1.37,1.83s-.86,1.32-2.62,1.48l-.38,0c-5.19.45-11.15,1.21-13.12,3.07h-9.65A10.78,10.78,0,0,1,116.4,148.12Z"/><path class="cls-2" d="M96.82,149.52a44.67,44.67,0,0,1-3.88,5.25h8.6c-.08-1.4-.25-4.07-.31-4.88C100.27,149.77,98.6,149.63,96.82,149.52Z"/><path class="cls-2" d="M116.13,147.5c-2.07-4-11.41-10.84-11.5-10.92l-.15-.1,0-.13-19.9-3.47c5.93,3.53,11,9.38,17,16.47l.15,0v.17l.18.2c1.38,1.62,2.83,3.3,4.33,5h5.37A11.35,11.35,0,0,1,116.13,147.5Z"/><path class="cls-2" d="M135.44,151.67c1.76-.16,2.51-.87,2.62-1.48s-.39-1.34-1.37-1.83c-2-1-12.53,2.08-16.44,3.35l-1.12.36.82-.84c1.58-1.65,7.51-3,12.28-4.16a32.18,32.18,0,0,0,4.85-1.33,4.59,4.59,0,0,0-1.17-2.33c-.42-.53-1.54-1.74-2.72-1.59-6.94.91-12.62,3-16.31,5.92,0,.07-.47.41-.47.41v0a10.78,10.78,0,0,0-4.11,6.65h9.65c2-1.86,7.93-2.62,13.12-3.07Z"/><path class="cls-2" d="M87.69,147a21.34,21.34,0,0,0,1.46,2c1.36-.42,8.79.06,11.63.34-11-12.84-18.73-21.43-34.88-19C76.67,131.32,84.28,142.11,87.69,147Z"/><path class="cls-2" d="M89.31,149.46c-.41.24-.73-.22-2.1-2.17-.69-1-1.56-2.21-2.59-3.55-.28,0-.74,0-1.37-.05A53.92,53.92,0,0,0,45.9,154.77H92.16a49,49,0,0,0,4-5.28C93,149.31,89.74,149.23,89.31,149.46Z"/><path class="cls-2" d="M181,42.29c-4.89-15.43-14.56-21.08-23.47-24.52a2.66,2.66,0,0,1-.22,1.29l-.45-.38c.3-.63,0-7.46-2.23-10.76A3.42,3.42,0,0,0,152,6.22c1.15,3.49,2,10.27,1.73,10.86l-.56-.19c.13-.59-.91-9.8-2.37-11.94-.19-.28-.32-.32-.36-.33-2.35-.39-3-.32-3.11-.2a15.83,15.83,0,0,0-.3,2.14c0,.42-.06.63-.08.72h0c.11.33.22.66.33,1,1.17,3.6,2.62,8.09,4.83,9.5a37.11,37.11,0,0,0,5.43,2.46c4.33,1.74,9.24,3.7,10.26,6.44l-.55.21c-.93-2.5-5.71-4.41-9.93-6.1a37.8,37.8,0,0,1-5.53-2.51c-2.38-1.53-3.87-6.13-5.07-9.82-.68-2.08-1.31-4.05-1.86-4.51a3.6,3.6,0,0,1-.68-1c-.68-1.3-1.53-2.92-4.6-2.12a.45.45,0,0,0-.26.22.65.65,0,0,0-.09.37l.24.55c2.62,6,3.7,9.51,3.33,10.73,0,.89,5.73,9.65,6.37,10.25l-.4.43c-.07-.06-6.38-8.93-6.55-10.65-.22-.39-.68-1.44-1.32-2.87-1.17-2.67-3.62-8.23-4.3-8.49-.21,0-.45-.05-.71-.09-1.26-.19-2.31-.29-2.51.38s1.64,6.66,2.54,9.48c.44,1.4.76,2.41.84,2.78A17.61,17.61,0,0,0,139.41,19c9.45,8.16,15.66,12.82,18,13.5,2.14.62,3.69,3.29,4.54,5.18C168.1,37.28,175,38.16,181,42.29Z"/><path class="cls-2" d="M116.6,147.13c3.75-2.87,9.46-5,16.51-5.89a2.62,2.62,0,0,1,1.56.33c-6.95-4.4-15.06-8.28-22.55-9.17-2-.24-3.29-.89-3.86-2a2.84,2.84,0,0,1-.14-.32l-.27-.26a35.26,35.26,0,0,0-2.72,6.35C106.39,137.15,114.48,143.22,116.6,147.13Z"/><path class="cls-2" d="M135.12,152.29c-2.83.24-9.62.84-12.23,2.48h15l-2.42-2.51Z"/><path class="cls-2" d="M151.5,139.13c.56,2,3,10.69,3,15.64h10.53c-1.27-4.56-8.94-14.25-10.18-15.8C153.78,139.06,152.65,139.12,151.5,139.13Z"/><path class="cls-2" d="M175.88,84.89a99,99,0,0,0,3,24.85c1.88,7.05.66,13.88-3.45,19.23a21.44,21.44,0,0,1-2.31,2.55c-.23,1-.82,5.79,1.37,9.06,1.36,2,3.54,3.12,6.48,3.28,10.82-7.12,6-47.14,4.28-57.24A31.42,31.42,0,0,1,175.88,84.89Z"/><path class="cls-2" d="M135.19,141.89a6.83,6.83,0,0,1,1.18,1.15c.78,1,1.48,2.31,1.26,2.94-.15.42-1.13.69-5.27,1.66a76.68,76.68,0,0,0-9.76,2.73c4.22-1.27,12.41-3.51,14.35-2.54,1.24.62,1.87,1.54,1.69,2.47s-1.29,1.72-2.89,1.92a19.72,19.72,0,0,1,3.82,1.86.84.84,0,0,1,.33.69h11.17C148.71,152,142.66,146.69,135.19,141.89Z"/><path class="cls-2" d="M173.72,140.48c-1.69-2.87-1.55-6.53-1.31-8.32a26.36,26.36,0,0,1-9.15,5.12,124.29,124.29,0,0,1,9.31,11.8c4.89-.57,6.63-3,7.58-4.32.09-.13.17-.25.25-.35A8.11,8.11,0,0,1,173.72,140.48Z"/><path class="cls-2" d="M150.71,138.55h.39c8.94,0,16.42-2.59,21.48-7.35a.32.32,0,0,1,0-.11l0,0a21.44,21.44,0,0,0,2.27-2.5c4-5.2,5.19-11.85,3.35-18.72a90.27,90.27,0,0,1-2.15-11.15,10.2,10.2,0,0,1-1.35-.22,16.5,16.5,0,0,0-6.41-.2c2.87,1.66,3.1,3.22,2.38,4.79.41.3,1.21.93,1,1.55s-.33.72-.58.75c-.28-.65-.7-1.53-.7-1.53h-.24l-.58,1h0l0,0c-1.79,2.41-1.05-.17-1.05-.43s2.17-2.6,1.58-3.44c-1.45-2.08-3.25-2.22-4.09-3a3.88,3.88,0,0,1-1.24-2.76,67.55,67.55,0,0,1,1.13-7.2,2.25,2.25,0,0,1,.16,1.1c-1.41,6.67-.6,7.94.22,8.28,2.22-3.86,5.51-3.45,9.29-3.21-.21-2.45-.35-4.84-.38-7.05-1.51.72-5.47,2.8-6.52,5.18l-.54-.24c1.15-2.62,5.3-4.78,7-5.58l0,0v0h0c0-.65,0-1.29,0-1.9h0l0-.08a43.8,43.8,0,0,1,.35-4.67,1.39,1.39,0,0,0-.9-.85c-2.18-.61-7.57-.61-7.57-.61,2.09-3.13-2.4-15-2.18-12.65.84,8.48-3.57,15.51-3.48,13.68,1.23-23.16-18.52-24-18.52-24C136.45,79,115,79.34,114.1,80.77c-7.83,12,1.2,26.15-.3,26s-7.93-12.11-8.09-16.49c0-.27-6.11,3.11-11.41,2.22-.57-.1,5.31-4.12,2.62-4a37.17,37.17,0,0,1-7.61-1c-7.14,10,3.56,23.85,10.68,26.21,3.42,1.13,7.65-2.48,7.41-1.61-.66,2.43-3.48,3.45-3.48,3.45,3.19,4.11,7.34,14.24,8.11,16.15l.16,0c16.16,1.92,35.23,17.69,39.59,23H154c0-5.4-3.1-15.73-3.13-15.85Z"/><path class="cls-2" d="M162.64,137.49a35.93,35.93,0,0,1-7,1.41c1.81,2.27,8.89,11.33,10.07,15.87h9.62C173.42,150.19,163.85,138.6,162.64,137.49Z"/><path class="cls-1" d="M93.65,44.89c.13-.37,1-.81,1.17-1.22"/><path class="cls-2" d="M135.19,141.89a6.83,6.83,0,0,1,1.18,1.15c.78,1,1.48,2.31,1.26,2.94-.15.42-1.13.69-5.27,1.66a76.68,76.68,0,0,0-9.76,2.73c4.22-1.27,12.41-3.51,14.35-2.54,1.24.62,1.87,1.54,1.69,2.47s-1.29,1.72-2.89,1.92a19.72,19.72,0,0,1,3.82,1.86.84.84,0,0,1,.33.69h11.17C148.71,152,142.66,146.69,135.19,141.89Z"/><path class="cls-2" d="M135.12,152.29c-2.83.24-9.62.84-12.23,2.48h15l-2.42-2.51Z"/><path class="cls-2" d="M150.71,138.55h.39c8.94,0,16.42-2.59,21.48-7.35a.32.32,0,0,1,0-.11l0,0a21.44,21.44,0,0,0,2.27-2.5c4-5.2,5.19-11.85,3.35-18.72a90.27,90.27,0,0,1-2.15-11.15,10.2,10.2,0,0,1-1.35-.22,16.5,16.5,0,0,0-6.41-.2c2.87,1.66,3.1,3.22,2.38,4.79.41.3,1.21.93,1,1.55s-.33.72-.58.75c-.28-.65-.7-1.53-.7-1.53h-.24l-.58,1h0l0,0c-1.79,2.41-1.05-.17-1.05-.43s2.17-2.6,1.58-3.44c-1.45-2.08-3.25-2.22-4.09-3a3.88,3.88,0,0,1-1.24-2.76,67.55,67.55,0,0,1,1.13-7.2,2.25,2.25,0,0,1,.16,1.1c-1.41,6.67-.6,7.94.22,8.28,2.22-3.86,5.51-3.45,9.29-3.21-.21-2.45-.35-4.84-.38-7.05-1.51.72-5.47,2.8-6.52,5.18l-.54-.24c1.15-2.62,5.3-4.78,7-5.58l0,0v0h0c0-.65,0-1.29,0-1.9h0l0-.08a43.8,43.8,0,0,1,.35-4.67,1.39,1.39,0,0,0-.9-.85c-2.18-.61-7.57-.61-7.57-.61,2.09-3.13-2.4-15-2.18-12.65.84,8.48-3.57,15.51-3.48,13.68,1.23-23.16-18.52-24-18.52-24C136.45,79,115,79.34,114.1,80.77c-7.83,12,1.2,26.15-.3,26s-7.93-12.11-8.09-16.49c0-.27-6.11,3.11-11.41,2.22-.57-.1,5.31-4.12,2.62-4a37.17,37.17,0,0,1-7.61-1c-7.14,10,3.56,23.85,10.68,26.21,3.42,1.13,7.65-2.48,7.41-1.61-.66,2.43-3.48,3.45-3.48,3.45,3.19,4.11,7.34,14.24,8.11,16.15l.16,0c16.16,1.92,35.23,17.69,39.59,23H154c0-5.4-3.1-15.73-3.13-15.85Z"/><path class="cls-2" d="M151.5,139.13c.56,2,3,10.69,3,15.64h10.53c-1.27-4.56-8.94-14.25-10.18-15.8C153.78,139.06,152.65,139.12,151.5,139.13Z"/><path class="cls-2" d="M135.44,151.67c1.76-.16,2.51-.87,2.62-1.48s-.39-1.34-1.37-1.83c-2-1-12.53,2.08-16.44,3.35l-1.12.36.82-.84c1.58-1.65,7.51-3,12.28-4.16a32.18,32.18,0,0,0,4.85-1.33,4.59,4.59,0,0,0-1.17-2.33c-.42-.53-1.54-1.74-2.72-1.59-6.94.91-12.62,3-16.31,5.92,0,.07-.47.41-.47.41v0a10.78,10.78,0,0,0-4.11,6.65h9.65c2-1.86,7.93-2.62,13.12-3.07Z"/><path class="cls-2" d="M89.31,149.46c-.41.24-.73-.22-2.1-2.17-.69-1-1.56-2.21-2.59-3.55-.28,0-.74,0-1.37-.05A53.92,53.92,0,0,0,45.9,154.77H92.16a49,49,0,0,0,4-5.28C93,149.31,89.74,149.23,89.31,149.46Z"/><path class="cls-2" d="M116.13,147.5c-2.07-4-11.41-10.84-11.5-10.92l-.15-.1,0-.13-19.9-3.47c5.93,3.53,11,9.38,17,16.47l.15,0v.17l.18.2c1.38,1.62,2.83,3.3,4.33,5h5.37A11.35,11.35,0,0,1,116.13,147.5Z"/><path class="cls-2" d="M96.82,149.52a44.67,44.67,0,0,1-3.88,5.25h8.6c-.08-1.4-.25-4.07-.31-4.88C100.27,149.77,98.6,149.63,96.82,149.52Z"/><path class="cls-2" d="M175.88,84.89a99,99,0,0,0,3,24.85c1.88,7.05.66,13.88-3.45,19.23a21.44,21.44,0,0,1-2.31,2.55c-.23,1-.82,5.79,1.37,9.06,1.36,2,3.54,3.12,6.48,3.28,10.82-7.12,6-47.14,4.28-57.24A31.42,31.42,0,0,1,175.88,84.89Z"/><path class="cls-2" d="M173.72,140.48c-1.69-2.87-1.55-6.53-1.31-8.32a26.36,26.36,0,0,1-9.15,5.12,124.29,124.29,0,0,1,9.31,11.8c4.89-.57,6.63-3,7.58-4.32.09-.13.17-.25.25-.35A8.11,8.11,0,0,1,173.72,140.48Z"/><path class="cls-2" d="M65.9,130.26c10.77,1.06,18.38,11.85,21.79,16.69a21.34,21.34,0,0,0,1.46,2c1.36-.42,8.79.06,11.63.34C89.8,136.4,82.05,127.81,65.9,130.26Z"/><path class="cls-2" d="M162.64,137.49a35.93,35.93,0,0,1-7,1.41c1.81,2.27,8.89,11.33,10.07,15.87h9.62C173.42,150.19,163.85,138.6,162.64,137.49Z"/><path class="cls-2" d="M157.49,17.77a2.66,2.66,0,0,1-.22,1.29l-.45-.38c.3-.63,0-7.46-2.23-10.76A3.42,3.42,0,0,0,152,6.22c1.15,3.49,2,10.27,1.73,10.86l-.56-.19c.13-.59-.91-9.8-2.37-11.94-.19-.28-.32-.32-.36-.33-2.35-.39-3-.32-3.11-.2a15.83,15.83,0,0,0-.3,2.14c0,.42-.06.63-.08.72h0c.11.33.22.66.33,1,1.17,3.6,2.62,8.09,4.83,9.5a37.11,37.11,0,0,0,5.43,2.46c4.33,1.74,9.24,3.7,10.26,6.44l-.55.21c-.93-2.5-5.71-4.41-9.93-6.1a37.8,37.8,0,0,1-5.53-2.51c-2.38-1.53-3.87-6.13-5.07-9.82-.68-2.08-1.31-4.05-1.86-4.51a3.6,3.6,0,0,1-.68-1c-.68-1.3-1.53-2.92-4.6-2.12a.45.45,0,0,0-.26.22.65.65,0,0,0-.09.37l.24.55c2.62,6,3.7,9.51,3.33,10.73,0,.89,5.73,9.65,6.37,10.25l-.4.43c-.07-.06-6.38-8.93-6.55-10.65-.22-.39-.68-1.44-1.32-2.87-1.17-2.67-3.62-8.23-4.3-8.49-.21,0-.45-.05-.71-.09-1.26-.19-2.31-.29-2.51.38s1.64,6.66,2.54,9.48c.44,1.4.76,2.41.84,2.78A17.61,17.61,0,0,0,139.41,19c9.45,8.16,15.66,12.82,18,13.5,2.14.62,3.69,3.29,4.54,5.18,6.19-.44,13.1.44,19.05,4.57C176.07,26.86,166.4,21.21,157.49,17.77Z"/><path class="cls-2" d="M116.6,147.13c3.75-2.87,9.46-5,16.51-5.89a2.62,2.62,0,0,1,1.56.33c-6.95-4.4-15.06-8.28-22.55-9.17-2-.24-3.29-.89-3.86-2a2.84,2.84,0,0,1-.14-.32l-.27-.26a35.26,35.26,0,0,0-2.72,6.35C106.39,137.15,114.48,143.22,116.6,147.13Z"/><path class="cls-2" d="M185.14,44.89h-.51l.2.07h.37Z"/><path class="cls-2" d="M186.94,45h-.41l0,0h-1.27l0,0h-.37A3.05,3.05,0,0,0,186.94,45Z"/><path class="cls-2" d="M186.94,45l.15-.06h-.53l0,.06Z"/><polygon class="cls-1" points="44.38 156 44.38 155.99 44.38 155.99 44.38 156"/><polygon class="cls-1" points="197.22 44.89 196.9 43.67 195.01 44.9 197.22 44.89"/><polygon class="cls-1" points="194.36 44.91 195.01 44.9 196.9 43.67 194.31 44.7 194.36 44.91"/><path class="cls-1" d="M187.09,44.89l-.15.06,6.4,0-.22-1.84.22,1.84h1l-.05-.21,2.59-1c-1-3.41-2.8-8.55-5.1-7.88,0,0-.93,5.24-3.18,7.88h0l-1.53,1.22Z"/><path class="cls-1" d="M184.83,45l-10.31,0L194,50.06l-.61-5.15-6.4,0A3.05,3.05,0,0,1,184.83,45Z"/><polygon class="cls-1" points="194.44 45.27 195.01 44.9 194.36 44.91 194.44 45.27"/><path class="cls-1" d="M198.92,46c-.33-.39.07.07-1.31.55,0,0-.14-.67-.39-1.67H195l-.57.37-.08-.36h-1l.61,5.15L174.52,45l10.31,0-.2-.07-1.87-1.22c-.33-.28-.67-.55-1-.81-4.93-16.34-15-22.18-24.25-25.71l0,.06a23.89,23.89,0,0,0-1.61-8.14c-1-2.31-2.38-3.45-4-3.44a7.3,7.3,0,0,0-.39-.83c-.27-.46-.55-.71-.86-.76-2.6-.44-3.51-.4-3.75.14a10.31,10.31,0,0,0-.3,1.83,6.43,6.43,0,0,0-1.28-2.51,3.58,3.58,0,0,1-.54-.85C144.06,1.4,143-.69,139.44.23a1,1,0,0,0-.62.5,1.15,1.15,0,0,0-.14.83c0,.05.06.15.26.62,2.19,5,3,7.7,3.28,9.12l-.77-1.71c-2.61-5.93-4-8.76-4.79-8.83L136,.67c-1.18-.18-2.8-.42-3.15.79-.26.88,1,5,2.53,9.83.42,1.33.76,2.38.84,2.73A17.75,17.75,0,0,0,139,19.49c6.64,5.73,15.18,12.73,18.18,13.61,1.85.54,3.25,2.9,4.08,4.68a52.8,52.8,0,0,0-16.65,4.43C121,23.68,103.3,35.12,94.82,43.67c-.14.41-1,.85-1.17,1.22a41,41,0,0,0-4.42,5.59,36.08,36.08,0,0,0-5.12-5.59l-1.5-1.22c-11.06-8.42-23.16-4.37-34,0l-3,1.22c-8.75,3.57-16.48,6.58-21.9,2.14-.59-.49,2.68,5,2.93,5.06s-.74.91-3.42,1.41c-9.09,1.62-18.59.52-23.06.24-2.26-.14,18.68,17.67,23,19a28.08,28.08,0,0,0,11.32,2s1,3.24-9.76,5.51c-2.48.52,7.78,4.89,7.78,4.89a5.13,5.13,0,0,1-3.55,1.34c2.43,7.31,39.84,15.95,49.57-7.31l3.49,1a30.76,30.76,0,0,0-3.18,2.56c-.11,2.66,2.82,2.12,2.77,2.46-1.37,8.65,2.05,21.72,25.83,44.22a35.38,35.38,0,0,0-2.86,6.74c-5.72-4.7-17.08-3.86-20.44-3.58-5.71-3.24-12.25-4.36-21.27-2.38l-.34.07.13.33c0,.09,3.64,9.22.72,14.5l.13.07A52.6,52.6,0,0,0,45,154.77h.92a53.92,53.92,0,0,1,37.35-11.08c.63,0,1.09.06,1.37.05,1,1.34,1.9,2.57,2.59,3.55,1.37,2,1.69,2.41,2.1,2.17s3.71-.15,6.84,0a49,49,0,0,1-4,5.28h.78a44.67,44.67,0,0,0,3.88-5.25c1.78.11,3.45.25,4.41.37.06.81.23,3.48.31,4.88h4.77c-1.5-1.73-3-3.41-4.33-5l-.18-.2v-.17l-.15,0c-6-7.09-11.11-12.94-17-16.47l10.38.47,9.52,3,0,.13.15.1c.09.08,9.43,6.92,11.5,10.92a11.35,11.35,0,0,0-4.45,7.27h.61a10.78,10.78,0,0,1,4.11-6.65v0s.5-.34.47-.41c3.69-2.88,9.37-5,16.31-5.92,1.18-.15,2.3,1.06,2.72,1.59a4.59,4.59,0,0,1,1.17,2.33,32.18,32.18,0,0,1-4.85,1.33c-4.77,1.12-10.7,2.51-12.28,4.16l-.82.84,1.12-.36c3.91-1.27,14.47-4.33,16.44-3.35,1,.49,1.5,1.18,1.37,1.83s-.86,1.32-2.62,1.48l-.38,0c-5.19.45-11.15,1.21-13.12,3.07h1c2.61-1.64,9.4-2.24,12.23-2.48l.36,0,2.42,2.51.41,0c0-.22-.78-1.12-1.05-1.36-.54-.52-.51-.75-1.51-1.15,1.6-.2,2.7-.92,2.89-1.92s-.45-1.85-1.69-2.47c-1.94-1-10.13,1.27-14.35,2.54a76.68,76.68,0,0,1,9.76-2.73c4.14-1,5.12-1.24,5.27-1.66.22-.63-.48-2-1.26-2.94a6.83,6.83,0,0,0-1.18-1.15c7.47,4.8,13.52,10.13,15.88,12.88h.71c-4.36-5.27-23.43-21-39.59-23l-.16,0c-.77-1.91-4.92-12-8.11-16.15,0,0,2.82-1,3.48-3.45.24-.87-4,2.74-7.41,1.61-7.12-2.36-17.82-16.23-10.68-26.21a37.17,37.17,0,0,0,7.61,1c2.69-.16-3.19,3.86-2.62,4,5.3.89,11.4-2.49,11.41-2.22.16,4.38,6.58,16.33,8.09,16.49s-7.53-14,.3-26C115,79.34,136.45,79,143,55.48c0,0,19.75.83,18.52,24-.09,1.83,4.32-5.2,3.48-13.68-.22-2.31,4.27,9.52,2.18,12.65,0,0,5.39,0,7.57.61a1.39,1.39,0,0,1,.9.85,43.8,43.8,0,0,0-.35,4.67l0,.08h0c0,.61,0,1.25,0,1.9h0v0l0,0c-1.74.8-5.89,3-7,5.58l.54.24c1.05-2.38,5-4.46,6.52-5.18,0,2.21.17,4.6.38,7.05-3.78-.24-7.07-.65-9.29,3.21-.82-.34-1.63-1.61-.22-8.28a2.25,2.25,0,0,0-.16-1.1,67.55,67.55,0,0,0-1.13,7.2,3.88,3.88,0,0,0,1.24,2.76c.84.73,2.64.87,4.09,3,.59.84-1.58,3.18-1.58,3.44s-.74,2.84,1.05.43l0,0h0l.58-1h.24s.42.88.7,1.53c.25,0,.44-.22.58-.75s-.63-1.25-1-1.55c.72-1.57.49-3.13-2.38-4.79a16.5,16.5,0,0,1,6.41.2,10.2,10.2,0,0,0,1.35.22,90.27,90.27,0,0,0,2.15,11.15c1.84,6.87.65,13.52-3.35,18.72a21.44,21.44,0,0,1-2.27,2.5l0,0a.32.32,0,0,0,0,.11c-5.06,4.76-12.54,7.35-21.48,7.35h-.39l.11.37c0,.12,3.09,10.45,3.13,15.85h.59c0-5-2.48-13.68-3-15.64,1.15,0,2.28-.07,3.39-.16,1.24,1.55,8.91,11.24,10.18,15.8h.59c-1.18-4.54-8.26-13.6-10.07-15.87a35.93,35.93,0,0,0,7-1.41c1.21,1.11,10.78,12.7,12.64,17.28,0,0,5.93-9.14,6-10.44,11.31-7.56,6.08-47.34,4.44-57.7l1.23,0c12.49-.21,15.09-18.58,11.24-22.43C197.75,63.74,207.45,56,198.92,46ZM100.78,149.24c-2.84-.28-10.27-.76-11.63-.34a21.34,21.34,0,0,1-1.46-2c-3.41-4.84-11-15.63-21.79-16.69C82.05,127.81,89.8,136.4,100.78,149.24Zm7.34-19.11a2.84,2.84,0,0,0,.14.32c.57,1.06,1.86,1.71,3.86,2,7.49.89,15.6,4.77,22.55,9.17a2.62,2.62,0,0,0-1.56-.33c-7.05.92-12.76,3-16.51,5.89-2.12-3.91-10.21-10-11.47-10.91a35.26,35.26,0,0,1,2.72-6.35Zm53.79-92.41c-.85-1.89-2.4-4.56-4.54-5.18-2.3-.68-8.51-5.34-18-13.5a17.61,17.61,0,0,1-2.64-5.15c-.08-.37-.4-1.38-.84-2.78-.9-2.82-2.76-8.71-2.54-9.48s1.25-.57,2.51-.38c.26,0,.5.08.71.09.68.26,3.13,5.82,4.3,8.49.64,1.43,1.1,2.48,1.32,2.87.17,1.72,6.48,10.59,6.55,10.65l.4-.43c-.64-.6-6.38-9.36-6.37-10.25.37-1.22-.71-4.74-3.33-10.73l-.24-.55a.65.65,0,0,1,.09-.37.45.45,0,0,1,.26-.22c3.07-.8,3.92.82,4.6,2.12a3.6,3.6,0,0,0,.68,1c.55.46,1.18,2.43,1.86,4.51,1.2,3.69,2.69,8.29,5.07,9.82a37.8,37.8,0,0,0,5.53,2.51c4.22,1.69,9,3.6,9.93,6.1l.55-.21c-1-2.74-5.93-4.7-10.26-6.44a37.11,37.11,0,0,1-5.43-2.46c-2.21-1.41-3.66-5.9-4.83-9.5-.11-.35-.22-.68-.33-1h0c0-.09,0-.3.08-.72a15.83,15.83,0,0,1,.3-2.14c.12-.12.76-.19,3.11.2,0,0,.17,0,.36.33,1.46,2.14,2.5,11.35,2.37,11.94l.56.19c.22-.59-.58-7.37-1.73-10.86a3.42,3.42,0,0,1,2.55,1.7c2.24,3.3,2.53,10.13,2.23,10.76l.45.38a2.66,2.66,0,0,0,.22-1.29c8.91,3.44,18.58,9.09,23.47,24.52C175,38.16,168.1,37.28,161.91,37.72Zm18.24,107c-1,1.32-2.69,3.75-7.58,4.32a124.29,124.29,0,0,0-9.31-11.8,26.36,26.36,0,0,0,9.15-5.12c-.24,1.79-.38,5.45,1.31,8.32a8.11,8.11,0,0,0,6.68,3.93C180.32,144.51,180.24,144.63,180.15,144.76Zm.8-.9c-2.94-.16-5.12-1.26-6.48-3.28-2.19-3.27-1.6-8-1.37-9.06a21.44,21.44,0,0,0,2.31-2.55c4.11-5.35,5.33-12.18,3.45-19.23a99,99,0,0,1-3-24.85,31.42,31.42,0,0,0,9.35,1.73C186.93,96.72,191.77,136.74,181,143.86Z"/></g></g></svg>