<svg xmlns="http://www.w3.org/2000/svg" viewBox="0 0 65.72 59.72"><defs><style>.cls-1{opacity:0.41;}</style></defs><g id="Calque_2" data-name="Calque 2"><g id="homepage"><path class="cls-1" d="M32.76,20.78,29.34,8.63a8.65,8.65,0,0,1-1.27,4.51L20.82,38.81l3.42,11.95a8.62,8.62,0,0,1,.93-3.66Z"/><path d="M29.34,8.63a8.63,8.63,0,0,0-17.21-.89L.47,48.21A8.72,8.72,0,0,0,0,51a8.63,8.63,0,0,0,17.24.5l3.58-12.71,7.25-25.67A8.65,8.65,0,0,0,29.34,8.63Z"/><path d="M52.43,4.62l1.36,4.67c0-.19,0-.38,0-.57A8.63,8.63,0,0,0,36.72,7l-4,13.77L25.17,47.1a8.62,8.62,0,0,0-.93,3.66,2.09,2.09,0,0,0,0,.25,8.63,8.63,0,0,0,17.16,1.32l3.68-13-2.16-8Z"/><path d="M64.86,47.35l.61,2.08-16.86,3-.09-.35a8.63,8.63,0,0,0,17.2-1A8.53,8.53,0,0,0,64.86,47.35Z"/><path class="cls-1" d="M57.09,42.47a8.62,8.62,0,0,1,7.77,4.88L53.79,9.29a8.56,8.56,0,0,1-1.46,4.26L45.07,39.28l3.45,12.78a7.77,7.77,0,0,1-.06-1A8.63,8.63,0,0,1,57.09,42.47Z"/><path d="M65.47,49.43l-.61-2.08a8.63,8.63,0,0,0-16.4,3.74,7.77,7.77,0,0,0,.06,1l.09.35Z"/><path class="cls-1" d="M65.47,49.43l-.61-2.08a8.63,8.63,0,0,0-16.4,3.74,7.77,7.77,0,0,0,.06,1l.09.35Z"/><path d="M53.79,9.29,52.43,4.62,42.91,31.29l2.16,8,7.26-25.73A8.56,8.56,0,0,0,53.79,9.29Z"/><path class="cls-1" d="M53.79,9.29,52.43,4.62,42.91,31.29l2.16,8,7.26-25.73A8.56,8.56,0,0,0,53.79,9.29Z"/></g></g></svg>