<svg xmlns="http://www.w3.org/2000/svg" viewBox="0 0 266.55 99.24"><defs><style>.cls-1,.cls-2{fill:#a9819a;stroke:#dbac4e;stroke-miterlimit:10;}.cls-1{stroke-width:0.53px;}.cls-2{stroke-width:0.58px;}.cls-3{fill:#89371a;}.cls-4{fill:#c24c29;}.cls-5{fill:#f6eae3;}</style></defs><g id="Calque_2" data-name="Calque 2"><g id="Calque_2-2" data-name="Calque 2"><path class="cls-1" d="M44.71,1.58,36.6,32.81l-8.47-.22L23.49,12.9,17.83,32.33,9.4,32.11,2.83.48,11.25.7l3.51,20L20.37.92l7,.18,4.47,20.13,4.7-19.87Z"/><path class="cls-1" d="M52.16,19.61a11.36,11.36,0,0,1,4.21.79v-.35c-.13-1.89-1.1-3.25-3.25-3.25-2,0-4.3,1.19-6,2.06l-2.33-4.69a20.88,20.88,0,0,1,10.31-2.85c5.27,0,8.42,2.67,8.69,8.16l.57,12.28-7.15.35L57,30.66a9,9,0,0,1-5.88,2.24c-3.6,0-7.06-2.19-7.06-6.49C44.09,21.8,48,19.61,52.16,19.61Zm1.53,4.12A2.38,2.38,0,0,0,51.1,26c0,1.45,1.37,2.06,2.73,2.06a2.57,2.57,0,0,0,2.8-2.32C56.63,24.35,55.05,23.73,53.69,23.73Z"/><path class="cls-1" d="M67.9,31.89,67.42.44,75,.31l.49,31.45Z"/><path class="cls-2" d="M80,32.72l-.61-31.4L87,1.14l.35,18.78L94,12l7.37-.13-7.9,8.86,9.3,11.54-8.6.17-6.66-8.55.17,8.68Z"/><path class="cls-1" d="M143.59,31.63l-7.15.13-3.69-10.62h0l-3.38,10.75-7.15.13-7.54-20.31,8-.13,3.69,11.32h0l3.51-11.45,5.49-.09,3.86,11.32h0l3.2-11.49,7.85-.14Z"/><path class="cls-1" d="M152.3,31.67l.49-20.44,7.58.18-.48,20.44ZM156.73.26a4.24,4.24,0,0,1,4.17,4.26,4.19,4.19,0,0,1-8.38,0A4.25,4.25,0,0,1,156.73.26Z"/><path class="cls-1" d="M177.52,17.77l-4-.18-.44,14.7-7.63-.22.39-14.66L163,17.33l.17-5.75,2.9.09.17-6.62,7.63.22-.17,6.57,4,.18Z"/><path class="cls-1" d="M194.05,32.59l-.48-12.37c0-1.58-.83-2.81-2.59-2.81a2.64,2.64,0,0,0-2.59,1.85,6.76,6.76,0,0,0-.13,1.88l.44,11.63-7.59.3-1.18-31.4,7.59-.31.44,12.5,0,.05a9.6,9.6,0,0,1,6.27-2.33c4.08,0,6.62,2.24,6.76,6.93l.52,13.78Z"/><path class="cls-3" d="M63,85a37.93,37.93,0,0,1,.87-7.87,2.2,2.2,0,0,0-1.07-.3c-1.74,0-2.88,1.57-2.88,6.77V98.89A179.85,179.85,0,0,1,37.56,98c.11-8.58.16-12.87.27-21.46A3.26,3.26,0,0,0,36.42,76c-1.74-.17-2.88,1.2-2.88,6.37,0,6.07,0,9.11,0,15.18a143.57,143.57,0,0,1-22.7-4.19c.27-6.47.4-9.7.67-16.17a55.67,55.67,0,0,0-2-18.09,20.63,20.63,0,0,1,11.78-.94c7.23,1.3,11.58,5.09,11.32,11.93l1.34.15c1.94-6,7.09-9.51,14.66-9.27s10.57,4.64,10.91,10.43l1.34,0c1.4-6.28,6.56-10.47,13.85-11,7.77-.55,12,4.11,11.18,12.6-.21,2.3-.32,3.45-.53,5.75-.2,1.94.8,2.51,2.27,2.35A5.52,5.52,0,0,0,90,80.16a13.15,13.15,0,0,1,.87,4.68c0,7.22-6.09,13.78-14.86,14.36S63,94.89,63,85Z"/><path class="cls-3" d="M94.72,83.87c.21-2.41.32-3.62.54-6a37.1,37.1,0,0,0-2.08-15.75A23.28,23.28,0,0,1,104.9,57c8.57-1.23,12.92,3,12.92,13a32.33,32.33,0,0,1-.87,8.07,2,2,0,0,0,1.07.17c1.74-.27,3.14-2.69,3-8.61-.11-5.11-.16-7.67-.27-12.78a32.3,32.3,0,0,1,11.65-4.17c7.7-1.27,11.25,1.17,12.72,6a11.39,11.39,0,0,1-2.34,3.86c-.14,3.19-.21,4.79-.34,8-.07,2,.8,2.49,2.28,2.26a5.85,5.85,0,0,0,2.41-1,13.13,13.13,0,0,1,.87,4.7c0,7.32-6.1,14.15-15.06,15.55-7,1.1-11.39-1.71-10.45-8.87l-1.34.21c-2.61,6.75-7.76,11.67-14.39,12.57C98.13,97.13,94,92.39,94.72,83.87Z"/><path class="cls-3" d="M151.15,78.63a9.79,9.79,0,0,1,2.41-6.74c4.28,3.4,11.51,4.1,14.66,3.7,1.07-.13,2-.45,2-1.19,0-.54-.81-.58-2.41-.78-2.47-.36-3.7-.54-6.16-.87-7.16-1-9.69-4.85-9.64-9.91.1-10.46,11.93-15.34,20.75-16.23,6.24-.63,12.45-.34,16.34-1a14.91,14.91,0,0,1,1.4,6.33c0,4.07-1.87,7.64-6.76,8.08-3.41.31-6.63-1-10.58-3a2.3,2.3,0,0,0-.67,1.77c0,1,.94,1.57,3,1.88,2.46.37,3.69.57,6.16,1,6.09,1,9.58,4.1,9.57,9.92,0,10.51-12.26,14.37-20.69,15.14C158,87.8,151.15,85.15,151.15,78.63Z"/><path class="cls-3" d="M192.38,39.35c0-6.38,3.55-9.4,10-9.64,3.08-.11,7.5.82,11.59.87a17.65,17.65,0,0,0,4.61-.72,13.45,13.45,0,0,1,.94,5.22c0,5.05-1.87,6.65-6.42,6.6-1.14,0-3.69-.24-7.5-.16-5.16.11-10.18,1.56-12.52,3.21A24.09,24.09,0,0,1,192.38,39.35Zm2.81,30.29c.22-2.37.32-3.56.54-5.93.53-6.07-1-11.49-2-15.43,2.95-2.56,7.5-4.1,12.52-4.19,8.23-.15,13.12,4.29,12.45,12.66l-.6,7.35c-.14,2,.6,2.61,2.07,2.68a4.91,4.91,0,0,0,2.41-.55,16.46,16.46,0,0,1,.87,5c0,7.44-6.09,13-15.33,13C199.41,84.18,194.32,79.53,195.19,69.64Z"/><path class="cls-3" d="M226.59,65.75c-.13-12.62,11.31-20.56,23.29-17.86,4.14.93,10.91,3.8,14.79,4.52A22.41,22.41,0,0,1,266.08,60c0,4.89-2.34,7.25-7.1,5.94-3.21-.88-6.22-3.4-9.77-7.3a6.18,6.18,0,0,0-.8,3.55c0,3.91,2.74,7.48,8.57,9a14.48,14.48,0,0,0,8.16-.19,19.87,19.87,0,0,1,1.41,7c0,8.14-5.84,12.46-18.28,10C237.26,85.81,226.7,78,226.59,65.75Z"/><path class="cls-4" d="M58.14,81.42A37.59,37.59,0,0,1,59,73.58a2.07,2.07,0,0,0-1.07-.32c-1.74,0-2.88,1.51-2.88,6.7V95.22a171.13,171.13,0,0,1-22.35-1.43c.1-8.58.16-12.86.26-21.43a3.39,3.39,0,0,0-1.4-.56c-1.74-.22-2.88,1.12-2.88,6.29V93.25A140.12,140.12,0,0,1,6,88.39c.26-6.45.4-9.68.67-16.13a56.53,56.53,0,0,0-2-18.14,20.7,20.7,0,0,1,11.78-.57C23.67,55.07,28,59,27.75,65.8l1.34.18c1.94-5.94,7.1-9.31,14.66-8.9s10.58,4.86,10.91,10.65H56C57.41,61.49,62.56,57.41,69.86,57c7.76-.42,12,4.27,11.18,12.75-.22,2.29-.33,3.44-.54,5.73-.2,1.94.8,2.52,2.28,2.38A5.48,5.48,0,0,0,85.19,77a13.19,13.19,0,0,1,.87,4.68c0,7.22-6.09,13.7-14.86,14.15S58.14,91.29,58.14,81.42Z"/><path class="cls-4" d="M89.86,80.74c.22-2.41.33-3.62.54-6A37,37,0,0,0,88.33,59,23.13,23.13,0,0,1,100,54c8.57-1.16,12.92,3.05,12.92,13a32.14,32.14,0,0,1-.87,8.06,2,2,0,0,0,1.07.18c1.74-.26,3.15-2.68,3-8.59-.1-5.11-.16-7.66-.26-12.77a32.35,32.35,0,0,1,11.64-4.15c7.7-1.27,11.25,1.16,12.72,6a11.41,11.41,0,0,1-2.34,3.87c-.13,3.19-.2,4.78-.33,8-.07,2,.8,2.49,2.27,2.25a5.83,5.83,0,0,0,2.41-1.05,13.12,13.12,0,0,1,.87,4.69c0,7.31-6.09,14.17-15.06,15.57-7,1.1-11.38-1.72-10.44-8.87l-1.34.2C113.7,87.15,108.54,92,101.92,92.9,93.28,94,89.13,89.23,89.86,80.74Z"/><path class="cls-4" d="M146.29,75.64a9.83,9.83,0,0,1,2.41-6.75c4.29,3.37,11.52,4,14.66,3.59,1.07-.15,2-.47,2-1.21,0-.54-.8-.57-2.41-.76-2.46-.34-3.69-.5-6.16-.82-7.16-.91-9.69-4.78-9.64-9.83.11-10.46,11.94-15.4,20.76-16.38,6.24-.7,12.45-.49,16.33-1.26a14.75,14.75,0,0,1,1.41,6.3c0,4.06-1.88,7.66-6.76,8.17-3.42.36-6.63-.89-10.58-2.87a2.27,2.27,0,0,0-.67,1.77c0,.94.94,1.56,3,1.84,2.46.35,3.7.53,6.16.9,6.09,1,9.59,4,9.57,9.77,0,10.51-12.21,14.53-20.68,15.4C153.14,84.78,146.29,82.15,146.29,75.64Z"/><path class="cls-4" d="M187.53,36c0-6.37,3.54-9.44,10-9.8,3.08-.17,7.5.68,11.58.63A18,18,0,0,0,213.7,26a13.27,13.27,0,0,1,.94,5.19c0,5.05-1.88,6.69-6.43,6.74-1.14,0-3.68-.16-7.5,0-5.15.22-10.17,1.75-12.52,3.43A23.76,23.76,0,0,1,187.53,36Zm2.81,30.22c.21-2.38.32-3.57.53-5.94.54-6.08-1-11.46-2-15.38,2.95-2.61,7.5-4.22,12.52-4.41,8.24-.31,13.12,4,12.45,12.38l-.6,7.35c-.13,2,.6,2.6,2.08,2.63a4.94,4.94,0,0,0,2.41-.61,16.63,16.63,0,0,1,.87,5c0,7.44-6.1,13.09-15.33,13.29C194.55,80.63,189.47,76.07,190.34,66.18Z"/><path class="cls-4" d="M221.73,61.63C221.64,49,232.93,40.81,245,43.13c4.16.8,10.92,3.44,14.8,4a22.19,22.19,0,0,1,1.4,7.56c0,4.89-2.34,7.32-7.09,6.18-3.21-.77-6.23-3.19-9.77-7a6.18,6.18,0,0,0-.81,3.56c0,3.91,2.75,7.39,8.57,8.72a14.61,14.61,0,0,0,8.17-.46,19.59,19.59,0,0,1,1.4,6.94c0,8.13-5.84,12.67-18.27,10.57C232.44,81.41,221.81,73.78,221.73,61.63Z"/><path class="cls-5" d="M53.49,75.9a36.53,36.53,0,0,1,.87-7.81,2.27,2.27,0,0,0-1.07-.34c-1.75,0-2.88,1.45-2.88,6.64V89.63A162.1,162.1,0,0,1,28.05,87.7c.11-8.56.16-12.84.27-21.4a3.56,3.56,0,0,0-1.41-.6c-1.74-.25-2.88,1-2.88,6.21V87.06A137,137,0,0,1,1.34,81.54c.27-6.44.4-9.66.67-16.1A57,57,0,0,0,0,47.27a20.74,20.74,0,0,1,11.78-.21C19,48.8,23.36,52.8,23.1,59.61l1.33.22c1.95-5.89,7.1-9.12,14.66-8.53S49.67,56.37,50,62.16l1.33,0C52.75,56,57.9,52,65.2,51.71c7.77-.3,12,4.44,11.18,12.89-.21,2.29-.32,3.44-.54,5.72-.2,1.94.81,2.53,2.28,2.41a5.43,5.43,0,0,0,2.41-.86,13.28,13.28,0,0,1,.87,4.69c0,7.21-6.09,13.63-14.86,13.94S53.49,85.76,53.49,75.9Z"/><path class="cls-5" d="M85.21,75.68c.21-2.4.32-3.61.53-6a37,37,0,0,0-2.07-15.75,23.06,23.06,0,0,1,11.71-4.85C104,48,108.3,52.2,108.3,62.18a31.65,31.65,0,0,1-.87,8.05,2,2,0,0,0,1.07.18c1.75-.25,3.15-2.66,3-8.57-.11-5.1-.16-7.65-.27-12.75A32.36,32.36,0,0,1,122.9,45c7.7-1.27,11.24,1.14,12.72,6a11.39,11.39,0,0,1-2.35,3.87c-.13,3.18-.2,4.77-.33,8-.07,2,.8,2.48,2.28,2.24A5.78,5.78,0,0,0,137.63,64a13.12,13.12,0,0,1,.87,4.69c0,7.3-6.1,14.18-15.07,15.57-7,1.1-11.38-1.74-10.44-8.88l-1.34.2c-2.61,6.72-7.76,11.59-14.39,12.4C88.62,89,84.47,84.16,85.21,75.68Z"/><path class="cls-5" d="M141.64,70.76A9.85,9.85,0,0,1,144.05,64c4.28,3.34,11.51,3.93,14.66,3.49,1.07-.16,2-.49,2-1.23,0-.54-.81-.56-2.41-.74-2.47-.32-3.7-.47-6.16-.77C145,63.9,142.45,60,142.51,55c.11-10.45,11.94-15.44,20.75-16.5,6.24-.76,12.45-.63,16.33-1.46A14.63,14.63,0,0,1,181,43.31c0,4.06-1.87,7.68-6.76,8.25-3.42.4-6.63-.81-10.58-2.75a2.33,2.33,0,0,0-.67,1.78c0,.94.94,1.55,3,1.81,2.46.32,3.69.48,6.15.83,6.1.88,9.6,3.84,9.58,9.63-.05,10.51-12.18,14.67-20.69,15.62C148.48,79.88,141.64,77.27,141.64,70.76Z"/><path class="cls-5" d="M182.87,30.74c0-6.37,3.55-9.49,10-9.95,3.08-.23,7.5.54,11.58.41a18.38,18.38,0,0,0,4.62-.91,13.05,13.05,0,0,1,.94,5.16c0,5-1.87,6.72-6.43,6.87-1.13,0-3.68-.09-7.49.13-5.16.31-10.18,1.92-12.52,3.64A23.82,23.82,0,0,1,182.87,30.74Zm2.81,30.14c.21-2.38.32-3.57.54-5.94.53-6.08-1-11.43-2-15.33,2.94-2.65,7.5-4.33,12.52-4.61,8.23-.47,13.12,3.74,12.45,12.11-.24,3-.36,4.42-.61,7.36-.13,2,.61,2.58,2.08,2.59a5.07,5.07,0,0,0,2.41-.67,16.12,16.12,0,0,1,.87,4.92c0,7.43-6.09,13.22-15.33,13.6C189.9,75.26,184.81,70.77,185.68,60.88Z"/><path class="cls-5" d="M217.07,55.73c0-12.62,11.11-21,23.3-19.09,4.16.67,10.91,3.11,14.79,3.57a21.77,21.77,0,0,1,1.41,7.5c0,4.89-2.35,7.4-7.1,6.41-3.21-.67-6.22-3-9.77-6.68a6.36,6.36,0,0,0-.8,3.59c0,3.9,2.74,7.3,8.56,8.45a14.75,14.75,0,0,0,8.17-.72A19,19,0,0,1,257,65.65c0,8.12-5.86,12.86-18.28,11.13C227.81,75.25,217.12,67.82,217.07,55.73Z"/></g></g></svg>