<svg xmlns="http://www.w3.org/2000/svg" viewBox="0 0 375 189.43"><defs><style>.cls-1{fill:#323c40;}.cls-2{fill:#757d78;stroke:#eedec9;stroke-miterlimit:10;stroke-width:0.54px;}.cls-3{fill:#3f2c20;}.cls-4{fill:#895432;}.cls-5{fill:#eedec9;}</style></defs><g id="Calque_2" data-name="Calque 2"><g id="Calque_1-2" data-name="Calque 1"><path class="cls-1" d="M375,11.22c-125-38.86-250,38.86-375,0v167c125,38.87,250-38.86,375,0Z"/><path class="cls-2" d="M95.15,51.42,86.89,83.23,78.27,83,73.53,63,67.77,82.74l-8.58-.23L52.49,50.3l8.58.23,3.57,20.32,5.72-20.1,7.15.18,4.55,20.5L86.84,51.2Z"/><path class="cls-2" d="M102.73,69.78a11.52,11.52,0,0,1,4.29.81v-.36c-.13-1.92-1.11-3.31-3.3-3.31-2,0-4.38,1.21-6.17,2.1l-2.37-4.78a21.24,21.24,0,0,1,10.5-2.9c5.36,0,8.58,2.72,8.85,8.31l.58,12.5-7.29.36L107.69,81a9.15,9.15,0,0,1-6,2.28c-3.67,0-7.2-2.24-7.2-6.61C94.51,72,98.53,69.78,102.73,69.78ZM104.3,74a2.42,2.42,0,0,0-2.64,2.32c0,1.48,1.39,2.1,2.77,2.1A2.62,2.62,0,0,0,107.29,76C107.29,74.61,105.68,74,104.3,74Z"/><path class="cls-2" d="M118.76,82.29l-.49-32,7.73-.13.49,32Z"/><path class="cls-2" d="M131.13,83.14l-.62-32,7.72-.18.36,19.12,6.7-8,7.51-.13-8,9,9.47,11.75-8.76.18-6.79-8.71.18,8.84Z"/><path class="cls-2" d="M195.85,82l-7.28.13-3.76-10.8h0l-3.44,10.94-7.28.13-7.69-20.68,8.18-.13,3.75,11.52h.05l3.57-11.66,5.58-.09,3.93,11.53h.05l3.26-11.71,8-.13Z"/><path class="cls-2" d="M204.72,82.07l.49-20.82,7.73.18-.49,20.81Zm4.52-32a4.33,4.33,0,0,1,4.24,4.33,4.27,4.27,0,0,1-8.53,0A4.31,4.31,0,0,1,209.24,50.08Z"/><path class="cls-2" d="M230.4,67.9l-4.06-.17-.45,15-7.77-.22.4-14.92-3-.09.18-5.85,2.95.09.18-6.75,7.77.22-.18,6.7,4.07.18Z"/><path class="cls-2" d="M247.24,83l-.49-12.59c0-1.61-.85-2.86-2.64-2.86a2.68,2.68,0,0,0-2.63,1.87,6.74,6.74,0,0,0-.14,1.93l.45,11.83-7.73.32-1.2-32,7.72-.31L241,63.93l.05,0a9.77,9.77,0,0,1,6.38-2.36c4.16,0,6.75,2.28,6.88,7l.54,14Z"/><path class="cls-3" d="M144.77,138.59c.77.82.54,1.77.16,3-1.7,5.25-6.63,11.92-14.19,12.53-5.62.47-10.17-2.46-10.17-10,0-6.6,3.55-12.35,3.55-15.09,0-2-1.7-2.85-3.93-2.73-3.78.18-8.94,3.24-10.18,10.14l-1.15,6.44c1.6,0,2.4,0,4,0a1,1,0,0,1,1.08,1.27c-.64,3.68-1,5.52-1.62,9.2-.15.84-.77,1.06-1.54,1.22a20.3,20.3,0,0,1-4.24.36c-7.7-.13-9.86-4.1-9.86-8.94,0-6.87,4.08-13.69,4.08-16.56,0-2.05-1.69-3-3.93-3.14-3.77-.23-9.24,1.93-10.17,7-.62,3.27-.92,4.9-1.54,8.17,1.82.23,2.73.34,4.55.53a1.13,1.13,0,0,1,1.08,1.39l-1.55,8.51A1.35,1.35,0,0,1,87.66,153a133.79,133.79,0,0,1-21.19-3.91,1.34,1.34,0,0,1-1.08-1.55c.62-3.29.92-4.94,1.54-8.23a1.16,1.16,0,0,1,1.47-.92c1.84.44,2.77.65,4.62,1,1-4.48,1.43-6.73,2.39-11.24.46-2.32.08-4.49-1.93-4.89-2.39-.48-3.93,2-5.39,5.27-.23.55-.77,1.09-1.85.15-2.28-2.11-3.42-3.19-5.71-5.39a1.86,1.86,0,0,1-.61-2.35c2.39-6.26,9-10.45,17.18-9,4.94.86,9,3.57,9,8.62a17.16,17.16,0,0,1-.77,4.88l.85.48c3.54-8.32,9.48-11.53,16.65-11.35,5.24.13,8.32,3.45,8.94,8.44h.15c3.54-5.89,8.32-8.65,14.26-9.09,6.32-.48,10.09,3.25,10.09,9.2,0,5-4.39,12.39-4.39,16.58,0,1.44.54,2.31,1.93,2.18,2.31-.22,3.77-4.11,4.85-7.66a1,1,0,0,1,1.85-.52C142.23,135.65,143.07,136.64,144.77,138.59Z"/><path class="cls-3" d="M203.05,128c.93.47.93,1.08.62,2.14-2.39,7.59-9,15-17.19,16.36-4.93.85-9-.75-9-5.91a20.36,20.36,0,0,1,.77-5.21l-1,.17c-3.54,9.31-9.25,14-16.26,15.05-6.32,1-10.09-2.74-10.09-8.7,0-5,4.39-12.65,4.39-16.86,0-1.45-.54-2.28-1.93-2.08-2.31.34-3.78,4.29-4.85,7.88a1.06,1.06,0,0,1-1.85.55c-1.7-2-2.55-2.92-4.24-4.88-.77-.82-.54-1.77-.16-3,1.7-5.24,6.63-11.89,14.18-13.07,5.63-.88,10.18,1.48,10.18,9.07,0,6.68-3.55,12.86-3.55,15.62,0,2.07,1.7,2.72,3.93,2.35,3.78-.62,9-4.29,9.94-9.68l1.55-8.81-4.63.81c-.54.1-1.23-.09-1.08-1.11.62-3.65.93-5.47,1.54-9.11a2,2,0,0,1,1.55-1.59c8.5-1.52,12.76-2.32,21.26-3.83.78-.14,1.24.32,1.09,1.12l-1.55,9.16a1.94,1.94,0,0,1-1.46,1.57l-4.63.82-2.15,12.42c-.47,2.55-.31,4.68,1.69,4.33,2.39-.42,3.93-3.62,5.4-7.58.23-.66.77-1.45,1.85-.94Z"/><path class="cls-3" d="M239,114c-.47.11-.62,0-.77-.25-2.32-3.76-5.71-5.53-11-4.87-3.93.5-5.7,1.77-5.7,3.48,0,2.18,3.49,2.29,7.63,2.59,6.29.46,14.26,1.48,14.26,9.6,0,9.22-9.56,14.58-20,15.93-9.4,1.21-15-.56-17.34-2.13-.31-.18-.39-.4-.31-.95.71-4.15,1.06-6.22,1.77-10.36a.9.9,0,0,1,.62-.79l2.62-1.27c.46-.23.62-.17.85.18,2.54,3.63,6.78,5.15,13,4.35,3.16-.4,5.86-1.32,5.86-3.35s-3.09-2.38-6.94-2.49c-6.38-.18-14.95,0-14.95-8.81,0-8,7.25-15,19.19-16.47,7.32-.93,13.64.78,16.65,3,.31.21.38.44.31,1l-1.7,9.73a.92.92,0,0,1-.62.75Z"/><path class="cls-3" d="M276.67,123.82c.77,1,.54,1.93.15,3.16-1.69,5-6.55,10.9-14.64,10.85-9.32-.07-12.64-6.54-10.48-15.79,1.23-5.34,1.85-8,3.08-13.33-2.43.07-3.65.13-6.09.27-1.07.06-1.31-.31-1.15-1.26.61-3.63.92-5.45,1.54-9.08a1.46,1.46,0,0,1,1.46-1.41c6.66-.35,10-.42,16.65-.28,1.16,0,1.62.83,1.39,1.92-1.79,8.08-2.68,12.13-4.47,20.23-.7,3.13-1,6.25,1.61,6.31,2.32,0,3.78-3.74,4.86-7.23.23-.93,1.23-1,1.85-.22C274.13,120.28,275,121.45,276.67,123.82Zm-13-30.44c-4,0-7.17-2.73-7.17-6.73A8.37,8.37,0,0,1,265,78.48a7,7,0,0,1,7.16,7C272.12,90.13,268.11,93.39,263.65,93.38Z"/><path class="cls-3" d="M314.52,141a1.08,1.08,0,0,1-.62.67c-2.54.83-7.7,1.62-14.8.15-10.68-2.21-19.4-10.59-19.42-21.94,0-12.52,10.54-22.46,23.2-19.42a29.65,29.65,0,0,1,15.57,9.84,1.35,1.35,0,0,1,.3,1.06c-.67,3.6-1,5.4-1.69,9-.08.6-.39.81-1,.76-1.42-.1-2.13-.14-3.55-.21a1,1,0,0,1-1-.78,12,12,0,0,0-9.09-7.93c-4.63-1.09-9.87,1.4-9.87,8,0,4.42,3.47,8.68,8.56,9.86,4.54,1,8.09-.13,10.32-2.45a.77.77,0,0,1,1.16-.12c1.42,1,2.13,1.53,3.55,2.59a1,1,0,0,1,.46,1C315.76,135,315.35,137,314.52,141Z"/><path class="cls-4" d="M140.54,133.65c.77.83.54,1.77.16,3-1.7,5.24-6.63,11.85-14.19,12.37-5.62.38-10.17-2.61-10.17-10.12,0-6.6,3.55-12.29,3.55-15,0-2-1.7-2.87-3.93-2.8-3.78.13-8.94,3.09-10.18,10l-1.15,6.41c1.6,0,2.4,0,4,.05a1,1,0,0,1,1.08,1.29c-.64,3.66-1,5.5-1.61,9.16-.16.83-.78,1.05-1.55,1.19a20.26,20.26,0,0,1-4.23.27c-7.71-.27-9.87-4.3-9.87-9.13,0-6.87,4.09-13.59,4.09-16.46,0-2-1.7-3-3.94-3.22-3.77-.31-9.24,1.72-10.17,6.7-.61,3.26-.92,4.88-1.54,8.13,1.82.28,2.73.41,4.55.64a1.16,1.16,0,0,1,1.08,1.41c-.62,3.39-.93,5.09-1.54,8.47a1.33,1.33,0,0,1-1.55,1.07,131.44,131.44,0,0,1-21.19-4.48A1.38,1.38,0,0,1,61.16,141c.62-3.26.93-4.9,1.54-8.17a1.12,1.12,0,0,1,1.47-.87c1.85.49,2.77.73,4.62,1.16,1-4.45,1.43-6.69,2.39-11.17.46-2.3.08-4.47-1.93-4.93-2.39-.55-3.93,1.9-5.39,5.11-.23.54-.77,1.07-1.85.09-2.28-2.18-3.42-3.29-5.7-5.56a1.89,1.89,0,0,1-.62-2.37c2.39-6.17,9-10.15,17.18-8.51,4.94,1,9,3.8,9,8.85a16.92,16.92,0,0,1-.77,4.85l.85.5c3.55-8.22,9.48-11.29,16.65-11,5.24.24,8.32,3.61,8.94,8.61h.15c3.55-5.82,8.32-8.49,14.26-8.86,6.32-.38,10.09,3.39,10.09,9.33,0,5-4.39,12.33-4.39,16.51,0,1.45.54,2.32,1.93,2.21,2.31-.19,3.77-4.07,4.85-7.6a1,1,0,0,1,1.85-.5Z"/><path class="cls-4" d="M198.82,123.2c.93.46.93,1.08.62,2.14-2.39,7.59-9,15-17.19,16.4-4.93.86-9-.76-9-5.91a20.23,20.23,0,0,1,.77-5.2l-1,.17c-3.54,9.29-9.24,13.94-16.26,15-6.32.94-10.09-2.8-10.09-8.76,0-5,4.39-12.6,4.39-16.81,0-1.45-.54-2.29-1.93-2.09-2.31.32-3.78,4.25-4.85,7.83a1.05,1.05,0,0,1-1.85.53c-1.7-2-2.55-2.94-4.24-4.91-.77-.83-.54-1.77-.16-3,1.7-5.22,6.63-11.81,14.18-12.94,5.63-.84,10.18,1.53,10.18,9.12,0,6.67-3.55,12.83-3.55,15.59,0,2.07,1.7,2.72,3.93,2.36,3.78-.6,9-4.26,9.94-9.64l1.55-8.81-4.63.81c-.54.09-1.23-.09-1.08-1.12.62-3.64.93-5.46,1.54-9.1a2,2,0,0,1,1.55-1.57c8.5-1.51,12.76-2.32,21.27-3.86.77-.14,1.23.32,1.08,1.12l-1.55,9.15a2,2,0,0,1-1.46,1.58l-4.62.83c-.87,5-1.3,7.45-2.16,12.41-.46,2.55-.31,4.67,1.69,4.32,2.39-.42,3.93-3.62,5.4-7.58.23-.66.77-1.45,1.85-1Z"/><path class="cls-4" d="M234.75,108.84c-.46.13-.62.07-.77-.23-2.32-3.72-5.71-5.44-10.95-4.72-3.93.54-5.7,1.82-5.7,3.53,0,2.18,3.49,2.25,7.63,2.5,6.29.38,14.44,1.47,14.26,9.4-.23,10-11.29,15-20,16.17-9.33,1.22-15-.43-17.34-2-.31-.19-.39-.4-.31-1,.71-4.14,1.07-6.21,1.77-10.35a.92.92,0,0,1,.62-.8l2.62-1.29c.46-.23.62-.17.85.18,2.54,3.61,6.78,5.09,13,4.23,3.16-.44,5.86-1.4,5.86-3.42s-3.09-2.35-6.94-2.41c-6.38-.11-15,.08-15-8.67,0-8,7.25-15,19.19-16.63,7.32-1,13.64.59,16.65,2.74.31.21.38.43.31,1l-1.7,9.75a.94.94,0,0,1-.62.76C236.83,108.11,236.13,108.35,234.75,108.84Z"/><path class="cls-4" d="M272.44,117.93c.77,1,.54,1.91.15,3.15-1.69,5.09-6.55,11.06-14.64,11.17-9.32.12-12.64-6.3-10.48-15.57,1.23-5.36,1.85-8,3.08-13.39-2.43.13-3.65.21-6.09.39-1.07.08-1.3-.3-1.15-1.24.62-3.64.92-5.46,1.54-9.1a1.51,1.51,0,0,1,1.46-1.44c6.66-.46,10-.6,16.65-.6,1.16,0,1.62.79,1.39,1.89-1.79,8.11-2.68,12.18-4.47,20.31-.7,3.14-1,6.26,1.62,6.26,2.31,0,3.77-3.81,4.85-7.32.23-.94,1.23-1.07,1.85-.27C269.9,114.45,270.74,115.6,272.44,117.93Zm-13-30.13c-4,.07-7.17-2.58-7.17-6.57a8.57,8.57,0,0,1,8.48-8.33,6.8,6.8,0,0,1,7.16,6.84C267.89,84.38,263.89,87.73,259.42,87.8Z"/><path class="cls-4" d="M310.29,134a1.13,1.13,0,0,1-.62.69c-2.54.91-7.71,1.87-14.8.62-10.67-1.89-19.43-10.1-19.42-21.39,0-12.52,10.42-22.69,23.2-20.05a28.34,28.34,0,0,1,15.57,9.33,1.32,1.32,0,0,1,.3,1c-.67,3.62-1,5.43-1.69,9-.08.61-.38.83-1,.8-1.42,0-2.13-.07-3.55-.09a1,1,0,0,1-1-.75c-1.23-3.82-4.47-6.68-9.09-7.63s-9.87,1.68-9.87,8.3c0,4.42,3.47,8.58,8.56,9.61,4.54.91,8.09-.38,10.32-2.78a.79.79,0,0,1,1.16-.15c1.42,1,2.13,1.46,3.55,2.47a1,1,0,0,1,.46,1C311.54,128,311.12,130,310.29,134Z"/><path class="cls-5" d="M137,128.53c.77.84.54,1.78.15,3-1.69,5.21-6.63,11.78-14.18,12.2-5.62.32-10.17-2.73-10.17-10.24,0-6.59,3.54-12.23,3.54-15,0-2-1.69-2.89-3.93-2.85-3.77.08-8.94,3-10.17,9.79-.46,2.56-.69,3.84-1.16,6.39,1.61.06,2.41.09,4,.11a1,1,0,0,1,1.08,1.31c-.65,3.65-1,5.48-1.62,9.13-.15.83-.77,1-1.54,1.16a20.11,20.11,0,0,1-4.24.21c-7.71-.41-9.86-4.49-9.86-9.31,0-6.86,4.08-13.5,4.08-16.37,0-2-1.69-3.07-3.93-3.29-3.78-.38-9.25,1.52-10.17,6.49-.62,3.23-.93,4.85-1.54,8.08,1.82.32,2.73.47,4.54.74a1.18,1.18,0,0,1,1.08,1.43c-.61,3.38-.92,5.07-1.54,8.43a1.28,1.28,0,0,1-1.54,1,128.74,128.74,0,0,1-21.19-5,1.42,1.42,0,0,1-1.08-1.62c.62-3.24.92-4.87,1.54-8.13a1.09,1.09,0,0,1,1.46-.83c1.85.55,2.78.8,4.63,1.29,1-4.43,1.43-6.66,2.39-11.11.46-2.29.07-4.47-1.93-5-2.39-.61-3.93,1.8-5.39,5-.24.53-.77,1-1.85,0-2.28-2.23-3.43-3.37-5.71-5.7a1.93,1.93,0,0,1-.61-2.39c2.39-6.09,9-9.89,17.18-8.05,4.93,1.11,9,4,9,9a16.69,16.69,0,0,1-.77,4.83l.85.52c3.54-8.13,9.48-11.07,16.64-10.62,5.24.33,8.33,3.75,8.94,8.75h.16c3.54-5.76,8.32-8.36,14.25-8.64,6.32-.31,10.1,3.5,10.1,9.44,0,5-4.39,12.26-4.39,16.44,0,1.45.54,2.33,1.92,2.23,2.32-.17,3.78-4,4.86-7.54a1,1,0,0,1,1.85-.48C134.4,125.55,135.25,126.55,137,128.53Z"/><path class="cls-5" d="M195.23,118.23c.92.46.92,1.08.61,2.14-2.39,7.6-9,15-17.18,16.43-4.93.85-9-.77-9-5.91a20.23,20.23,0,0,1,.77-5.2l-1,.17c-3.55,9.28-9.25,13.9-16.26,14.91-6.32.9-10.1-2.87-10.1-8.82,0-5,4.39-12.56,4.39-16.76,0-1.45-.54-2.29-1.92-2.11-2.31.31-3.78,4.23-4.86,7.79a1,1,0,0,1-1.85.52c-1.69-2-2.54-3-4.23-5-.78-.84-.54-1.78-.16-3,1.7-5.21,6.63-11.75,14.18-12.83,5.63-.8,10.17,1.58,10.17,9.17,0,6.66-3.54,12.8-3.54,15.56,0,2.06,1.7,2.73,3.93,2.38,3.78-.59,9-4.23,9.94-9.61.62-3.52.93-5.28,1.54-8.79l-4.62.79c-.54.1-1.23-.1-1.08-1.12.62-3.63.92-5.45,1.54-9.09A2,2,0,0,1,168,98.3c8.51-1.49,12.76-2.3,21.27-3.86.77-.14,1.24.32,1.08,1.12-.61,3.66-.92,5.49-1.54,9.15a2,2,0,0,1-1.46,1.58l-4.63.83c-.86,5-1.29,7.45-2.16,12.4-.46,2.55-.3,4.68,1.7,4.32,2.39-.42,3.93-3.62,5.39-7.59.24-.65.77-1.44,1.85-.94Z"/><path class="cls-5" d="M231.15,103.6c-.46.14-.61.08-.77-.22-2.31-3.69-5.7-5.37-10.94-4.6-3.93.57-5.7,1.87-5.7,3.58,0,2.17,3.49,2.22,7.63,2.43,6.29.32,14.44,1.32,14.25,9.23-.23,10-11.26,15.16-20,16.37-9.34,1.3-15-.32-17.34-1.86-.31-.18-.39-.4-.31-1,.71-4.14,1.06-6.22,1.77-10.36a.9.9,0,0,1,.62-.8l2.62-1.3c.46-.23.61-.18.84.17,2.55,3.6,6.79,5,13,4.13,3.16-.46,5.86-1.44,5.86-3.46s-3.09-2.32-6.94-2.35c-6.39-.06-15,.18-15-8.56,0-8,7.24-15,19.19-16.76,7.32-1.08,13.64.45,16.65,2.56.3.2.38.43.3,1-.67,3.9-1,5.86-1.69,9.76a1,1,0,0,1-.62.77Z"/><path class="cls-5" d="M268.85,112.09c.77,1,.54,1.9.15,3.14-1.69,5.13-6.55,11.19-14.64,11.43-9.33.28-12.64-6.1-10.48-15.39,1.23-5.37,1.85-8.06,3.08-13.42-2.44.16-3.65.26-6.09.47-1.08.09-1.31-.27-1.15-1.22.61-3.65.92-5.47,1.54-9.12a1.52,1.52,0,0,1,1.46-1.45c6.66-.56,10-.75,16.65-.87,1.15,0,1.62.76,1.39,1.86-1.79,8.14-2.69,12.22-4.47,20.38-.7,3.15-1,6.27,1.61,6.23,2.31,0,3.78-3.88,4.86-7.41a1,1,0,0,1,1.85-.3C266.3,108.67,267.15,109.8,268.85,112.09Zm-13-29.86c-4,.14-7.17-2.46-7.17-6.45a8.76,8.76,0,0,1,8.48-8.47A6.66,6.66,0,0,1,264.3,74C264.3,78.65,260.29,82.08,255.82,82.23Z"/><path class="cls-5" d="M306.69,127.2a1.1,1.1,0,0,1-.61.7c-2.55,1-7.71,2.08-14.8,1-10.66-1.62-19.46-9.69-19.42-20.94,0-12.53,10.36-22.87,23.2-20.56a27.46,27.46,0,0,1,15.57,8.9,1.28,1.28,0,0,1,.3,1c-.68,3.63-1,5.45-1.69,9.09-.08.61-.39.84-1,.83-1.42,0-2.13,0-3.55,0a1,1,0,0,1-1-.72c-1.23-3.79-4.47-6.55-9.1-7.39s-9.86,1.92-9.86,8.54c0,4.41,3.47,8.49,8.55,9.39,4.55.8,8.1-.59,10.33-3a.79.79,0,0,1,1.16-.18c1.42.93,2.13,1.4,3.54,2.37a.94.94,0,0,1,.46,1C307.94,121.22,307.53,123.21,306.69,127.2Z"/></g></g></svg>