<svg xmlns="http://www.w3.org/2000/svg" viewBox="0 0 261.14 107"><defs><style>.cls-1,.cls-2{fill:#7983a7;stroke:#32354b;stroke-miterlimit:10;}.cls-1{stroke-width:0.52px;}.cls-2{stroke-width:0.57px;}.cls-3{fill:#9d5746;}.cls-4{fill:#e87c66;}.cls-5{fill:#efdeca;}</style></defs><g id="Calque_2" data-name="Calque 2"><g id="Calque_2-2" data-name="Calque 2"><path class="cls-1" d="M43.94,1.55,36,32.1l-8.28-.22L23.17,12.62l-5.53,19L9.4,31.41,3,.47,11.2.69l3.43,19.52L20.13.9,27,1.07l4.38,19.7L36,1.33Z"/><path class="cls-1" d="M51.22,19.18a11.25,11.25,0,0,1,4.12.77v-.34c-.13-1.84-1.07-3.17-3.18-3.17-1.93,0-4.2,1.15-5.92,2L44,13.86a20.4,20.4,0,0,1,10.08-2.79c5.15,0,8.24,2.62,8.5,8l.56,12-7,.34L56,30a8.78,8.78,0,0,1-5.75,2.18c-3.52,0-6.9-2.14-6.9-6.35C43.33,21.33,47.19,19.18,51.22,19.18Zm1.5,4a2.32,2.32,0,0,0-2.53,2.23c0,1.41,1.33,2,2.66,2a2.52,2.52,0,0,0,2.75-2.27C55.6,23.82,54.05,23.22,52.72,23.22Z"/><path class="cls-1" d="M66.62,31.2,66.15.43,73.57.3,74,31.07Z"/><path class="cls-2" d="M78.5,32,77.9,1.29l7.42-.17.35,18.36,6.43-7.72,7.21-.13L91.59,20.3l9.09,11.28-8.41.17-6.52-8.36.17,8.49Z"/><path class="cls-1" d="M140.66,30.94l-7,.13-3.61-10.39h0l-3.3,10.52-7,.12-7.38-19.86,7.85-.13L123.8,22.4h0l3.43-11.2,5.37-.09,3.77,11.08h.05l3.13-11.25,7.68-.13Z"/><path class="cls-1" d="M149.19,31l.47-20,7.42.17-.47,20ZM153.52.26a4.15,4.15,0,0,1,4.08,4.16,4.1,4.1,0,0,1-8.2,0A4.15,4.15,0,0,1,153.52.26Z"/><path class="cls-1" d="M173.85,17.38l-3.9-.17-.43,14.37-7.47-.21L162.44,17,159.61,17l.17-5.62,2.83.08.17-6.47,7.47.21-.17,6.44,3.9.17Z"/><path class="cls-1" d="M190,31.88l-.47-12.1c-.05-1.54-.82-2.74-2.54-2.74a2.58,2.58,0,0,0-2.53,1.8,6.5,6.5,0,0,0-.13,1.84l.43,11.37-7.42.3L176.21,1.63l7.42-.3.43,12.23.05,0a9.41,9.41,0,0,1,6.13-2.27c4,0,6.48,2.19,6.61,6.78l.52,13.47Z"/><path class="cls-3" d="M55.11,98.68c0-3.65,4.63-12.27,10.49-21.47,6-9.36,12.15-18.76,11.87-21.67-16.18,10-29.19,33.12-38,49.53a21.48,21.48,0,0,1-3.17-.19c-3.73-.5-7.87-2-7.87-4.62,0-3.74,5.23-14.21,10.21-22.86,5.46-9.46,11.74-18.57,11.47-21.81C34.74,63.46,20.87,84.66,12,99.12c-1.24-.42-2.48-.76-3.59-1.17-3.59-1.34-6.35-3.18-6.35-6.28,0-2.58,3.88-9.75,8.42-17.16,4.7-7.66,10.91-15.28,13.12-21.21a22.35,22.35,0,0,1-6.07-.69c-3-.84-3.87-2.07-3.87-3.1a1.68,1.68,0,0,1,.42-1.12c4.14,1.38,8.14,1.74,11.73,2.48,4.7,1,7.74,3.11,7.74,6.75,0,2.91-4.15,10.18-10.08,19.08C30.62,68.38,40.1,52.43,51,51.65c3.86-.28,10.35,1.58,10.35,6.18,0,3.87-5.8,14.4-10.49,23,7-10.15,15.52-26.92,27.47-29.41,4.35-.9,10,.92,10,5.76,0,3.57-2.9,11.84-9.12,22.08-5.62,9.25-12.29,19.31-11.74,23.36C82.68,94,89.67,72.81,96.86,58c1-.28,2.67.28,2.81,1.37,1.64,12.65-18.4,46-34.76,47.64C60.35,107.41,55.11,103.38,55.11,98.68Z"/><path class="cls-3" d="M161.84,89.73c-10.47,2.52-12.64.94-12.64-3.22,0-2.56,3-4.47,6-5.26,2.49,2.94,2.33,3.37,5,4.18,8.43-9.88,8.87-26.66,9.39-38.68a2.9,2.9,0,0,0,0-.43c-5.42,7.76-11,15.61-16.13,23.39-6.65,10-14.64,23.86-26.52,27.09-4,1.08-8.83-.68-8.83-4.39,0-2.12,1.65-5.64,3.86-10.36-4.74,8.1-11.18,17.65-19.6,20-3.92,1.11-13.19-.25-12.95-5.15C90.18,80.71,104,66,108.8,50c-2.48,1-3.61.81-5.13,1.11-2.63.52-1.91-.23-1.91-1.29a3.84,3.84,0,0,1,.42-1.56c4.14-.7,8.15-2.17,11.74-2.94s4.53-1.87,3.92,2.67C115.9,62.39,99.16,78.76,97.62,93.86c0,.38,2.41,3,2.55,3.24,11.08-4.59,20.5-18.37,26-28.39a259.89,259.89,0,0,0,13.25-28.58,32.52,32.52,0,0,1,5.11-1.55c3.17-.69,5.38-.41,5.38,1.62,0,2.88-3.93,13.73-8.83,24.39C137,73.45,132.33,82.3,128.27,91.3c17.34-12,30.67-35.67,39.7-54a30.41,30.41,0,0,1,4.95-1.06,2.44,2.44,0,0,1,1.75,0c.3.07.53.18.53.39v0a3.9,3.9,0,0,1,.72,2.66c0,4.41,4.49,15.15,4.42,25.2,0,3.52,0,7.23-1.66,10.09C178.68,74.62,172.05,87.28,161.84,89.73Z"/><path class="cls-3" d="M191.14,86c-4.77.73-10.67-2.12-10.49-5.58C181.5,64,196.44,49.15,201.77,33a28.08,28.08,0,0,1-6.35,1.25c-2.34.14-3.17-.43-3.17-1.4a3.65,3.65,0,0,1,.41-1.65c4.14-.2,8.15-1,11.74-1.06,5.52-.06,9.22,2.64,8.84,6-1.66,14.46-15.8,28.7-20.16,44.53,14.47-8.84,25.19-24.78,33.41-39.22,1,0,1.17.34,1.11.8C225.77,55.36,205.79,83.74,191.14,86ZM227,12.09c0,3.92-7.18,7.48-12.56,10.47A54.59,54.59,0,0,0,209,25.85c-1.1-.12-2.07-.55-2.07-1.85,0-.87.56-1.84,1.52-3.24a52.14,52.14,0,0,0,6.91-13.54C221.94,7.66,227,8.4,227,12.09Z"/><path class="cls-3" d="M233.26,88.25c-10.77-2.16-19.52-7.75-19.33-15,.36-14.06,7.75-32.77,21.68-39.22,2.21-.85,6.63-.44,9.67.44,8.14,2.36,15.6,9.62,15.6,17.83,0,7,2.52,9.8-8,5.95-2.21-.81-4.7-2.71-5.53-4.82,4.42-2.65,3.42-3.78,3.42-10.34a4,4,0,0,0-1.11-3.21c-13,1.87-21.81,23.79-22.09,34.79a9,9,0,0,0,3.86,7.94,27.21,27.21,0,0,0,21.27-7.37c1.11.3,1.93.84,1.93,1.93C254.66,82,242.65,90.13,233.26,88.25Z"/><path class="cls-4" d="M53.88,95.92c0-3.66,4.64-12.24,10.5-21.41,6-9.32,12.15-18.69,11.87-21.6-16.16,9.88-29.2,33-38,49.27A20.65,20.65,0,0,1,35.1,102c-3.73-.53-7.87-2.09-7.87-4.69,0-3.73,5.23-14.16,10.22-22.76,5.46-9.41,11.74-18.47,11.46-21.72C33.56,60.54,19.64,81.63,10.8,96c-1.24-.44-2.49-.79-3.59-1.22C3.62,93.39.86,91.51.86,88.42c0-2.58,3.88-9.7,8.42-17.06C14,63.76,20.19,56.2,22.4,50.29a22.42,22.42,0,0,1-6.08-.75c-3-.87-3.86-2.11-3.86-3.14a1.68,1.68,0,0,1,.41-1.11C17,46.71,21,47.11,24.61,47.88c4.69,1,7.73,3.18,7.73,6.82,0,2.91-4.14,10.15-10.08,19,7.14-8.25,16.65-24.11,27.48-24.81,3.87-.25,10.36,1.65,10.36,6.25,0,3.87-5.8,14.36-10.5,22.95,7-10.1,15.55-26.81,27.48-29.24,4.35-.89,9.94,1,9.94,5.79,0,3.58-2.89,11.83-9.11,22C72.28,85.89,65.62,95.91,66.17,100,81.46,91.4,88.45,70.2,95.63,55.4c1-.28,2.67.29,2.82,1.38,1.63,12.62-18.41,46-34.76,47.48C59.13,104.68,53.88,100.61,53.88,95.92Z"/><path class="cls-4" d="M160.61,87.13C150.15,89.69,148,88.11,148,84c0-2.57,3-4.47,6-5.28,2.48,2.93,2.32,3.36,4.94,4.16,8.43-9.9,8.89-26.65,9.39-38.7a3,3,0,0,0,0-.43c-5.42,7.77-11,15.64-16.14,23.44-6.64,10-14.63,23.89-26.51,27.12-4,1.09-8.84-.68-8.84-4.38,0-2.12,1.66-5.65,3.87-10.36-4.74,8.1-11.18,17.64-19.61,20-3.91,1.09-13.19-.29-12.94-5.19.8-16.19,14.6-30.88,19.43-46.88-2.49,1-3.62.81-5.14,1.11-2.62.51-1.9-.24-1.9-1.29a3.89,3.89,0,0,1,.41-1.56c4.15-.69,8.15-2.16,11.74-2.93s4.54-1.87,3.92,2.68c-1.94,14.39-18.68,30.75-20.22,45.83,0,.38,2.42,3,2.55,3.25C110,90,119.45,76.19,125,66.18A259.1,259.1,0,0,0,138.24,37.6a32.54,32.54,0,0,1,5.1-1.56c3.18-.7,5.39-.42,5.39,1.6,0,2.89-3.94,13.74-8.84,24.41-4.07,8.86-8.78,17.72-12.84,26.72,17.35-12,30.67-35.73,39.69-54.08a31.77,31.77,0,0,1,5-1.07,2.37,2.37,0,0,1,1.74,0c.31.07.54.18.54.38v0a3.9,3.9,0,0,1,.72,2.66c0,4.4,4.49,15.12,4.42,25.17,0,3.52,0,7.23-1.65,10.1C177.46,72,170.83,84.64,160.61,87.13Z"/><path class="cls-4" d="M189.92,83.23c-4.77.76-10.68-2-10.5-5.51.86-16.45,15.79-31.34,21.13-47.49a28.63,28.63,0,0,1-6.35,1.29c-2.35.16-3.18-.41-3.18-1.38a3.67,3.67,0,0,1,.42-1.65c4.14-.23,8.14-1.07,11.73-1.14,5.53-.11,9.22,2.56,8.84,5.9-1.66,14.5-15.79,28.8-20.16,44.67,14.53-8,25.5-25.52,33.42-39.49,1,0,1.17.34,1.1.8C224.54,52.39,204.61,80.89,189.92,83.23Zm35.9-74.16c0,3.91-7.18,7.55-12.57,10.58A54.64,54.64,0,0,0,207.73,23c-1.1-.11-2.07-.54-2.07-1.84,0-.86.55-1.84,1.52-3.24a52.92,52.92,0,0,0,6.9-13.6C220.71,4.7,225.82,5.38,225.82,9.07Z"/><path class="cls-4" d="M232,85.15c-10.76-2.05-19.52-7.57-19.33-14.84.37-14.12,7.78-32.84,21.68-39.42,2.21-.88,6.63-.52,9.67.33,8.15,2.27,15.6,9.42,15.6,17.63,0,7,2.53,9.77-8,6-2.21-.78-4.69-2.65-5.52-4.75,4.42-2.71,3.41-3.83,3.41-10.38a3.89,3.89,0,0,0-1.1-3.19c-13,2-21.81,24-22.09,35a8.88,8.88,0,0,0,3.86,7.89,27.42,27.42,0,0,0,21.27-7.6c1.1.28,1.93.81,1.93,1.91C253.44,78.6,241.43,86.93,232,85.15Z"/><path class="cls-5" d="M53,92.08c0-3.66,4.64-12.22,10.5-21.36,5.95-9.3,12.15-18.65,11.87-21.56C59.25,59,46.19,82,37.42,98.27A22.28,22.28,0,0,1,34.25,98c-3.73-.56-7.88-2.14-7.88-4.74,0-3.73,5.24-14.12,10.22-22.7C42.05,61.23,48.33,52.19,48.05,49,32.73,56.59,18.78,77.62,9.94,91.89c-1.24-.45-2.48-.81-3.59-1.24C2.76,89.25,0,87.35,0,84.25c0-2.57,3.88-9.66,8.42-17,4.7-7.57,10.91-15.09,13.12-21a22.47,22.47,0,0,1-6.07-.79c-3-.9-3.87-2.14-3.87-3.17A1.71,1.71,0,0,1,12,41.22c4.15,1.45,8.15,1.88,11.74,2.68,4.7,1,7.73,3.22,7.73,6.86,0,2.91-4.14,10.12-10.08,18.91,7.14-8.2,16.67-24,27.48-24.65,3.88-.23,10.36,1.69,10.36,6.29,0,3.87-5.8,14.34-10.49,22.9,7-10.06,15.55-26.74,27.47-29.13,4.35-.87,10,1,10,5.81,0,3.58-2.9,11.83-9.12,22-5.62,9.21-12.29,19.2-11.74,23.26,15.29-8.51,22.3-29.71,29.47-44.49,1-.27,2.67.3,2.81,1.39C99.22,65.67,79.18,99,62.83,100.46,58.27,100.86,53,96.77,53,92.08Z"/><path class="cls-5" d="M159.75,83.37c-10.46,2.58-12.63,1-12.63-3.16,0-2.56,3-4.47,6-5.29,2.49,2.93,2.33,3.36,4.95,4.15,8.41-9.91,8.89-26.66,9.39-38.73,0-.16,0-.28,0-.42-5.42,7.79-11,15.67-16.13,23.48-6.64,10.05-14.63,23.92-26.52,27.16-4,1.08-8.83-.68-8.83-4.39,0-2.12,1.65-5.64,3.86-10.35-4.74,8.09-11.18,17.63-19.61,20-3.91,1.09-13.18-.31-12.94-5.2.81-16.19,14.6-30.86,19.43-46.84-2.48,1-3.61.8-5.13,1.09-2.63.51-1.91-.23-1.91-1.29A3.76,3.76,0,0,1,100.1,42c4.14-.69,8.14-2.15,11.73-2.92s4.54-1.87,3.93,2.67C113.82,56.15,97.07,72.5,95.53,87.57c0,.38,2.42,3,2.56,3.26,11.08-4.56,20.51-18.34,26-28.35A258.12,258.12,0,0,0,137.38,33.9a32.53,32.53,0,0,1,5.11-1.58c3.17-.7,5.38-.43,5.38,1.6,0,2.88-3.93,13.74-8.83,24.41-4.08,8.87-8.78,17.73-12.85,26.73,17.36-12,30.68-35.77,39.7-54.14a30.79,30.79,0,0,1,5-1.1,2.45,2.45,0,0,1,1.75,0c.3.07.53.18.53.38v0a3.9,3.9,0,0,1,.72,2.66c0,4.4,4.49,15.1,4.42,25.14,0,3.52,0,7.23-1.66,10.11C176.6,68.13,170,80.84,159.75,83.37Z"/><path class="cls-5" d="M189.06,79.35c-4.76.79-10.67-2-10.49-5.46.86-16.48,15.78-31.4,21.12-47.59a28.6,28.6,0,0,1-6.35,1.33c-2.35.17-3.18-.4-3.18-1.37a3.7,3.7,0,0,1,.42-1.65c4.14-.25,8.15-1.11,11.74-1.2,5.52-.14,9.22,2.51,8.83,5.85C209.5,43.79,195.37,58.13,191,74c14.55-8.1,25.51-25.66,33.42-39.68,1,0,1.17.32,1.1.79C223.68,48.34,203.79,76.93,189.06,79.35ZM225,5c0,3.91-7.18,7.6-12.56,10.66A53.89,53.89,0,0,0,206.87,19c-1.1-.11-2.07-.53-2.07-1.83,0-.86.55-1.85,1.52-3.26A52.59,52.59,0,0,0,213.22.31C219.85.65,225,1.3,225,5Z"/><path class="cls-5" d="M231.18,81c-10.77-2-19.52-7.43-19.33-14.7.37-14.16,7.79-32.89,21.68-39.57,2.21-.89,6.62-.57,9.66.26,8.15,2.2,15.61,9.28,15.61,17.48,0,7,2.52,9.75-8,6.13-2.21-.76-4.7-2.61-5.53-4.71,4.42-2.74,3.42-3.85,3.42-10.4a3.86,3.86,0,0,0-1.11-3.18c-13,2.15-21.8,24.08-22.09,35.19a8.81,8.81,0,0,0,3.86,7.86,27.55,27.55,0,0,0,21.27-7.78c1.11.28,1.93.8,1.93,1.89C252.58,74.28,240.57,82.72,231.18,81Z"/></g></g></svg>