<svg xmlns="http://www.w3.org/2000/svg" viewBox="0 0 375 189.43"><defs><style>.cls-1{fill:#3b405a;}.cls-2,.cls-3{fill:#7983a7;stroke:#32354b;stroke-miterlimit:10;}.cls-2{stroke-width:0.52px;}.cls-3{stroke-width:0.57px;}.cls-4{fill:#9d5746;}.cls-5{fill:#e87c66;}.cls-6{fill:#efdeca;}</style></defs><g id="Calque_2" data-name="Calque 2"><g id="Calque_2-2" data-name="Calque 2"><path class="cls-1" d="M375,11.22c-125-38.87-250,38.86-375,0v167c125,38.87,250-38.86,375,0Z"/><path class="cls-2" d="M103.59,46.58,95.65,77.14l-8.28-.22L82.82,57.65l-5.54,19-8.23-.21L62.61,45.51l8.24.22,3.43,19.52,5.49-19.31,6.87.17L91,65.81l4.59-19.44Z"/><path class="cls-2" d="M110.87,64.22A11.29,11.29,0,0,1,115,65v-.34c-.13-1.85-1.07-3.18-3.18-3.18-1.93,0-4.2,1.16-5.92,2l-2.27-4.59a20.4,20.4,0,0,1,10.08-2.79c5.15,0,8.24,2.62,8.5,8l.56,12-7,.34L115.63,75a8.74,8.74,0,0,1-5.75,2.19c-3.52,0-6.91-2.14-6.91-6.35C103,66.37,106.84,64.22,110.87,64.22Zm1.5,4a2.32,2.32,0,0,0-2.53,2.24c0,1.41,1.33,2,2.66,2a2.53,2.53,0,0,0,2.75-2.27C115.25,68.85,113.7,68.25,112.37,68.25Z"/><path class="cls-2" d="M126.27,76.23l-.48-30.76,7.43-.13.47,30.77Z"/><path class="cls-3" d="M138.15,77.05l-.6-30.72,7.42-.17.34,18.36,6.44-7.72,7.21-.13-7.72,8.67,9.09,11.28-8.41.17-6.52-8.37.17,8.5Z"/><path class="cls-2" d="M200.31,76l-7,.13-3.61-10.39h0l-3.31,10.51-7,.13L172,56.5l7.85-.13,3.6,11.07h.05l3.43-11.2,5.37-.09,3.77,11.07h0L199.24,56l7.68-.13Z"/><path class="cls-2" d="M208.84,76l.47-20,7.42.18-.47,20Zm4.33-30.72a4.15,4.15,0,0,1,4.08,4.16,4.1,4.1,0,0,1-8.2,0A4.15,4.15,0,0,1,213.17,45.3Z"/><path class="cls-2" d="M233.5,62.42l-3.9-.17-.43,14.37-7.47-.21.39-14.34L219.26,62l.17-5.62,2.83.08.17-6.48,7.47.22-.17,6.44,3.9.17Z"/><path class="cls-2" d="M249.68,76.92l-.48-12.1c0-1.54-.81-2.75-2.53-2.75a2.59,2.59,0,0,0-2.53,1.81,6.47,6.47,0,0,0-.13,1.84l.43,11.37-7.42.3-1.16-30.72,7.42-.3.43,12.23,0,0a9.46,9.46,0,0,1,6.14-2.27c4,0,6.48,2.19,6.61,6.78L257,76.62Z"/><path class="cls-4" d="M114.75,143.72c0-3.65,4.64-12.27,10.5-21.48s12.15-18.76,11.87-21.66c-16.19,10-29.19,33.12-38,49.52a21.3,21.3,0,0,1-3.17-.18c-3.73-.5-7.88-2-7.88-4.62,0-3.74,5.24-14.22,10.22-22.86,5.46-9.46,11.74-18.57,11.46-21.81-15.39,7.87-29.26,29.07-38.11,43.53-1.24-.42-2.48-.76-3.59-1.17-3.59-1.34-6.35-3.18-6.35-6.28,0-2.58,3.88-9.75,8.42-17.16,4.7-7.66,10.91-15.28,13.12-21.21a22.35,22.35,0,0,1-6.07-.69c-3-.84-3.87-2.07-3.87-3.1a1.72,1.72,0,0,1,.41-1.12c4.15,1.38,8.15,1.74,11.74,2.48,4.7,1,7.73,3.11,7.73,6.75,0,2.91-4.14,10.18-10.08,19.07,7.14-8.31,16.62-24.26,27.48-25,3.87-.27,10.36,1.59,10.36,6.19,0,3.87-5.8,14.4-10.49,23C117.51,115.75,126,99,138,96.49c4.35-.91,10,.91,10,5.76,0,3.57-2.9,11.84-9.12,22.07-5.63,9.26-12.29,19.32-11.74,23.37,15.29-8.64,22.28-29.84,29.47-44.7,1-.27,2.67.29,2.81,1.38,1.64,12.65-18.4,46-34.76,47.64C120,152.45,114.75,148.42,114.75,143.72Z"/><path class="cls-4" d="M221.48,134.77c-10.46,2.52-12.63.94-12.63-3.22,0-2.56,3-4.47,6-5.26,2.48,2.94,2.33,3.36,5,4.18,8.42-9.89,8.87-26.66,9.39-38.68,0-.16,0-.29,0-.43-5.42,7.75-11,15.6-16.14,23.39-6.64,10-14.63,23.86-26.51,27.09-4,1.08-8.84-.68-8.83-4.39,0-2.12,1.65-5.64,3.86-10.36-4.74,8.1-11.18,17.65-19.61,20-3.91,1.11-13.18-.25-12.94-5.15.81-16.21,14.6-30.92,19.43-46.94-2.48,1-3.61.82-5.13,1.12-2.63.51-1.91-.23-1.91-1.29a3.8,3.8,0,0,1,.42-1.56c4.14-.7,8.14-2.17,11.73-2.94s4.54-1.88,3.93,2.67c-2,14.4-18.69,30.78-20.23,45.88,0,.38,2.42,2.95,2.56,3.24,11.07-4.59,20.5-18.37,26-28.4a257.13,257.13,0,0,0,13.26-28.57,32.21,32.21,0,0,1,5.11-1.55c3.17-.7,5.38-.41,5.38,1.61,0,2.89-3.93,13.74-8.83,24.4-4.08,8.86-8.79,17.71-12.85,26.71,17.34-12,30.67-35.67,39.7-54a30.59,30.59,0,0,1,4.95-1,2.44,2.44,0,0,1,1.75,0c.3.07.53.18.53.39h0a4,4,0,0,1,.72,2.67c0,4.4,4.49,15.15,4.42,25.2,0,3.52,0,7.23-1.66,10.09C238.33,119.66,231.7,132.32,221.48,134.77Z"/><path class="cls-4" d="M250.79,131c-4.77.73-10.67-2.12-10.49-5.58.85-16.42,15.78-31.25,21.12-47.37a28.08,28.08,0,0,1-6.35,1.25c-2.35.14-3.18-.43-3.18-1.4a3.67,3.67,0,0,1,.42-1.65c4.14-.2,8.15-1,11.74-1.06,5.52-.06,9.22,2.64,8.83,6-1.65,14.46-15.79,28.7-20.16,44.53,14.48-8.84,25.2-24.78,33.42-39.23,1,0,1.17.35,1.1.81C285.42,100.4,265.44,128.78,250.79,131Zm35.9-73.89c0,3.91-7.18,7.48-12.56,10.47a52.77,52.77,0,0,0-5.53,3.29c-1.1-.12-2.07-.56-2.07-1.85,0-.87.55-1.84,1.52-3.24A51.89,51.89,0,0,0,275,52.26C281.58,52.7,286.69,53.44,286.69,57.13Z"/><path class="cls-4" d="M292.91,133.29c-10.77-2.16-19.52-7.75-19.33-15,.36-14.06,7.75-32.77,21.68-39.22,2.21-.85,6.62-.45,9.66.44,8.15,2.36,15.61,9.61,15.61,17.82,0,7,2.52,9.8-8,6-2.21-.81-4.7-2.71-5.53-4.82,4.42-2.66,3.42-3.79,3.42-10.34a4,4,0,0,0-1.11-3.21c-13,1.87-21.81,23.79-22.09,34.79a9,9,0,0,0,3.86,7.94,27.21,27.21,0,0,0,21.27-7.37c1.1.29,1.93.84,1.93,1.93C314.31,127,302.3,135.17,292.91,133.29Z"/><path class="cls-5" d="M113.53,141c0-3.66,4.63-12.24,10.49-21.41S136.17,100.86,135.9,98c-16.16,9.88-29.2,33-38,49.27a20.65,20.65,0,0,1-3.18-.21c-3.73-.53-7.87-2.1-7.87-4.69,0-3.73,5.23-14.16,10.22-22.76,5.45-9.41,11.74-18.48,11.46-21.72C93.21,105.57,79.29,126.67,70.45,141c-1.25-.43-2.49-.78-3.59-1.21-3.59-1.37-6.36-3.25-6.36-6.34,0-2.58,3.88-9.7,8.43-17.06,4.7-7.61,10.91-15.16,13.12-21.07A22.37,22.37,0,0,1,76,94.58c-3-.88-3.86-2.11-3.86-3.14a1.63,1.63,0,0,1,.41-1.11c4.14,1.42,8.15,1.82,11.74,2.59C89,93.93,92,96.1,92,99.74c0,2.91-4.14,10.14-10.08,19,7.14-8.25,16.65-24.12,27.48-24.81,3.87-.25,10.35,1.65,10.35,6.25,0,3.87-5.8,14.36-10.49,23,7-10.1,15.55-26.81,27.48-29.24,4.35-.89,9.94.95,9.94,5.79,0,3.58-2.89,11.83-9.11,22-5.63,9.23-12.29,19.25-11.74,23.3,15.28-8.56,22.28-29.76,29.46-44.57,1-.27,2.67.29,2.81,1.39,1.64,12.62-18.4,46-34.76,47.48C118.78,149.72,113.53,145.65,113.53,141Z"/><path class="cls-5" d="M220.26,132.17c-10.47,2.55-12.63,1-12.63-3.19,0-2.56,3-4.47,6-5.27,2.49,2.93,2.33,3.36,4.95,4.16,8.42-9.9,8.89-26.65,9.39-38.7a2.89,2.89,0,0,0,0-.43c-5.42,7.77-11,15.64-16.14,23.44-6.64,10-14.63,23.89-26.51,27.12-4,1.09-8.84-.68-8.84-4.39,0-2.11,1.66-5.64,3.87-10.35-4.74,8.1-11.19,17.64-19.61,20-3.91,1.1-13.19-.28-12.94-5.18.8-16.2,14.6-30.88,19.43-46.88-2.49,1-3.62.81-5.14,1.11-2.62.51-1.9-.24-1.9-1.3a3.89,3.89,0,0,1,.41-1.55c4.15-.69,8.15-2.16,11.74-2.93s4.54-1.87,3.92,2.68c-1.94,14.39-18.68,30.74-20.22,45.83,0,.38,2.42,3,2.55,3.25,11.08-4.57,20.51-18.35,26-28.36a257.21,257.21,0,0,0,13.25-28.58A32.63,32.63,0,0,1,203,81.08c3.18-.7,5.39-.42,5.39,1.6,0,2.88-3.94,13.74-8.84,24.41-4.07,8.86-8.78,17.72-12.84,26.72,17.34-12,30.67-35.73,39.69-54.08a31.06,31.06,0,0,1,5-1.08,2.42,2.42,0,0,1,1.74,0c.31.07.53.18.53.38v0a3.9,3.9,0,0,1,.72,2.66c0,4.4,4.49,15.12,4.42,25.17,0,3.52,0,7.22-1.65,10.1C237.11,117,230.48,129.68,220.26,132.17Z"/><path class="cls-5" d="M249.57,128.27c-4.77.76-10.68-2.06-10.5-5.51.86-16.45,15.79-31.34,21.13-47.5a28.19,28.19,0,0,1-6.35,1.3c-2.35.15-3.18-.41-3.18-1.38a3.79,3.79,0,0,1,.41-1.65c4.15-.23,8.15-1.07,11.74-1.15,5.52-.1,9.22,2.57,8.84,5.91C270,92.79,255.87,107.08,251.5,123c14.53-8,25.5-25.52,33.42-39.49,1,0,1.16.34,1.1.8C284.18,97.43,264.26,125.93,249.57,128.27Zm35.9-74.16c0,3.91-7.18,7.55-12.57,10.58A53.51,53.51,0,0,0,267.38,68c-1.11-.12-2.07-.54-2.07-1.84,0-.86.55-1.84,1.51-3.25a52.22,52.22,0,0,0,6.91-13.59C280.36,49.73,285.47,50.42,285.47,54.11Z"/><path class="cls-5" d="M291.68,130.19c-10.77-2.05-19.52-7.57-19.33-14.84.37-14.12,7.78-32.84,21.68-39.43,2.21-.87,6.63-.51,9.67.34,8.15,2.27,15.6,9.42,15.6,17.63,0,7,2.52,9.77-8,6-2.21-.78-4.69-2.65-5.52-4.76,4.42-2.7,3.41-3.82,3.41-10.37a3.92,3.92,0,0,0-1.1-3.2c-13,2-21.81,24-22.1,35a8.91,8.91,0,0,0,3.87,7.89,27.38,27.38,0,0,0,21.26-7.6c1.11.28,1.94.81,1.94,1.9C313.09,123.64,301.07,132,291.68,130.19Z"/><path class="cls-6" d="M112.67,137.11c0-3.65,4.64-12.21,10.5-21.36S135.32,97.1,135,94.2c-16.14,9.82-29.2,32.83-38,49.1a22.29,22.29,0,0,1-3.18-.22c-3.72-.56-7.87-2.15-7.87-4.74,0-3.73,5.23-14.13,10.22-22.7C101.7,106.27,108,97.23,107.7,94c-15.32,7.64-29.28,28.67-38.11,42.93-1.24-.44-2.48-.8-3.59-1.23-3.59-1.41-6.35-3.3-6.35-6.4,0-2.57,3.88-9.66,8.42-17,4.7-7.57,10.91-15.08,13.12-21a22.62,22.62,0,0,1-6.08-.79c-3-.9-3.86-2.14-3.86-3.17a1.69,1.69,0,0,1,.41-1.11c4.15,1.45,8.15,1.88,11.74,2.67,4.7,1,7.73,3.23,7.73,6.87,0,2.9-4.14,10.12-10.08,18.91,7.14-8.2,16.67-24,27.48-24.65,3.88-.24,10.36,1.69,10.36,6.29,0,3.87-5.8,14.34-10.5,22.9,7-10.07,15.56-26.74,27.48-29.13,4.35-.88,9.94,1,9.94,5.81,0,3.58-2.89,11.83-9.11,22-5.63,9.22-12.29,19.21-11.74,23.27,15.29-8.51,22.29-29.71,29.46-44.49,1-.27,2.68.3,2.82,1.39,1.63,12.6-18.41,45.93-34.76,47.39C117.92,145.9,112.67,141.81,112.67,137.11Z"/><path class="cls-6" d="M219.4,128.4c-10.46,2.59-12.63,1-12.63-3.15,0-2.56,3-4.48,6-5.29,2.48,2.93,2.32,3.36,4.95,4.15,8.41-9.91,8.88-26.66,9.39-38.73,0-.16,0-.28,0-.43-5.42,7.79-11,15.68-16.14,23.49-6.63,10-14.62,23.92-26.51,27.16-4,1.08-8.84-.68-8.84-4.39,0-2.12,1.66-5.64,3.87-10.35-4.74,8.09-11.18,17.63-19.61,20-3.91,1.09-13.18-.31-12.94-5.2.8-16.19,14.6-30.86,19.43-46.85-2.48,1-3.61.81-5.14,1.1-2.62.51-1.9-.23-1.9-1.29a3.93,3.93,0,0,1,.41-1.56c4.15-.68,8.15-2.14,11.74-2.91s4.54-1.87,3.92,2.67c-1.94,14.39-18.68,30.73-20.22,45.81,0,.38,2.42,3,2.56,3.25,11.08-4.55,20.51-18.34,26-28.34A257.43,257.43,0,0,0,197,78.93a33.51,33.51,0,0,1,5.11-1.57c3.17-.7,5.38-.43,5.38,1.6,0,2.88-3.93,13.74-8.84,24.41-4.07,8.87-8.78,17.73-12.84,26.73,17.36-12,30.68-35.78,39.7-54.14a30.79,30.79,0,0,1,5-1.1,2.45,2.45,0,0,1,1.75,0c.3.07.53.17.53.38v0a4,4,0,0,1,.72,2.66c0,4.4,4.48,15.09,4.42,25.14,0,3.52,0,7.23-1.66,10.1C236.25,113.16,229.62,125.88,219.4,128.4Z"/><path class="cls-6" d="M248.71,124.39c-4.77.79-10.67-2-10.49-5.47.85-16.47,15.78-31.39,21.12-47.58A28.6,28.6,0,0,1,253,72.67c-2.35.16-3.18-.4-3.18-1.37a3.67,3.67,0,0,1,.42-1.65c4.14-.25,8.15-1.11,11.74-1.21,5.52-.14,9.21,2.52,8.83,5.85-1.66,14.53-15.78,28.87-20.16,44.78,14.54-8.1,25.5-25.66,33.42-39.68,1,0,1.17.32,1.1.79C283.32,93.38,263.44,122,248.71,124.39ZM284.61,50c0,3.91-7.18,7.59-12.56,10.66a56,56,0,0,0-5.53,3.37c-1.1-.1-2.07-.52-2.07-1.82,0-.87.55-1.85,1.52-3.26a52.71,52.71,0,0,0,6.9-13.64C279.5,45.69,284.61,46.34,284.61,50Z"/><path class="cls-6" d="M290.83,126c-10.77-2-19.52-7.43-19.34-14.7.37-14.16,7.8-32.89,21.69-39.57,2.21-.89,6.62-.57,9.66.25,8.15,2.21,15.61,9.29,15.61,17.49,0,7,2.52,9.75-8,6.13-2.21-.76-4.69-2.61-5.52-4.71,4.42-2.74,3.42-3.85,3.42-10.4a3.89,3.89,0,0,0-1.11-3.19c-13,2.16-21.8,24.09-22.09,35.2A8.81,8.81,0,0,0,289,120.4a27.55,27.55,0,0,0,21.27-7.78c1.1.28,1.93.8,1.93,1.89C312.23,119.32,300.22,127.75,290.83,126Z"/></g></g></svg>