<svg xmlns="http://www.w3.org/2000/svg" viewBox="0 0 375 189.43"><defs><style>.cls-1{fill:#6d4860;}.cls-2,.cls-3{fill:#a9819a;stroke:#dbac4e;stroke-miterlimit:10;}.cls-2{stroke-width:0.53px;}.cls-3{stroke-width:0.58px;}.cls-4{fill:#89371a;}.cls-5{fill:#c24c29;}.cls-6{fill:#f6eae3;}</style></defs><g id="Calque_2" data-name="Calque 2"><g id="Calque_1-2" data-name="Calque 1"><path class="cls-1" d="M375,11.22c-125-38.86-250,38.86-375,0v167c125,38.87,250-38.86,375,0Z"/></g><g id="Calque_2-2" data-name="Calque 2"><path class="cls-2" d="M99.65,52.2,91.54,83.43l-8.47-.22L78.42,63.52,72.76,83l-8.42-.22L57.76,51.1l8.42.22,3.51,20,5.62-19.74,7,.18L86.8,71.85,91.49,52Z"/><path class="cls-2" d="M107.1,70.23a11.36,11.36,0,0,1,4.21.79v-.35c-.14-1.89-1.1-3.25-3.25-3.25-2,0-4.3,1.19-6,2.06l-2.33-4.69A20.88,20.88,0,0,1,110,61.94c5.26,0,8.42,2.67,8.68,8.16l.58,12.28-7.16.35L112,81.28a9,9,0,0,1-5.87,2.24c-3.6,0-7.07-2.19-7.07-6.49C99,72.42,103,70.23,107.1,70.23Zm1.53,4.12A2.38,2.38,0,0,0,106,76.63c0,1.45,1.36,2.07,2.72,2.07a2.59,2.59,0,0,0,2.81-2.33C111.57,75,110,74.35,108.63,74.35Z"/><path class="cls-2" d="M122.83,82.51l-.48-31.45,7.59-.13.48,31.45Z"/><path class="cls-3" d="M135,83.34l-.61-31.4,7.58-.18.36,18.78,6.57-7.9,7.37-.13-7.89,8.86,9.3,11.54-8.6.17-6.67-8.55.18,8.68Z"/><path class="cls-2" d="M198.52,82.25l-7.15.13-3.68-10.62h-.05l-3.37,10.75-7.15.13-7.55-20.31,8-.13,3.68,11.32h.05l3.51-11.45,5.48-.09,3.86,11.32h0l3.2-11.49,7.85-.13Z"/><path class="cls-2" d="M207.24,82.29l.48-20.44,7.59.18-.48,20.44Zm4.43-31.4a4.24,4.24,0,0,1,4.17,4.25,4.19,4.19,0,0,1-8.38,0A4.24,4.24,0,0,1,211.67,50.89Z"/><path class="cls-2" d="M232.46,68.39l-4-.18L228,82.91l-7.64-.22.4-14.65-2.9-.09.18-5.75,2.89.09.18-6.62,7.63.22-.17,6.58,4,.17Z"/><path class="cls-2" d="M249,83.21l-.48-12.37c0-1.58-.84-2.8-2.59-2.8a2.64,2.64,0,0,0-2.59,1.84,6.76,6.76,0,0,0-.13,1.88l.44,11.63-7.59.3-1.18-31.4,7.58-.31.44,12.5.05,0a9.58,9.58,0,0,1,6.27-2.33c4.08,0,6.62,2.24,6.75,6.93l.53,13.78Z"/><path class="cls-4" d="M117.93,135.63a38,38,0,0,1,.87-7.87,2.14,2.14,0,0,0-1.07-.3c-1.74,0-2.87,1.57-2.87,6.77v15.28a179.77,179.77,0,0,1-22.36-.94c.11-8.58.16-12.87.27-21.46a3.36,3.36,0,0,0-1.41-.52c-1.74-.17-2.88,1.2-2.88,6.37v15.18A143.45,143.45,0,0,1,65.79,144c.27-6.47.4-9.7.67-16.17a56,56,0,0,0-2-18.09,20.63,20.63,0,0,1,11.78-.94c7.23,1.3,11.58,5.09,11.31,11.93l1.34.15c1.94-6,7.1-9.51,14.66-9.27s10.58,4.64,10.91,10.43l1.34,0c1.41-6.28,6.56-10.47,13.86-11,7.76-.55,12,4.11,11.18,12.6-.22,2.3-.32,3.45-.54,5.75-.2,1.94.81,2.51,2.28,2.36a5.73,5.73,0,0,0,2.41-.92,13.15,13.15,0,0,1,.87,4.68c0,7.23-6.09,13.78-14.86,14.36S117.93,145.51,117.93,135.63Z"/><path class="cls-4" d="M149.66,134.49c.21-2.41.32-3.62.53-6a37,37,0,0,0-2.07-15.75,23.25,23.25,0,0,1,11.71-5.06c8.57-1.23,12.92,3,12.92,13a32.28,32.28,0,0,1-.87,8.07,2,2,0,0,0,1.07.17c1.74-.27,3.15-2.69,3-8.61-.11-5.11-.17-7.67-.27-12.78a32.23,32.23,0,0,1,11.65-4.17c7.69-1.27,11.24,1.17,12.72,6a11.21,11.21,0,0,1-2.35,3.86c-.13,3.19-.2,4.79-.33,8-.07,2,.8,2.49,2.27,2.26a5.74,5.74,0,0,0,2.41-1,12.92,12.92,0,0,1,.87,4.7c0,7.32-6.09,14.15-15.06,15.55-7,1.1-11.38-1.71-10.44-8.87l-1.34.21c-2.61,6.75-7.77,11.67-14.39,12.57C153.07,147.75,148.92,143,149.66,134.49Z"/><path class="cls-4" d="M206.09,129.25a9.8,9.8,0,0,1,2.41-6.74c4.28,3.4,11.51,4.1,14.66,3.7,1.07-.13,2-.45,2-1.19,0-.54-.8-.58-2.41-.78-2.46-.36-3.69-.54-6.15-.87-7.17-1-9.69-4.85-9.64-9.91.1-10.46,11.93-15.34,20.75-16.23,6.24-.63,12.45-.34,16.33-1a14.93,14.93,0,0,1,1.41,6.33c0,4.07-1.88,7.64-6.76,8.08-3.42.32-6.63-1-10.58-3a2.23,2.23,0,0,0-.67,1.76c0,1,.94,1.58,3,1.88,2.47.37,3.7.57,6.16,1,6.09,1,9.59,4.1,9.57,9.92,0,10.51-12.25,14.37-20.68,15.14C213,138.42,206.09,135.77,206.09,129.25Z"/><path class="cls-4" d="M247.32,90c0-6.38,3.55-9.4,10-9.64,3.08-.11,7.5.82,11.58.87a17.66,17.66,0,0,0,4.62-.72,13.45,13.45,0,0,1,.94,5.22c0,5-1.88,6.65-6.43,6.6-1.14,0-3.68-.24-7.49-.16-5.16.11-10.18,1.56-12.52,3.21A24.09,24.09,0,0,1,247.32,90Zm2.81,30.29c.21-2.37.32-3.56.53-5.93.54-6.07-1-11.49-2-15.43,2.94-2.56,7.49-4.09,12.51-4.19,8.24-.15,13.12,4.29,12.46,12.66-.25,2.94-.37,4.41-.61,7.35-.13,2,.61,2.61,2.08,2.68a4.93,4.93,0,0,0,2.41-.55,16.46,16.46,0,0,1,.87,5c0,7.44-6.09,13-15.33,13C254.34,134.8,249.26,130.15,250.13,120.26Z"/><path class="cls-4" d="M281.52,116.37c-.12-12.62,11.32-20.56,23.3-17.86,4.14.93,10.91,3.8,14.79,4.52a22.66,22.66,0,0,1,1.41,7.62c0,4.89-2.35,7.25-7.1,5.94-3.21-.88-6.22-3.4-9.77-7.3a6.11,6.11,0,0,0-.81,3.55c0,3.91,2.75,7.48,8.57,9a14.51,14.51,0,0,0,8.17-.19,19.87,19.87,0,0,1,1.41,7c0,8.14-5.84,12.46-18.28,10C292.2,136.43,281.64,128.58,281.52,116.37Z"/><path class="cls-5" d="M113.08,132a37.59,37.59,0,0,1,.87-7.84,2.1,2.1,0,0,0-1.07-.32c-1.74,0-2.88,1.51-2.88,6.7v15.26a171.4,171.4,0,0,1-22.36-1.43c.11-8.57.16-12.86.27-21.43a3.38,3.38,0,0,0-1.41-.56c-1.74-.22-2.87,1.12-2.87,6.29v15.16A140.46,140.46,0,0,1,60.93,139c.27-6.45.4-9.68.67-16.13a56.18,56.18,0,0,0-2-18.13,20.55,20.55,0,0,1,11.79-.57c7.23,1.52,11.58,5.41,11.31,12.24l1.34.18c1.94-5.94,7.09-9.31,14.66-8.89s10.57,4.85,10.91,10.64h1.34c1.4-6.24,6.56-10.32,13.85-10.73,7.77-.42,12,4.28,11.18,12.75-.21,2.29-.32,3.44-.53,5.73-.2,1.94.8,2.52,2.27,2.38a5.4,5.4,0,0,0,2.41-.88,13,13,0,0,1,.87,4.68c0,7.22-6.09,13.7-14.86,14.15S113.08,141.91,113.08,132Z"/><path class="cls-5" d="M144.8,131.36c.22-2.41.32-3.62.54-6a37.15,37.15,0,0,0-2.08-15.75,23.2,23.2,0,0,1,11.72-5c8.57-1.16,12.92,3.05,12.92,13a32.14,32.14,0,0,1-.87,8.06,2,2,0,0,0,1.07.18c1.74-.26,3.14-2.68,3-8.59-.11-5.11-.16-7.66-.27-12.77a32.66,32.66,0,0,1,11.65-4.15c7.7-1.27,11.25,1.16,12.72,6a11.41,11.41,0,0,1-2.34,3.87c-.14,3.19-.2,4.78-.34,8-.06,2,.81,2.49,2.28,2.25a5.88,5.88,0,0,0,2.41-1,13.12,13.12,0,0,1,.87,4.69c0,7.31-6.09,14.17-15.06,15.57-7,1.1-11.38-1.72-10.45-8.87l-1.34.21c-2.61,6.73-7.76,11.62-14.39,12.48C148.22,144.65,144.07,139.86,144.8,131.36Z"/><path class="cls-5" d="M201.23,126.26a9.83,9.83,0,0,1,2.41-6.75c4.28,3.37,11.51,4,14.66,3.59,1.07-.15,2-.47,2-1.21,0-.54-.8-.57-2.41-.76-2.46-.34-3.7-.5-6.16-.82-7.16-.91-9.69-4.78-9.64-9.83C202.21,100,214,95.08,222.85,94.1c6.25-.7,12.45-.49,16.34-1.26a14.72,14.72,0,0,1,1.4,6.3c0,4.07-1.87,7.66-6.76,8.17-3.41.36-6.63-.89-10.57-2.87a2.27,2.27,0,0,0-.67,1.77c0,.94.93,1.56,3,1.84l6.16.9c6.09,1,9.59,4,9.57,9.77,0,10.51-12.21,14.53-20.69,15.4C208.08,135.4,201.23,132.77,201.23,126.26Z"/><path class="cls-5" d="M242.46,86.58c0-6.37,3.55-9.44,10-9.8,3.08-.17,7.49.68,11.58.63a17.6,17.6,0,0,0,4.62-.82,13.48,13.48,0,0,1,.93,5.19c0,5-1.87,6.69-6.42,6.74-1.14,0-3.68-.16-7.5,0-5.15.21-10.17,1.74-12.52,3.43A23.93,23.93,0,0,1,242.46,86.58Zm2.81,30.22c.22-2.38.33-3.57.54-5.94.54-6.07-1-11.46-2-15.38,2.95-2.6,7.5-4.22,12.52-4.41,8.23-.31,13.12,4,12.45,12.38l-.6,7.35c-.14,2,.6,2.6,2.07,2.63a4.89,4.89,0,0,0,2.41-.61,16.32,16.32,0,0,1,.87,5c0,7.44-6.09,13.09-15.33,13.29C249.49,131.25,244.4,126.69,245.27,116.8Z"/><path class="cls-5" d="M276.67,112.25c-.09-12.62,11.2-20.81,23.29-18.5,4.15.8,10.91,3.44,14.8,4a22.19,22.19,0,0,1,1.4,7.56c0,4.89-2.34,7.32-7.1,6.18-3.21-.77-6.22-3.19-9.77-7a6.24,6.24,0,0,0-.8,3.56c0,3.91,2.74,7.39,8.57,8.72a14.57,14.57,0,0,0,8.16-.46,19.4,19.4,0,0,1,1.41,6.95c0,8.12-5.85,12.66-18.28,10.56C287.37,132,276.75,124.4,276.67,112.25Z"/><path class="cls-6" d="M108.42,126.52a37.18,37.18,0,0,1,.87-7.81,2.2,2.2,0,0,0-1.07-.34c-1.74,0-2.88,1.45-2.88,6.64v15.24A162.09,162.09,0,0,1,83,138.32c.1-8.56.16-12.84.26-21.4a3.52,3.52,0,0,0-1.4-.6c-1.74-.25-2.88,1.06-2.88,6.21v15.15a136.54,136.54,0,0,1-22.69-5.52c.26-6.44.4-9.66.67-16.09a57,57,0,0,0-2-18.18,20.66,20.66,0,0,1,11.78-.2C74,99.42,78.3,103.42,78,110.23l1.34.22c1.94-5.89,7.1-9.11,14.66-8.53s10.58,5.07,10.91,10.86l1.34,0c1.41-6.21,6.56-10.19,13.86-10.47,7.76-.31,12,4.43,11.18,12.88-.22,2.29-.33,3.44-.54,5.72-.2,1.94.8,2.53,2.28,2.41a5.31,5.31,0,0,0,2.41-.86,13.32,13.32,0,0,1,.87,4.69c0,7.21-6.09,13.63-14.86,13.94S108.42,136.38,108.42,126.52Z"/><path class="cls-6" d="M140.14,126.3c.22-2.4.33-3.61.54-6a37,37,0,0,0-2.07-15.75,23,23,0,0,1,11.71-4.85c8.57-1.09,12.92,3.13,12.92,13.11a32.11,32.11,0,0,1-.87,8,2,2,0,0,0,1.07.18c1.74-.25,3.15-2.66,3-8.57-.1-5.1-.16-7.65-.26-12.75a32.31,32.31,0,0,1,11.64-4.12c7.7-1.26,11.25,1.14,12.72,6a11.41,11.41,0,0,1-2.34,3.87c-.13,3.18-.2,4.77-.33,8-.07,1.95.8,2.48,2.27,2.24a5.73,5.73,0,0,0,2.41-1.06,13.12,13.12,0,0,1,.87,4.69c0,7.3-6.09,14.18-15.06,15.57-7,1.1-11.38-1.74-10.44-8.87l-1.34.19c-2.61,6.72-7.77,11.59-14.39,12.4C143.56,139.62,139.41,134.78,140.14,126.3Z"/><path class="cls-6" d="M196.57,121.38a9.85,9.85,0,0,1,2.41-6.75c4.29,3.34,11.52,3.94,14.66,3.49,1.08-.16,2-.49,2-1.23,0-.54-.8-.56-2.41-.74-2.46-.32-3.69-.47-6.16-.77-7.16-.86-9.69-4.72-9.64-9.77.12-10.45,11.94-15.44,20.76-16.5,6.24-.76,12.45-.63,16.33-1.46a14.63,14.63,0,0,1,1.41,6.28c0,4.06-1.88,7.68-6.76,8.25-3.42.4-6.63-.81-10.58-2.75a2.29,2.29,0,0,0-.67,1.78c0,.94.94,1.55,3,1.81,2.47.32,3.7.48,6.16.83,6.09.88,9.6,3.84,9.57,9.63,0,10.51-12.17,14.67-20.68,15.62C203.41,130.5,196.57,127.89,196.57,121.38Z"/><path class="cls-6" d="M237.81,81.36c0-6.37,3.54-9.49,10-10,3.08-.22,7.5.54,11.58.41a18.38,18.38,0,0,0,4.62-.91,13.1,13.1,0,0,1,.94,5.17c0,5-1.88,6.71-6.43,6.86-1.14,0-3.68-.09-7.5.13-5.15.31-10.17,1.92-12.52,3.64A23.82,23.82,0,0,1,237.81,81.36Zm2.81,30.14c.21-2.38.32-3.56.53-5.94.54-6.08-1-11.43-2-15.33,2.94-2.65,7.49-4.33,12.51-4.61,8.24-.47,13.12,3.74,12.45,12.11l-.6,7.36c-.13,2,.6,2.58,2.08,2.59A5.07,5.07,0,0,0,268,107a16.44,16.44,0,0,1,.87,4.93c0,7.42-6.1,13.21-15.33,13.59C244.83,125.88,239.75,121.4,240.62,111.5Z"/><path class="cls-6" d="M272,106.35c-.05-12.62,11.1-21,23.29-19.09,4.17.67,10.92,3.11,14.8,3.57a21.73,21.73,0,0,1,1.4,7.5c0,4.89-2.34,7.4-7.09,6.41-3.21-.67-6.23-3-9.77-6.68a6.32,6.32,0,0,0-.81,3.59c0,3.9,2.75,7.3,8.57,8.45a14.76,14.76,0,0,0,8.17-.72,19.2,19.2,0,0,1,1.4,6.89c0,8.12-5.85,12.86-18.27,11.13C282.75,125.87,272.06,118.44,272,106.35Z"/></g></g></svg>