<svg xmlns="http://www.w3.org/2000/svg" viewBox="0 0 52.25 52.58"><defs><style>.cls-1{fill:#f6f6f6;}</style></defs><g id="Calque_2" data-name="Calque 2"><g id="homepage"><path class="cls-1" d="M52.18,26.46c0,4,.2,8.06,0,12.07-.5,7.8-4.91,13-12.65,13.58a190.11,190.11,0,0,1-26.47,0C5.22,51.58.59,46.42.26,38.68c-.35-8.19-.34-16.41,0-24.6S5.94.54,14.22.22C22.13-.07,30.07-.07,38,.21c8.51.31,13.69,5.64,14.16,14.18C52.36,18.41,52.18,22.44,52.18,26.46ZM4.58,26.2c0,4-.21,8.06.06,12.07C5,44,7.82,47.46,13.52,47.79a220.16,220.16,0,0,0,25.56,0c5.28-.3,8.31-3.61,8.53-8.8.36-8.34.36-16.71,0-25-.22-5.52-3.74-9-9.25-9.2-8.07-.32-16.16-.32-24.22,0-5.76.21-9.1,3.7-9.52,9.47C4.36,18.14,4.59,22.18,4.58,26.2Z"/><path class="cls-1" d="M13,26.4A12.92,12.92,0,0,1,26,13,12.91,12.91,0,0,1,39.37,26,13.35,13.35,0,0,1,26.13,39.86,13.35,13.35,0,0,1,13,26.4Zm4.47.05a8.89,8.89,0,0,0,8.88,8.84,8.86,8.86,0,0,0,8.58-9.13A8.5,8.5,0,0,0,26,17.5,8.54,8.54,0,0,0,17.44,26.45Z"/><path class="cls-1" d="M44.05,12.13c-1.63,1.24-2.77,2.72-3.52,2.54-1.14-.27-2-1.68-3-2.61,1-.9,1.9-2.29,3-2.52C41.34,9.39,42.45,10.87,44.05,12.13Z"/></g></g></svg>