<svg xmlns="http://www.w3.org/2000/svg" viewBox="0 0 60.24 60.62"><defs><style>.cls-1{fill:#323c40;}</style></defs><g id="Calque_2" data-name="Calque 2"><g id="Calque_3" data-name="Calque 3"><path class="cls-1" d="M60.15,30.51c0,4.63.24,9.29,0,13.91-.58,9-5.66,15-14.58,15.65A218.92,218.92,0,0,1,15,60.1C6,59.47.68,53.52.3,44.59c-.4-9.44-.39-18.92,0-28.36S6.85.62,16.39.26c9.12-.35,18.27-.34,27.39,0,9.81.35,15.79,6.5,16.33,16.34C60.37,21.22,60.16,25.87,60.15,30.51Zm-54.86-.3c0,4.64-.25,9.29,0,13.91.44,6.61,3.68,10.59,10.24,11A254.15,254.15,0,0,0,45.05,55c6.09-.35,9.59-4.16,9.84-10.15.41-9.61.42-19.26,0-28.88-.25-6.36-4.31-10.35-10.67-10.6C35,5,25.63,5,16.33,5.38c-6.64.25-10.49,4.27-11,10.92C5,20.92,5.29,25.57,5.29,30.21Z"/><path class="cls-1" d="M15,30.43C14.9,21.65,21.3,15.05,30,15A14.87,14.87,0,0,1,45.39,30c.11,8.89-6.69,16-15.27,16A15.37,15.37,0,0,1,15,30.43Zm5.14.06a10.26,10.26,0,0,0,10.24,10.2,10.23,10.23,0,0,0,9.9-10.53A9.81,9.81,0,0,0,30,20.17,9.85,9.85,0,0,0,20.1,30.49Z"/><path class="cls-1" d="M50.79,14c-1.88,1.44-3.2,3.14-4.07,2.94-1.31-.31-2.31-2-3.45-3,1.16-1,2.2-2.64,3.51-2.9C47.66,10.82,48.94,12.53,50.79,14Z"/></g></g></svg>