<svg xmlns="http://www.w3.org/2000/svg" viewBox="0 0 52.91 39.16"><defs><style>.cls-1{fill:#f6f6f6;}</style></defs><g id="Calque_2" data-name="Calque 2"><g id="homepage"><path class="cls-1" d="M25.49,39.1c-5.59,0-11.19-.06-16.78,0C3.93,39.18.6,37,.35,32.29-.1,23.67-.1,15,.27,6.39.35,4.65,2.65,2.5,4.46,1.49A14.6,14.6,0,0,1,11.19.1C21.59,0,32,0,42.4.07,49.56.13,52,2.16,52.57,9.31c.49,6.61.36,13.29.2,19.93-.17,7.18-2.68,9.59-10.05,9.83C37,39.25,31.23,39.1,25.49,39.1ZM19.64,9.42v20.5L36.27,19.7Z"/></g></g></svg>