<svg xmlns="http://www.w3.org/2000/svg" viewBox="0 0 61 45.15"><defs><style>.cls-1{fill:#323c40;}</style></defs><g id="Calque_2" data-name="Calque 2"><g id="Calque_3" data-name="Calque 3"><path class="cls-1" d="M29.38,45.08c-6.44,0-12.89-.08-19.33,0C4.53,45.17.69,42.64.41,37.23-.12,27.29-.12,17.3.31,7.36c.09-2,2.74-4.47,4.83-5.64A16.71,16.71,0,0,1,12.9.12c12-.16,24-.15,36,0C57.14.15,60,2.49,60.6,10.73c.57,7.63.42,15.32.24,23C60.64,42,57.75,44.77,49.25,45,42.64,45.25,36,45.08,29.38,45.08ZM22.64,10.85V34.49L41.81,22.71Z"/></g></g></svg>