<svg xmlns="http://www.w3.org/2000/svg" viewBox="0 0 101.02 44.19"><defs><style>.cls-1{fill:#1d1d1b;}</style></defs><g id="Calque_2" data-name="Calque 2"><g id="Calque_3" data-name="Calque 3"><path class="cls-1" d="M0,44.19V0H101V44.19Zm100.32-.7V.7H.72V43.49Z"/><path class="cls-1" d="M27.49,9.77c.83,0,1.63,0,2.43,0,.16,0,.34.24.47.4.56.68,1.12,1.38,1.67,2.07l2,2.53L35.92,17c.12.14.24.3.37.47l2-2.45c.52-.65,1-1.29,1.58-1.94l1.77-2.22c.27-.35.55-.69.83-1a.22.22,0,0,1,.16-.09h2.47v18.9H42.28V14.11c-.63.8-1.23,1.54-1.83,2.28l-1.31,1.66-1.48,1.88-1,1.27c-.13.16-.63.11-.78-.07-.3-.36-.59-.73-.89-1.1l-1.37-1.72-1.78-2.22-1.55-1.92h-.07V28.67H27.49Z"/><path class="cls-1" d="M48.22,28.67V9.77h3.44c.87,0,1.75,0,2.62.06a6.61,6.61,0,0,1,2.69.65,4.67,4.67,0,0,1,2,1.93,4.21,4.21,0,0,1,.51,1.93A5.06,5.06,0,0,1,59.35,16a3.9,3.9,0,0,1-1.74,2.2c-.26.16-.54.29-.75.41.56.23,1.18.42,1.75.71A4.47,4.47,0,0,1,61,22.27a4.63,4.63,0,0,1-.9,4.26,5.67,5.67,0,0,1-3.18,1.9,8.43,8.43,0,0,1-1.58.2c-2.35,0-4.69,0-7,.05C48.29,28.69,48.26,28.68,48.22,28.67ZM51,26.19h.1c1.36,0,2.73,0,4.09-.05a3.29,3.29,0,0,0,1.73-.45,2.8,2.8,0,0,0,1.36-2.88,2.69,2.69,0,0,0-1.5-2,5.14,5.14,0,0,0-2.34-.5c-1.07,0-2.13,0-3.2,0H51Zm0-8.35c.5,0,1,0,1.45,0a7.8,7.8,0,0,0,2-.16,2.85,2.85,0,0,0,1.78-1.15,3,3,0,0,0,.44-2.08,2.25,2.25,0,0,0-.58-1.29,3.25,3.25,0,0,0-2.34-.9c-.83,0-1.67,0-2.5,0H51Z"/><path class="cls-1" d="M78.09,9.77c1.4,0,2.78,0,4.15,0a10.82,10.82,0,0,1,3.05.34,5.61,5.61,0,0,1,2.48,1.47A4.36,4.36,0,0,1,89,14.21a8,8,0,0,1,0,1.38,4.63,4.63,0,0,1-1,2.59,5.93,5.93,0,0,1-1.94,1.65l-.07,0,4.78,8.8-.18,0c-1,0-1.95,0-2.92,0a.25.25,0,0,1-.26-.16l-1.72-3.38-2.3-4.51a.29.29,0,0,0-.21-.16h-2.4v8.2H78.09Zm2.73,8.33c1.05-.07,2.07-.11,3.09-.23A2.37,2.37,0,0,0,85.53,17a2.92,2.92,0,0,0,.65-2.19,2.73,2.73,0,0,0-.67-1.6,3.07,3.07,0,0,0-2.23-1c-.72-.06-1.44,0-2.17-.06h-.29Z"/><path class="cls-1" d="M7.43,28.69l8.11-19h1.79a.28.28,0,0,1,.2.13l1.17,2.66c.31.69.63,1.38.94,2.08.54,1.2,1.07,2.41,1.6,3.61.29.66.6,1.31.89,2,.53,1.2,1.06,2.41,1.6,3.61l.87,2c.43.95.85,1.9,1.28,2.86,0,0,0,.08,0,.14H23.23c-.07,0-.17-.1-.21-.18-.32-.71-.63-1.44-.95-2.15-.44-1-.88-2-1.31-2.93a.44.44,0,0,0-.47-.32h-7.4c-.18,0-.29,0-.37.23-.57,1.39-1.16,2.78-1.74,4.17-.15.35-.3.71-.47,1.07a.25.25,0,0,1-.18.11Zm12-8.08-3-6.68-2.76,6.68Z"/><path class="cls-1" d="M63.64,9.78H74.35v2.46h-8v5.69h7.67v2.48H66.37V26.2H74.6v2.42h-11Z"/><path class="cls-1" d="M67.77,31.28v.64h-.71c0,.07,0,.11.06.14a1.16,1.16,0,0,1,0,1.57,1.82,1.82,0,0,1-1.12.49,1.08,1.08,0,0,0-.35.1.29.29,0,0,0-.15.2.25.25,0,0,0,.15.18l1.17.33a1.18,1.18,0,0,1,1,.81A1.09,1.09,0,0,1,67.27,37a2.77,2.77,0,0,1-2.68,0,1,1,0,0,1-.51-1.14c.06-.43.36-.62.72-.78l.13-.05c-.38-.42-.44-.69.23-1.07a1.36,1.36,0,0,1,.61-2.57c.58-.06,1.16-.05,1.74-.06Zm-2,4.14,0,0a3.2,3.2,0,0,0-.54.08c-.22.08-.43.23-.41.5a.48.48,0,0,0,.35.46,2.1,2.1,0,0,0,1.44,0,.71.71,0,0,0,.32-.4.35.35,0,0,0-.27-.4C66.4,35.58,66.11,35.51,65.82,35.42ZM65.91,32a.74.74,0,0,0-.76.7.76.76,0,0,0,.75.68.78.78,0,0,0,.76-.7A.73.73,0,0,0,65.91,32Z"/><path class="cls-1" d="M43.19,35.27h-.86v-4h.85v.43a1.81,1.81,0,0,1,1.2-.51,1.39,1.39,0,0,1,1.08.67,1.64,1.64,0,0,1,1.68-.62,1.16,1.16,0,0,1,.9,1.15c.05.94,0,1.88,0,2.84h-.81V33.67c0-.3,0-.61,0-.91a.8.8,0,0,0-.39-.74.85.85,0,0,0-.89.1.69.69,0,0,0-.36.7c0,.81,0,1.62,0,2.44h-.81V35c0-.7,0-1.39,0-2.08a1.64,1.64,0,0,0-.08-.54c-.18-.57-.85-.58-1.28-.24a.66.66,0,0,0-.27.58C43.2,33.57,43.19,34.41,43.19,35.27Z"/><path class="cls-1" d="M71.78,35.27H71v-4h.79v.44A1.89,1.89,0,0,1,73,31.22a1.35,1.35,0,0,1,1.08.64,7.37,7.37,0,0,1,.66-.48,1.28,1.28,0,0,1,1.92.89,2.59,2.59,0,0,1,0,.47v2.53h-.81V35c0-.72,0-1.44,0-2.16a.81.81,0,1,0-1.62-.15v2.57h-.86V32.82c0-.34,0-.68-.41-.83a.93.93,0,0,0-1,.2.56.56,0,0,0-.23.5C71.79,33.54,71.78,34.39,71.78,35.27Z"/><path class="cls-1" d="M49,33.34a2,2,0,0,1,2.1-2.06,2,2,0,1,1-.19,4.06A2,2,0,0,1,49,33.34Zm2.08,1.24a1.22,1.22,0,0,0,1.3-1.25,1.29,1.29,0,0,0-2.57,0A1.27,1.27,0,0,0,51.1,34.58Z"/><path class="cls-1" d="M77.8,31.29h.88v1.93c0,.21,0,.43,0,.64,0,.74.45.86,1,.74a.79.79,0,0,0,.69-.87c0-.73,0-1.45,0-2.18v-.26h.79v4h-.78l0-.44a1.66,1.66,0,0,1-1.25.51,1.24,1.24,0,0,1-1.21-1.05C77.82,33.3,77.82,32.3,77.8,31.29Z"/><path class="cls-1" d="M63.47,35.27h-.81V35c0-.77,0-1.53,0-2.3a.69.69,0,0,0-.45-.73.94.94,0,0,0-.91.18.8.8,0,0,0-.33.71c0,.79,0,1.59,0,2.4h-.79v-4h.78l0,.41a5.35,5.35,0,0,1,.54-.34,1.31,1.31,0,0,1,1.94,1.07c0,.47,0,.93,0,1.4S63.47,34.79,63.47,35.27Z"/><path class="cls-1" d="M82.13,34.1a4.59,4.59,0,0,0,.69.36,2,2,0,0,0,.77.13c.13,0,.29-.18.36-.32s-.09-.31-.23-.4-.58-.33-.84-.53a1.84,1.84,0,0,1-.58-.6A1,1,0,0,1,83,31.28a2.11,2.11,0,0,1,1.57.22.26.26,0,0,1,.12.18c0,.21,0,.42,0,.68-.22-.1-.41-.2-.61-.27s-.46-.23-.71-.1-.28.14-.28.22a.55.55,0,0,0,.18.38,10.4,10.4,0,0,0,.9.56,1.35,1.35,0,0,1,.68.85,1,1,0,0,1-.65,1.22,2.26,2.26,0,0,1-1.93-.2.26.26,0,0,1-.1-.19C82.12,34.6,82.13,34.38,82.13,34.1Z"/><path class="cls-1" d="M90.74,31.51v.83c-.3-.1-.59-.22-.89-.3a1,1,0,0,0-1.23.55,1.32,1.32,0,0,0,.63,1.89,1.94,1.94,0,0,0,1.36-.09l.16-.06s0,0,.08,0c0,.22,0,.46,0,.69,0,0-.08.12-.14.14a2.81,2.81,0,0,1-2,0,1.75,1.75,0,0,1-1-1.3,2.47,2.47,0,0,1,.14-1.49,1.73,1.73,0,0,1,1.5-1.12A2.23,2.23,0,0,1,90.74,31.51Z"/><path class="cls-1" d="M55.74,35.31c-.27.09-.38,0-.47-.25-.3-.71-.61-1.41-.93-2.12-.22-.51-.46-1-.69-1.54a.35.35,0,0,1,0-.12,7.27,7.27,0,0,1,.81,0c.07,0,.15.14.19.22.28.64.55,1.28.82,1.92l.13.2c.22-.53.42-1,.63-1.53.11-.24.2-.49.32-.72a.18.18,0,0,1,.15-.1c.24,0,.49,0,.79,0Z"/><path class="cls-1" d="M58.11,31.29h.83v4h-.83Z"/><path class="cls-1" d="M86.62,35.27h-.77v-4h.77Z"/><path class="cls-1" d="M59,30.13a.46.46,0,0,1-.49.48.45.45,0,0,1-.47-.49.48.48,0,0,1,1,0Z"/><path class="cls-1" d="M85.78,30.12a.41.41,0,0,1,.46-.47.49.49,0,0,1,.5.46.51.51,0,0,1-.5.5A.44.44,0,0,1,85.78,30.12Z"/></g></g></svg>