<svg xmlns="http://www.w3.org/2000/svg" viewBox="0 0 145.53 63.66"><defs><style>.cls-1{fill:#323c40;}</style></defs><g id="Calque_2" data-name="Calque 2"><g id="Calque_1-2" data-name="Calque 1"><path class="cls-1" d="M0,63.66V0H145.53V63.66Zm144.51-1V1H1V62.65Z"/><path class="cls-1" d="M39.61,14.08c1.18,0,2.34,0,3.49,0,.23,0,.48.34.67.57.82,1,1.62,2,2.42,3q1.45,1.83,2.92,3.65c.87,1.08,1.76,2.15,2.64,3.23l.53.68c.95-1.19,1.87-2.36,2.81-3.53.75-.93,1.51-1.85,2.26-2.79s1.71-2.13,2.56-3.2c.39-.5.79-1,1.19-1.49a.41.41,0,0,1,.24-.13h3.55V41.3h-4v-21l-2.63,3.28L56.38,26l-2.14,2.7c-.48.61-1,1.23-1.45,1.83-.18.23-.9.16-1.11-.1-.44-.52-.86-1.06-1.29-1.59l-2-2.47-2.56-3.2-2.24-2.76-.09,0V41.3H39.61Z"/><path class="cls-1" d="M69.46,41.29V14.08h5c1.27,0,2.53,0,3.79.08a9.7,9.7,0,0,1,3.87.94A6.65,6.65,0,0,1,85,17.88a6,6,0,0,1,.74,2.78,7.45,7.45,0,0,1-.23,2.44A5.73,5.73,0,0,1,83,26.26c-.37.23-.77.42-1.08.59.82.33,1.71.6,2.53,1a6.42,6.42,0,0,1,3.45,4.21,6.66,6.66,0,0,1-1.29,6.14A8.19,8.19,0,0,1,82,41a11.56,11.56,0,0,1-2.27.29c-3.38,0-6.76.06-10.14.08Zm4-3.56.15,0c2,0,3.93,0,5.9-.08A4.89,4.89,0,0,0,82,37,4,4,0,0,0,84,32.87,3.82,3.82,0,0,0,81.8,30a7.56,7.56,0,0,0-3.37-.73c-1.53-.05-3.06,0-4.6,0h-.36Zm0-12h2.09a10.67,10.67,0,0,0,2.87-.22A4.15,4.15,0,0,0,81,23.81a4.24,4.24,0,0,0,.63-3A3.26,3.26,0,0,0,80.8,19a4.71,4.71,0,0,0-3.37-1.29c-1.2-.06-2.4,0-3.61,0h-.34Z"/><path class="cls-1" d="M112.5,14.08c2,0,4,0,6,0a15.88,15.88,0,0,1,4.39.5,7.88,7.88,0,0,1,3.57,2.11,6.31,6.31,0,0,1,1.73,3.77,13.42,13.42,0,0,1,.07,2,6.79,6.79,0,0,1-1.4,3.73,8.52,8.52,0,0,1-2.8,2.37l-.1.07,6.88,12.67-.26,0h-4.2a.36.36,0,0,1-.38-.23c-.81-1.63-1.64-3.25-2.47-4.87q-1.65-3.25-3.31-6.49c-.06-.11-.2-.24-.3-.24-1.15,0-2.29,0-3.47,0V41.3H112.5Zm3.92,12c1.52-.1,3-.16,4.45-.32a3.54,3.54,0,0,0,2.34-1.32,4.18,4.18,0,0,0,.94-3.16,3.9,3.9,0,0,0-1-2.3A4.44,4.44,0,0,0,120,17.59c-1-.08-2.08-.06-3.12-.09h-.43Z"/><path class="cls-1" d="M10.7,41.32,22.39,13.93c.85,0,1.71,0,2.57,0a.41.41,0,0,1,.29.19c.57,1.27,1.12,2.55,1.69,3.83l1.36,3c.77,1.73,1.53,3.47,2.3,5.2.42.95.86,1.89,1.28,2.84.77,1.73,1.53,3.47,2.3,5.2L35.44,37l1.84,4.11a1,1,0,0,1,0,.2c-1.29,0-2.57,0-3.84,0-.1,0-.24-.14-.29-.25C32.7,40,32.25,39,31.79,38c-.62-1.4-1.26-2.81-1.88-4.21a.64.64,0,0,0-.68-.47c-3.55,0-7.11,0-10.66,0-.26,0-.42,0-.54.33-.82,2-1.67,4-2.5,6-.22.52-.44,1-.67,1.54a.38.38,0,0,1-.27.17ZM28,29.69l-4.29-9.62-4,9.62Z"/><path class="cls-1" d="M91.68,14.08H107.1v3.56H95.62v8.19h11V29.4H95.61v8.34h11.86v3.49H91.68Z"/><path class="cls-1" d="M97.62,45.06V46h-1a1.35,1.35,0,0,0,.08.19,1.65,1.65,0,0,1-.05,2.26,2.54,2.54,0,0,1-1.61.7,2.07,2.07,0,0,0-.5.15.46.46,0,0,0-.23.29.37.37,0,0,0,.23.26c.55.18,1.11.33,1.67.48a1.68,1.68,0,0,1,1.41,1.16,1.58,1.58,0,0,1-.7,1.75,4,4,0,0,1-3.85,0,1.48,1.48,0,0,1-.74-1.64,1.42,1.42,0,0,1,1-1.12l.2-.09c-.55-.6-.64-1,.32-1.53a2,2,0,0,1-1-1.14,1.93,1.93,0,0,1,1.86-2.57c.83-.09,1.67-.06,2.51-.08C97.37,45.05,97.48,45.06,97.62,45.06Zm-2.8,6,0,.06a4.88,4.88,0,0,0-.78.12.76.76,0,0,0-.6.72.7.7,0,0,0,.52.66,3,3,0,0,0,2.06,0,.93.93,0,0,0,.46-.58c.08-.25-.13-.48-.39-.57C95.65,51.26,95.23,51.15,94.82,51ZM95,46.15a1,1,0,0,0-1.1,1c0,.48.54,1,1.08,1a1.13,1.13,0,0,0,1.1-1A1,1,0,0,0,95,46.15Z"/><path class="cls-1" d="M62.21,50.81H61V45.08H62.2v.63A2.65,2.65,0,0,1,63.93,45a2,2,0,0,1,1.56,1,2.34,2.34,0,0,1,2.42-.88,1.68,1.68,0,0,1,1.3,1.65c.06,1.35,0,2.71,0,4.1H68.06V48.5c0-.44,0-.88,0-1.31a1.14,1.14,0,0,0-.56-1.06,1.21,1.21,0,0,0-1.28.14,1,1,0,0,0-.52,1c0,1.16,0,2.33,0,3.52H64.56v-.37c0-1,0-2,0-3a2.52,2.52,0,0,0-.11-.77,1.12,1.12,0,0,0-1.85-.34,1,1,0,0,0-.39.83C62.23,48.36,62.21,49.56,62.21,50.81Z"/><path class="cls-1" d="M103.41,50.81h-1.15V45.08h1.14v.64a2.73,2.73,0,0,1,1.74-.74,1.91,1.91,0,0,1,1.56.91,8.71,8.71,0,0,1,1-.68,1.83,1.83,0,0,1,2.76,1.28,3.08,3.08,0,0,1,.08.68V50.8h-1.16v-.37c0-1,0-2.07,0-3.11a1.26,1.26,0,0,0-.7-1.24,1.24,1.24,0,0,0-1.64,1v3.7h-1.23V47.28c0-.5-.06-1-.59-1.2a1.33,1.33,0,0,0-1.43.3.79.79,0,0,0-.33.71C103.42,48.32,103.41,49.54,103.41,50.81Z"/><path class="cls-1" d="M70.62,48a2.87,2.87,0,0,1,3-3,2.94,2.94,0,1,1-.27,5.85A2.82,2.82,0,0,1,70.62,48Zm3,1.79A1.75,1.75,0,0,0,75.48,48a1.85,1.85,0,1,0-1.87,1.8Z"/><path class="cls-1" d="M112.07,45.07h1.27v2.79c0,.3,0,.61,0,.91,0,1.07.65,1.24,1.45,1.07a1.12,1.12,0,0,0,1-1.25c-.06-1.05,0-2.1,0-3.14v-.38h1.13v5.74h-1.12l0-.64a2.39,2.39,0,0,1-1.81.73,1.76,1.76,0,0,1-1.74-1.51C112.11,48,112.11,46.54,112.07,45.07Z"/><path class="cls-1" d="M91.43,50.8H90.27c0-.13,0-.26,0-.39,0-1.1,0-2.2-.07-3.3a1,1,0,0,0-.65-1.06,1.37,1.37,0,0,0-1.31.27,1.13,1.13,0,0,0-.47,1c0,1.14,0,2.28,0,3.45H86.63v-5.7h1.13l0,.59a7.11,7.11,0,0,1,.77-.49,1.88,1.88,0,0,1,2.79,1.53c0,.68.06,1.36.08,2S91.43,50.11,91.43,50.8Z"/><path class="cls-1" d="M118.31,49.12a6.41,6.41,0,0,0,1,.52,3,3,0,0,0,1.1.19c.18,0,.42-.26.51-.46s-.13-.45-.32-.58c-.4-.27-.84-.47-1.21-.76a2.75,2.75,0,0,1-.84-.86,1.4,1.4,0,0,1,1-2.1,3,3,0,0,1,2.26.3.39.39,0,0,1,.17.27c0,.3,0,.6,0,1-.32-.15-.6-.29-.89-.4s-.66-.33-1-.14c-.16.08-.4.21-.4.32a.74.74,0,0,0,.25.54c.42.3.87.55,1.31.82a2,2,0,0,1,1,1.22,1.48,1.48,0,0,1-.94,1.75,3.22,3.22,0,0,1-2.77-.28.36.36,0,0,1-.15-.27C118.3,49.85,118.31,49.52,118.31,49.12Z"/><path class="cls-1" d="M130.71,45.38v1.21c-.43-.15-.84-.32-1.27-.44a1.52,1.52,0,0,0-1.78.8,1.89,1.89,0,0,0,.91,2.72,2.74,2.74,0,0,0,2-.13,2.18,2.18,0,0,0,.23-.09s.05,0,.12,0c0,.33,0,.66,0,1a.33.33,0,0,1-.2.2,4.14,4.14,0,0,1-2.92,0,2.52,2.52,0,0,1-1.46-1.88,3.58,3.58,0,0,1,.19-2.14A2.52,2.52,0,0,1,128.64,45,3.22,3.22,0,0,1,130.71,45.38Z"/><path class="cls-1" d="M80.29,50.87c-.38.13-.54-.06-.67-.37-.44-1-.89-2-1.34-3-.32-.75-.66-1.48-1-2.22a.44.44,0,0,1,0-.18,11.17,11.17,0,0,1,1.16,0c.11,0,.22.2.28.33.4.91.79,1.83,1.19,2.75a1.62,1.62,0,0,0,.17.29L81,46.25c.15-.35.29-.71.45-1a.31.31,0,0,1,.22-.14c.35,0,.7,0,1.15,0Z"/><path class="cls-1" d="M83.71,45.07h1.2v5.72h-1.2Z"/><path class="cls-1" d="M124.78,50.81h-1.11V45.08h1.11Z"/><path class="cls-1" d="M85,43.4a.67.67,0,0,1-.7.7.69.69,0,1,1,0-1.38A.65.65,0,0,1,85,43.4Z"/><path class="cls-1" d="M123.57,43.38a.58.58,0,0,1,.66-.66.69.69,0,0,1,.72.65.76.76,0,0,1-.72.73A.64.64,0,0,1,123.57,43.38Z"/></g></g></svg>